{"glyphs":{"0":{"ha":1014,"x_min":61,"x_max":953,"o":"m 507 -28 q 269 36 369 -27 q 115 218 169 99 q 61 503 61 337 q 116 786 62 670 q 270 963 170 903 q 507 1024 369 1024 q 745 963 645 1024 q 899 786 845 902 q 953 503 953 669 q 899 217 953 336 q 745 35 844 98 q 507 -28 645 -28 m 507 195 q 624 270 578 195 q 669 503 669 344 q 623 731 668 659 q 507 803 578 803 q 391 731 436 803 q 345 503 346 659 q 390 270 345 344 q 507 195 436 195 z "},"1":{"ha":702,"x_min":61,"x_max":562,"o":"m 562 1010 l 562 0 l 288 0 l 288 758 l 282 758 l 61 625 l 61 858 l 310 1010 l 562 1010 z "},"2":{"ha":898,"x_min":47,"x_max":842,"o":"m 67 0 l 67 197 l 444 509 q 532 595 500 555 q 564 689 564 635 q 528 780 564 747 q 435 813 492 813 q 343 779 378 813 q 308 681 307 744 l 47 681 q 95 864 47 787 q 230 982 143 941 q 435 1024 318 1024 q 645 985 556 1024 q 783 876 734 946 q 832 712 832 806 q 807 597 832 654 q 721 470 783 539 q 543 304 658 400 l 448 225 l 448 219 l 842 219 l 842 0 l 67 0 z "},"3":{"ha":937,"x_min":51,"x_max":883,"o":"m 462 -14 q 250 27 342 -14 q 105 141 157 69 q 51 308 52 214 l 327 308 q 366 236 328 264 q 464 207 404 207 q 557 237 521 207 q 592 314 593 267 q 551 389 593 360 q 442 418 509 418 l 339 418 l 339 608 l 442 608 q 542 637 504 608 q 580 712 581 666 q 548 784 581 756 q 464 813 515 813 q 371 783 407 813 q 333 708 334 754 l 71 708 q 122 872 72 801 q 261 983 173 943 q 464 1024 349 1024 q 662 986 576 1024 q 796 882 748 948 q 844 730 845 815 q 786 591 845 645 q 637 527 727 537 l 637 519 q 821 444 760 506 q 882 290 883 383 q 829 133 882 201 q 680 25 775 64 q 462 -14 585 -14 z "},"4":{"ha":975,"x_min":57,"x_max":927,"o":"m 57 158 l 57 371 l 464 1010 l 811 1010 l 811 371 l 927 371 l 927 158 l 811 158 l 811 0 l 548 0 l 548 158 l 57 158 m 554 371 l 554 726 l 546 726 l 327 379 l 327 371 l 554 371 z "},"5":{"ha":929,"x_min":71,"x_max":878,"o":"m 472 -14 q 265 27 355 -14 q 124 141 175 69 q 71 308 72 214 l 337 308 q 378 224 339 255 q 472 193 417 193 q 574 233 535 193 q 614 339 614 273 q 574 445 614 405 q 472 485 535 485 q 391 464 428 485 q 337 406 355 443 l 97 454 l 136 1010 l 815 1010 l 815 791 l 361 791 l 341 568 l 347 568 q 429 644 371 614 q 564 675 487 675 q 725 633 654 675 q 837 517 796 591 q 878 347 878 443 q 828 160 878 242 q 686 32 777 78 q 472 -14 595 -14 z "},"6":{"ha":951,"x_min":51,"x_max":894,"o":"m 489 -14 q 322 14 401 -14 q 182 102 243 42 q 86 259 120 162 q 51 493 51 356 q 107 776 52 657 q 260 960 161 895 q 491 1024 359 1024 q 688 981 603 1024 q 823 866 772 938 q 882 708 873 795 l 612 708 q 568 771 602 751 q 491 791 535 791 q 365 716 405 791 q 324 519 325 641 l 329 519 q 430 628 359 588 q 588 667 502 667 q 748 625 680 667 q 856 512 817 584 q 894 347 894 440 q 843 157 894 239 q 700 31 791 76 q 489 -14 609 -14 m 487 193 q 589 234 549 193 q 627 337 628 275 q 589 441 628 400 q 487 481 549 481 q 388 441 428 481 q 347 337 348 400 q 388 234 348 275 q 487 193 428 193 z "},"7":{"ha":848,"x_min":43,"x_max":793,"o":"m 112 0 l 509 785 l 509 791 l 43 791 l 43 1010 l 793 1010 l 793 791 l 395 0 l 112 0 z "},"8":{"ha":959,"x_min":55,"x_max":904,"o":"m 479 -14 q 261 24 357 -14 q 110 127 165 62 q 55 274 55 192 q 87 389 55 337 q 171 475 118 440 q 290 519 224 509 l 290 527 q 148 603 204 542 q 93 750 93 665 q 143 891 93 829 q 281 988 193 953 q 479 1024 368 1024 q 678 988 591 1024 q 816 890 765 952 q 866 750 866 829 q 810 603 866 665 q 669 527 754 542 l 669 519 q 787 475 734 509 q 872 389 840 440 q 904 274 904 337 q 849 127 904 192 q 698 24 794 62 q 479 -14 602 -14 m 479 176 q 576 210 538 176 q 614 298 614 245 q 576 384 614 350 q 479 418 538 418 q 383 384 421 418 q 345 298 345 351 q 383 211 345 246 q 479 176 421 176 m 479 608 q 564 639 531 608 q 598 718 598 670 q 564 796 598 765 q 479 827 531 827 q 395 796 428 827 q 361 718 361 765 q 395 639 361 671 q 479 608 428 608 z "},"9":{"ha":951,"x_min":57,"x_max":900,"o":"m 462 1024 q 629 996 550 1024 q 769 908 708 968 q 864 753 830 849 q 900 521 899 657 q 845 235 900 355 q 691 51 791 115 q 460 -14 592 -14 q 263 29 348 -14 q 128 145 178 72 q 69 306 77 217 l 339 306 q 383 239 349 260 q 460 219 416 219 q 587 294 546 219 q 627 495 627 369 l 621 495 q 521 386 593 426 q 363 347 450 347 q 203 388 272 347 q 96 501 135 430 q 57 665 58 573 q 108 853 57 772 q 251 979 159 934 q 462 1024 342 1024 m 464 817 q 363 776 402 817 q 324 675 323 735 q 363 573 325 614 q 464 533 402 533 q 564 573 524 533 q 604 675 605 614 q 563 776 603 735 q 464 817 524 817 z "},"A":{"ha":1105,"x_min":32,"x_max":1073,"o":"m 327 0 l 32 0 l 365 1010 l 740 1010 l 1073 0 l 777 0 l 719 193 l 386 193 l 327 0 m 448 399 l 657 399 l 556 732 l 548 732 l 448 399 z "},"Ä":{"ha":1105,"x_min":32,"x_max":1073,"o":"m 327 0 l 32 0 l 365 1010 l 740 1010 l 1073 0 l 777 0 l 719 193 l 386 193 l 327 0 m 397 1099 q 311 1132 346 1099 q 276 1213 276 1166 q 311 1294 276 1261 q 397 1328 346 1328 q 480 1294 445 1328 q 515 1213 515 1261 q 480 1132 515 1166 q 397 1099 445 1099 m 710 1099 q 625 1132 660 1099 q 590 1213 590 1166 q 625 1294 590 1261 q 710 1328 660 1328 q 794 1294 759 1328 q 829 1213 829 1261 q 794 1132 829 1166 q 710 1099 759 1099 m 448 399 l 657 399 l 556 732 l 548 732 l 448 399 z "},"Ã":{"ha":1105,"x_min":32,"x_max":1073,"o":"m 327 0 l 32 0 l 365 1010 l 740 1010 l 1073 0 l 777 0 l 719 193 l 386 193 l 327 0 m 448 399 l 657 399 l 556 732 l 548 732 l 448 399 m 418 1109 l 284 1109 q 333 1267 284 1215 q 452 1320 382 1319 q 527 1303 497 1320 q 579 1268 557 1285 q 608 1248 594 1256 q 635 1239 621 1239 q 676 1260 664 1239 q 689 1316 688 1280 l 821 1316 q 771 1158 819 1211 q 653 1103 722 1104 q 578 1119 607 1102 q 528 1154 549 1136 q 499 1175 512 1166 q 470 1184 485 1184 q 418 1109 418 1184 z "},"À":{"ha":1105,"x_min":32,"x_max":1073,"o":"m 327 0 l 32 0 l 365 1010 l 740 1010 l 1073 0 l 777 0 l 719 193 l 386 193 l 327 0 m 448 399 l 657 399 l 556 732 l 548 732 l 448 399 m 464 1105 l 316 1326 l 548 1326 l 643 1105 l 464 1105 z "},"Á":{"ha":1105,"x_min":32,"x_max":1073,"o":"m 327 0 l 32 0 l 365 1010 l 740 1010 l 1073 0 l 777 0 l 719 193 l 386 193 l 327 0 m 448 399 l 657 399 l 556 732 l 548 732 l 448 399 m 462 1105 l 556 1326 l 789 1326 l 641 1105 l 462 1105 z "},"Â":{"ha":1105,"x_min":32,"x_max":1073,"o":"m 327 0 l 32 0 l 365 1010 l 740 1010 l 1073 0 l 777 0 l 719 193 l 386 193 l 327 0 m 448 399 l 657 399 l 556 732 l 548 732 l 448 399 m 649 1101 l 552 1209 l 456 1101 l 231 1101 l 231 1107 l 458 1332 l 647 1332 l 874 1107 l 874 1101 l 649 1101 z "},"Å":{"ha":1105,"x_min":32,"x_max":1073,"o":"m 327 0 l 32 0 l 365 1010 l 740 1010 l 1073 0 l 777 0 l 719 193 l 386 193 l 327 0 m 552 1061 q 441 1106 487 1061 q 395 1213 395 1151 q 441 1321 395 1276 q 552 1365 487 1365 q 664 1321 618 1365 q 710 1213 710 1276 q 664 1106 710 1151 q 552 1061 618 1061 m 448 399 l 657 399 l 556 732 l 548 732 l 448 399 m 552 1154 q 597 1172 578 1155 q 616 1213 616 1189 q 597 1255 616 1238 q 552 1272 579 1273 q 508 1255 527 1272 q 489 1213 489 1238 q 508 1171 489 1189 q 552 1154 526 1154 z "},"Ǻ":{"ha":1105,"x_min":32,"x_max":1073,"o":"m 327 0 l 32 0 l 365 1010 l 740 1010 l 1073 0 l 777 0 l 719 193 l 386 193 l 327 0 m 448 399 l 657 399 l 556 732 l 548 732 l 448 399 m 552 1072 q 441 1115 487 1072 q 395 1217 395 1157 q 441 1319 395 1276 q 552 1361 487 1361 q 664 1319 618 1361 q 710 1217 710 1276 q 664 1115 710 1157 q 552 1072 618 1072 m 473 1413 l 572 1568 l 781 1568 l 633 1413 l 473 1413 m 552 1161 q 597 1177 578 1161 q 616 1217 616 1194 q 597 1257 616 1240 q 552 1273 579 1273 q 508 1256 527 1272 q 489 1217 489 1240 q 508 1177 489 1194 q 552 1161 526 1160 z "},"":{"ha":1105,"x_min":32,"x_max":1093,"o":"m 327 0 l 32 0 l 365 1010 l 740 1010 l 1073 0 l 777 0 l 719 193 l 386 193 l 327 0 m 552 1061 q 441 1106 487 1061 q 395 1213 395 1151 q 441 1321 395 1276 q 552 1365 487 1365 q 664 1321 618 1365 q 710 1213 710 1276 q 664 1106 710 1151 q 552 1061 618 1061 m 448 399 l 657 399 l 556 732 l 548 732 l 448 399 m 552 1154 q 597 1172 578 1155 q 616 1213 616 1189 q 597 1255 616 1238 q 552 1272 579 1273 q 508 1255 527 1272 q 489 1213 489 1238 q 508 1171 489 1189 q 552 1154 526 1154 m 975 -274 q 859 -240 906 -274 q 793 -144 812 -206 q 783 -58 780 -102 q 803 20 786 -14 q 848 67 820 54 l 1073 0 q 1000 -32 1025 -15 q 975 -79 974 -49 q 987 -117 974 -104 q 1020 -130 1000 -130 q 1042 -127 1033 -130 q 1061 -122 1052 -124 l 1093 -245 q 1044 -265 1073 -255 q 975 -274 1014 -274 z "},"Ā":{"ha":1105,"x_min":32,"x_max":1073,"o":"m 327 0 l 32 0 l 365 1010 l 740 1010 l 1073 0 l 777 0 l 719 193 l 386 193 l 327 0 m 448 399 l 657 399 l 556 732 l 548 732 l 448 399 m 799 1263 l 799 1138 l 306 1138 l 306 1263 l 799 1263 z "},"Ă":{"ha":1105,"x_min":32,"x_max":1073,"o":"m 327 0 l 32 0 l 365 1010 l 740 1010 l 1073 0 l 777 0 l 719 193 l 386 193 l 327 0 m 448 399 l 657 399 l 556 732 l 548 732 l 448 399 m 651 1282 l 823 1282 q 749 1129 822 1186 q 552 1071 676 1071 q 355 1129 428 1071 q 282 1282 282 1186 l 452 1282 q 474 1225 451 1251 q 552 1199 497 1199 q 628 1225 605 1199 q 651 1282 651 1250 z "},"Ą":{"ha":1105,"x_min":32,"x_max":1093,"o":"m 327 0 l 32 0 l 365 1010 l 740 1010 l 1073 0 l 777 0 l 719 193 l 386 193 l 327 0 m 448 399 l 657 399 l 556 732 l 548 732 l 448 399 m 975 -274 q 859 -240 906 -274 q 793 -144 812 -206 q 783 -58 780 -102 q 803 20 786 -14 q 848 67 820 54 l 1073 0 q 1000 -32 1025 -15 q 975 -79 974 -49 q 987 -117 974 -104 q 1020 -130 1000 -130 q 1042 -127 1033 -130 q 1061 -122 1052 -124 l 1093 -245 q 1044 -265 1073 -255 q 975 -274 1014 -274 z "},"Ǎ":{"ha":1105,"x_min":32,"x_max":1073,"o":"m 327 0 l 32 0 l 365 1010 l 740 1010 l 1073 0 l 777 0 l 719 193 l 386 193 l 327 0 m 448 399 l 657 399 l 556 732 l 548 732 l 448 399 m 456 1332 l 552 1223 l 649 1332 l 874 1332 l 874 1326 l 647 1101 l 458 1101 l 231 1326 l 231 1332 l 456 1332 z "},"Ǟ":{"ha":1105,"x_min":32,"x_max":1073,"o":"m 327 0 l 32 0 l 365 1010 l 740 1010 l 1073 0 l 777 0 l 719 193 l 386 193 l 327 0 m 448 399 l 657 399 l 556 732 l 548 732 l 448 399 m 799 1515 l 799 1391 l 306 1391 l 306 1515 l 799 1515 m 397 1099 q 311 1132 346 1099 q 276 1213 276 1166 q 311 1294 276 1261 q 397 1328 346 1328 q 480 1294 445 1328 q 515 1213 515 1261 q 480 1132 515 1166 q 397 1099 445 1099 m 710 1099 q 625 1132 660 1099 q 590 1213 590 1166 q 625 1294 590 1261 q 710 1328 660 1328 q 794 1294 759 1328 q 829 1213 829 1261 q 794 1132 829 1166 q 710 1099 759 1099 z "},"Ǡ":{"ha":1105,"x_min":32,"x_max":1073,"o":"m 327 0 l 32 0 l 365 1010 l 740 1010 l 1073 0 l 777 0 l 719 193 l 386 193 l 327 0 m 448 399 l 657 399 l 556 732 l 548 732 l 448 399 m 799 1515 l 799 1391 l 306 1391 l 306 1515 l 799 1515 m 553 1098 q 468 1132 503 1098 q 433 1213 433 1166 q 468 1294 433 1261 q 553 1327 503 1327 q 638 1294 603 1327 q 673 1213 673 1261 q 638 1132 673 1166 q 553 1098 603 1098 z "},"Ȁ":{"ha":1105,"x_min":32,"x_max":1073,"o":"m 327 0 l 32 0 l 365 1010 l 740 1010 l 1073 0 l 777 0 l 719 193 l 386 193 l 327 0 m 448 399 l 657 399 l 556 732 l 548 732 l 448 399 m 338 1105 l 190 1326 l 423 1326 l 518 1105 l 338 1105 m 606 1105 l 510 1326 l 730 1326 l 780 1105 l 606 1105 z "},"Ȃ":{"ha":1105,"x_min":32,"x_max":1073,"o":"m 327 0 l 32 0 l 365 1010 l 740 1010 l 1073 0 l 777 0 l 719 193 l 386 193 l 327 0 m 448 399 l 657 399 l 556 732 l 548 732 l 448 399 m 280 1128 q 353 1286 280 1225 q 550 1347 426 1347 q 748 1286 674 1347 q 823 1128 822 1225 l 651 1128 q 628 1184 651 1160 q 550 1209 605 1209 q 474 1184 497 1209 q 452 1128 451 1160 l 280 1128 z "},"Ȧ":{"ha":1105,"x_min":32,"x_max":1073,"o":"m 327 0 l 32 0 l 365 1010 l 740 1010 l 1073 0 l 777 0 l 719 193 l 386 193 l 327 0 m 448 399 l 657 399 l 556 732 l 548 732 l 448 399 m 552 1089 q 458 1126 497 1089 q 418 1213 418 1162 q 458 1301 418 1265 q 552 1338 497 1338 q 647 1301 608 1338 q 687 1213 687 1265 q 647 1126 687 1162 q 552 1089 608 1089 z "},"Ḁ":{"ha":1105,"x_min":32,"x_max":1073,"o":"m 327 0 l 32 0 l 365 1010 l 740 1010 l 1073 0 l 777 0 l 719 193 l 386 193 l 327 0 m 448 399 l 657 399 l 556 732 l 548 732 l 448 399 m 412 -146 q 452 -64 412 -99 q 552 -30 492 -30 q 649 -64 610 -30 q 689 -146 689 -99 q 649 -231 689 -198 q 552 -264 610 -264 q 452 -230 492 -264 q 412 -146 412 -196 m 503 -146 q 517 -179 503 -167 q 552 -191 530 -191 q 584 -179 572 -191 q 596 -146 596 -167 q 584 -116 596 -128 q 552 -105 572 -105 q 517 -116 530 -105 q 503 -146 503 -128 z "},"Ạ":{"ha":1105,"x_min":32,"x_max":1073,"o":"m 327 0 l 32 0 l 365 1010 l 740 1010 l 1073 0 l 777 0 l 719 193 l 386 193 l 327 0 m 448 399 l 657 399 l 556 732 l 548 732 l 448 399 m 552 -306 q 458 -269 497 -306 q 418 -182 418 -233 q 458 -94 418 -130 q 552 -57 497 -57 q 647 -94 608 -57 q 687 -182 687 -130 q 647 -269 687 -233 q 552 -306 608 -306 z "},"Ả":{"ha":1105,"x_min":32,"x_max":1073,"o":"m 327 0 l 32 0 l 365 1010 l 740 1010 l 1073 0 l 777 0 l 719 193 l 386 193 l 327 0 m 448 399 l 657 399 l 556 732 l 548 732 l 448 399 m 647 1123 l 452 1123 l 434 1199 q 509 1213 487 1201 q 531 1241 532 1225 q 505 1275 532 1268 q 438 1282 479 1282 l 444 1391 q 675 1355 596 1391 q 754 1255 755 1320 q 721 1191 755 1213 q 647 1162 688 1168 l 647 1123 z "},"Ấ":{"ha":1105,"x_min":32,"x_max":1073,"o":"m 327 0 l 32 0 l 365 1010 l 740 1010 l 1073 0 l 777 0 l 719 193 l 386 193 l 327 0 m 448 399 l 657 399 l 556 732 l 548 732 l 448 399 m 294 1085 l 491 1221 l 608 1221 l 807 1085 l 649 1085 l 550 1154 l 450 1085 l 294 1085 m 756 1150 l 884 1340 l 1059 1340 l 886 1150 l 756 1150 z "},"Ầ":{"ha":1105,"x_min":32,"x_max":1073,"o":"m 327 0 l 32 0 l 365 1010 l 740 1010 l 1073 0 l 777 0 l 719 193 l 386 193 l 327 0 m 448 399 l 657 399 l 556 732 l 548 732 l 448 399 m 610 1217 l 809 1081 l 651 1081 l 552 1150 l 452 1081 l 296 1081 l 493 1217 l 610 1217 m 217 1334 l 347 1146 l 219 1146 l 45 1334 l 217 1334 z "},"Ẩ":{"ha":1105,"x_min":32,"x_max":1073,"o":"m 327 0 l 32 0 l 365 1010 l 740 1010 l 1073 0 l 777 0 l 719 193 l 386 193 l 327 0 m 448 399 l 657 399 l 556 732 l 548 732 l 448 399 m 866 1166 l 740 1166 l 724 1229 q 786 1240 767 1231 q 805 1263 805 1249 q 782 1291 805 1285 q 726 1298 760 1298 l 732 1387 q 897 1358 840 1387 q 955 1274 955 1329 q 927 1223 955 1242 q 866 1198 899 1203 l 866 1166 m 606 1221 l 805 1085 l 645 1085 l 552 1146 l 456 1085 l 296 1085 l 495 1221 l 606 1221 z "},"Ẫ":{"ha":1105,"x_min":32,"x_max":1073,"o":"m 327 0 l 32 0 l 365 1010 l 740 1010 l 1073 0 l 777 0 l 719 193 l 386 193 l 327 0 m 448 399 l 657 399 l 556 732 l 548 732 l 448 399 m 616 1233 l 809 1091 l 649 1091 l 552 1160 l 460 1091 l 296 1091 l 491 1233 l 616 1233 m 651 1397 l 736 1365 q 715 1292 735 1325 q 655 1259 694 1259 q 599 1269 625 1259 q 547 1290 572 1279 q 499 1300 523 1300 q 481 1287 485 1300 q 477 1255 477 1274 l 395 1278 q 415 1348 394 1315 q 475 1381 435 1381 q 527 1371 499 1381 q 581 1351 554 1361 q 631 1342 609 1342 q 647 1360 643 1342 q 651 1397 651 1378 z "},"Ậ":{"ha":1105,"x_min":32,"x_max":1073,"o":"m 327 0 l 32 0 l 365 1010 l 740 1010 l 1073 0 l 777 0 l 719 193 l 386 193 l 327 0 m 448 399 l 657 399 l 556 732 l 548 732 l 448 399 m 649 1101 l 552 1209 l 456 1101 l 231 1101 l 231 1107 l 458 1332 l 647 1332 l 874 1107 l 874 1101 l 649 1101 m 552 -306 q 458 -269 497 -306 q 418 -182 418 -233 q 458 -94 418 -130 q 552 -57 497 -57 q 647 -94 608 -57 q 687 -182 687 -130 q 647 -269 687 -233 q 552 -306 608 -306 z "},"Ắ":{"ha":1105,"x_min":32,"x_max":1073,"o":"m 327 0 l 32 0 l 365 1010 l 740 1010 l 1073 0 l 777 0 l 719 193 l 386 193 l 327 0 m 448 399 l 657 399 l 556 732 l 548 732 l 448 399 m 669 1257 l 823 1257 q 748 1130 822 1178 q 550 1081 674 1081 q 354 1130 427 1081 q 282 1257 282 1178 l 432 1257 q 459 1204 432 1229 q 550 1180 486 1180 q 642 1204 615 1180 q 669 1257 668 1229 m 481 1245 l 578 1365 l 746 1365 l 616 1245 l 481 1245 z "},"Ằ":{"ha":1105,"x_min":32,"x_max":1073,"o":"m 327 0 l 32 0 l 365 1010 l 740 1010 l 1073 0 l 777 0 l 719 193 l 386 193 l 327 0 m 448 399 l 657 399 l 556 732 l 548 732 l 448 399 m 669 1259 l 823 1259 q 749 1134 822 1183 q 550 1085 676 1085 q 354 1134 427 1085 q 282 1259 282 1183 l 432 1259 q 459 1206 432 1231 q 550 1182 486 1182 q 641 1206 614 1182 q 669 1259 668 1231 m 493 1245 l 361 1365 l 529 1365 l 623 1245 l 493 1245 z "},"Ẳ":{"ha":1105,"x_min":32,"x_max":1073,"o":"m 327 0 l 32 0 l 365 1010 l 740 1010 l 1073 0 l 777 0 l 719 193 l 386 193 l 327 0 m 448 399 l 657 399 l 556 732 l 548 732 l 448 399 m 671 1235 l 827 1235 q 752 1110 828 1157 q 548 1063 677 1063 q 347 1110 421 1063 q 272 1235 273 1157 l 426 1235 q 456 1186 427 1205 q 548 1166 484 1166 q 643 1186 615 1166 q 671 1235 672 1207 m 616 1263 l 464 1263 l 444 1322 q 541 1351 542 1325 q 515 1381 542 1375 q 448 1387 489 1387 l 454 1472 q 655 1444 586 1472 q 722 1363 723 1417 q 690 1312 723 1329 q 616 1290 656 1295 l 616 1263 z "},"Ẵ":{"ha":1105,"x_min":32,"x_max":1073,"o":"m 327 0 l 32 0 l 365 1010 l 740 1010 l 1073 0 l 777 0 l 719 193 l 386 193 l 327 0 m 448 399 l 657 399 l 556 732 l 548 732 l 448 399 m 667 1235 l 821 1235 q 746 1109 820 1157 q 548 1061 672 1061 q 351 1109 425 1061 q 278 1235 278 1157 l 430 1235 q 456 1187 430 1207 q 548 1168 483 1168 q 638 1187 610 1168 q 667 1235 666 1205 m 653 1454 l 758 1422 q 724 1338 757 1375 q 643 1300 691 1300 q 578 1310 606 1300 q 524 1331 549 1321 q 470 1342 499 1342 q 439 1326 453 1342 q 426 1284 426 1309 l 326 1314 q 357 1399 325 1363 q 440 1436 389 1436 q 498 1426 470 1436 q 554 1405 526 1416 q 614 1395 583 1395 q 640 1412 628 1395 q 653 1454 653 1429 z "},"Ặ":{"ha":1105,"x_min":32,"x_max":1073,"o":"m 327 0 l 32 0 l 365 1010 l 740 1010 l 1073 0 l 777 0 l 719 193 l 386 193 l 327 0 m 448 399 l 657 399 l 556 732 l 548 732 l 448 399 m 651 1282 l 823 1282 q 749 1129 822 1186 q 552 1071 676 1071 q 355 1129 428 1071 q 282 1282 282 1186 l 452 1282 q 474 1225 451 1251 q 552 1199 497 1199 q 628 1225 605 1199 q 651 1282 651 1250 m 552 -306 q 458 -269 497 -306 q 418 -182 418 -233 q 458 -94 418 -130 q 552 -57 497 -57 q 647 -94 608 -57 q 687 -182 687 -130 q 647 -269 687 -233 q 552 -306 608 -306 z "},"Α":{"ha":1105,"x_min":32,"x_max":1073,"o":"m 327 0 l 32 0 l 365 1010 l 740 1010 l 1073 0 l 777 0 l 719 193 l 386 193 l 327 0 m 448 399 l 657 399 l 556 732 l 548 732 l 448 399 z "},"Ά":{"ha":1105,"x_min":32,"x_max":1073,"o":"m 327 0 l 32 0 l 365 1010 l 740 1010 l 1073 0 l 777 0 l 719 193 l 386 193 l 327 0 m 448 399 l 657 399 l 556 732 l 548 732 l 448 399 m 37 852 l 103 1089 l 331 1089 l 189 852 l 37 852 z "},"Ἀ":{"ha":1105,"x_min":32,"x_max":1073,"o":"m 327 0 l 32 0 l 365 1010 l 740 1010 l 1073 0 l 777 0 l 719 193 l 386 193 l 327 0 m 448 399 l 657 399 l 556 732 l 548 732 l 448 399 m 256 1010 l 256 939 q 224 828 256 872 q 148 765 191 783 l 87 840 q 130 882 119 855 q 140 943 140 909 l 140 1010 l 256 1010 z "},"Ἁ":{"ha":1105,"x_min":32,"x_max":1073,"o":"m 327 0 l 32 0 l 365 1010 l 740 1010 l 1073 0 l 777 0 l 719 193 l 386 193 l 327 0 m 448 399 l 657 399 l 556 732 l 548 732 l 448 399 m 118 939 l 118 1010 l 237 1010 l 237 943 q 246 887 238 916 q 288 840 255 857 l 227 765 q 152 828 185 783 q 118 939 119 872 z "},"Ἂ":{"ha":1105,"x_min":-138,"x_max":1073,"o":"m 327 0 l 32 0 l 365 1010 l 740 1010 l 1073 0 l 777 0 l 719 193 l 386 193 l 327 0 m 448 399 l 657 399 l 556 732 l 548 732 l 448 399 m 49 1010 l 49 955 q 15 847 50 896 q -83 765 -20 798 l -138 807 q -95 875 -109 838 q -81 959 -80 911 l -81 1010 l 49 1010 m 312 791 l 312 781 l 245 781 l 81 996 l 81 1010 l 231 1010 l 312 791 z "},"Ἃ":{"ha":1105,"x_min":-109,"x_max":1073,"o":"m 327 0 l 32 0 l 365 1010 l 740 1010 l 1073 0 l 777 0 l 719 193 l 386 193 l 327 0 m 448 399 l 657 399 l 556 732 l 548 732 l 448 399 m -109 939 l -109 1010 l 12 1010 l 12 943 q 19 887 11 916 q 65 840 28 857 l 4 765 q -76 828 -42 783 q -109 939 -109 872 m 304 799 l 304 779 l 237 779 l 73 996 l 73 1010 l 225 1010 l 304 799 z "},"Ἄ":{"ha":1105,"x_min":-130,"x_max":1073,"o":"m 327 0 l 32 0 l 365 1010 l 740 1010 l 1073 0 l 777 0 l 719 193 l 386 193 l 327 0 m 448 399 l 657 399 l 556 732 l 548 732 l 448 399 m 43 1010 l 43 939 q 10 829 43 874 q -69 765 -24 783 l -130 840 q -86 887 -94 857 q -77 943 -77 916 l -77 1010 l 43 1010 m 71 779 l 71 799 l 152 1010 l 302 1010 l 302 996 l 138 779 l 71 779 z "},"Ἅ":{"ha":1105,"x_min":-148,"x_max":1073,"o":"m 327 0 l 32 0 l 365 1010 l 740 1010 l 1073 0 l 777 0 l 719 193 l 386 193 l 327 0 m 448 399 l 657 399 l 556 732 l 548 732 l 448 399 m 69 779 l 69 799 l 146 1010 l 298 1010 l 298 996 l 132 779 l 69 779 m -39 765 q -113 826 -79 782 q -148 939 -147 870 l -148 1010 l -30 1010 l -30 943 q -20 882 -29 909 q 22 840 -10 855 l -39 765 z "},"Ἆ":{"ha":1105,"x_min":-32,"x_max":1073,"o":"m 327 0 l 32 0 l 365 1010 l 740 1010 l 1073 0 l 777 0 l 719 193 l 386 193 l 327 0 m 296 1184 l 399 1152 q 366 1067 399 1103 q 284 1030 334 1030 q 220 1041 248 1030 q 168 1062 193 1052 q 112 1073 143 1073 q 82 1055 93 1073 q 71 1014 71 1038 l -32 1044 q 0 1130 -32 1092 q 83 1168 33 1168 q 141 1158 112 1168 q 198 1137 170 1147 q 254 1126 226 1126 q 284 1143 272 1126 q 296 1184 296 1160 m 448 399 l 657 399 l 556 732 l 548 732 l 448 399 m 253 994 l 253 935 q 218 841 253 876 q 138 793 184 806 l 85 854 q 128 891 120 865 q 136 941 136 917 l 136 994 l 253 994 z "},"Ἇ":{"ha":1105,"x_min":-59,"x_max":1073,"o":"m 327 0 l 32 0 l 365 1010 l 740 1010 l 1073 0 l 777 0 l 719 193 l 386 193 l 327 0 m 448 399 l 657 399 l 556 732 l 548 732 l 448 399 m 268 1184 l 371 1152 q 339 1067 371 1103 q 256 1030 307 1030 q 193 1041 220 1030 q 141 1062 166 1052 q 85 1073 115 1073 q 55 1055 66 1073 q 43 1014 43 1038 l -59 1044 q -27 1130 -59 1092 q 55 1168 5 1168 q 113 1158 85 1168 q 170 1137 142 1147 q 227 1126 198 1126 q 256 1143 245 1126 q 268 1184 268 1160 m 110 935 l 110 994 l 227 994 l 227 941 q 235 891 227 917 q 278 854 243 865 l 223 793 q 147 839 183 805 q 110 935 110 873 z "},"Ᾰ":{"ha":1105,"x_min":32,"x_max":1073,"o":"m 327 0 l 32 0 l 365 1010 l 740 1010 l 1073 0 l 777 0 l 719 193 l 386 193 l 327 0 m 448 399 l 657 399 l 556 732 l 548 732 l 448 399 m 651 1282 l 823 1282 q 749 1129 822 1186 q 552 1071 676 1071 q 355 1129 428 1071 q 282 1282 282 1186 l 452 1282 q 474 1225 451 1251 q 552 1199 497 1199 q 628 1225 605 1199 q 651 1282 651 1250 z "},"Ᾱ":{"ha":1105,"x_min":32,"x_max":1073,"o":"m 327 0 l 32 0 l 365 1010 l 740 1010 l 1073 0 l 777 0 l 719 193 l 386 193 l 327 0 m 448 399 l 657 399 l 556 732 l 548 732 l 448 399 m 799 1263 l 799 1138 l 306 1138 l 306 1263 l 799 1263 z "},"Ὰ":{"ha":1105,"x_min":32,"x_max":1073,"o":"m 327 0 l 32 0 l 365 1010 l 740 1010 l 1073 0 l 777 0 l 719 193 l 386 193 l 327 0 m 448 399 l 657 399 l 556 732 l 548 732 l 448 399 m 237 779 l 73 996 l 73 1010 l 223 1010 l 300 803 l 300 779 l 237 779 z "},"Ⱥ":{"ha":1105,"x_min":32,"x_max":1073,"o":"m 896 1138 l 801 825 l 1073 0 l 777 0 l 719 193 l 610 193 l 513 -128 l 373 -128 l 470 193 l 386 193 l 327 0 l 32 0 l 365 1010 l 717 1010 l 756 1138 l 896 1138 m 532 399 l 594 605 l 556 732 l 548 732 l 448 399 l 532 399 z "},"Ά":{"ha":1105,"x_min":32,"x_max":1073,"o":"m 327 0 l 32 0 l 365 1010 l 740 1010 l 1073 0 l 777 0 l 719 193 l 386 193 l 327 0 m 448 399 l 657 399 l 556 732 l 548 732 l 448 399 m 43 852 l 43 876 l 122 1083 l 339 1083 l 339 1069 l 176 852 l 43 852 z "},"А":{"ha":1105,"x_min":32,"x_max":1073,"o":"m 327 0 l 32 0 l 365 1010 l 740 1010 l 1073 0 l 777 0 l 719 193 l 386 193 l 327 0 m 448 399 l 657 399 l 556 732 l 548 732 l 448 399 z "},"Ӑ":{"ha":1105,"x_min":32,"x_max":1073,"o":"m 327 0 l 32 0 l 365 1010 l 740 1010 l 1073 0 l 777 0 l 719 193 l 386 193 l 327 0 m 448 399 l 657 399 l 556 732 l 548 732 l 448 399 m 651 1282 l 823 1282 q 749 1129 822 1186 q 552 1071 676 1071 q 355 1129 428 1071 q 282 1282 282 1186 l 452 1282 q 474 1225 451 1251 q 552 1199 497 1199 q 628 1225 605 1199 q 651 1282 651 1250 z "},"Ӓ":{"ha":1105,"x_min":32,"x_max":1073,"o":"m 327 0 l 32 0 l 365 1010 l 740 1010 l 1073 0 l 777 0 l 719 193 l 386 193 l 327 0 m 397 1099 q 311 1132 346 1099 q 276 1213 276 1166 q 311 1294 276 1261 q 397 1328 346 1328 q 480 1294 445 1328 q 515 1213 515 1261 q 480 1132 515 1166 q 397 1099 445 1099 m 710 1099 q 625 1132 660 1099 q 590 1213 590 1166 q 625 1294 590 1261 q 710 1328 660 1328 q 794 1294 759 1328 q 829 1213 829 1261 q 794 1132 829 1166 q 710 1099 759 1099 m 448 399 l 657 399 l 556 732 l 548 732 l 448 399 z "},"ᾈ":{"ha":1105,"x_min":32,"x_max":1073,"o":"m 327 0 l 32 0 l 365 1010 l 740 1010 l 1073 0 l 777 0 l 719 193 l 386 193 l 327 0 m 448 399 l 657 399 l 556 732 l 548 732 l 448 399 m 623 -335 q 527 -305 568 -335 q 485 -207 485 -275 l 485 -69 l 625 -69 l 625 -207 q 633 -230 625 -222 q 665 -239 640 -239 q 684 -238 677 -239 q 696 -237 691 -237 l 696 -326 q 662 -333 679 -330 q 623 -335 645 -335 m 256 1010 l 256 939 q 224 828 256 872 q 148 765 191 783 l 87 840 q 130 882 119 855 q 140 943 140 909 l 140 1010 l 256 1010 z "},"ᾉ":{"ha":1105,"x_min":32,"x_max":1073,"o":"m 327 0 l 32 0 l 365 1010 l 740 1010 l 1073 0 l 777 0 l 719 193 l 386 193 l 327 0 m 448 399 l 657 399 l 556 732 l 548 732 l 448 399 m 623 -335 q 527 -305 568 -335 q 485 -207 485 -275 l 485 -69 l 625 -69 l 625 -207 q 633 -230 625 -222 q 665 -239 640 -239 q 684 -238 677 -239 q 696 -237 691 -237 l 696 -326 q 662 -333 679 -330 q 623 -335 645 -335 m 118 939 l 118 1010 l 237 1010 l 237 943 q 246 887 238 916 q 288 840 255 857 l 227 765 q 152 828 185 783 q 118 939 119 872 z "},"ᾊ":{"ha":1105,"x_min":-138,"x_max":1073,"o":"m 327 0 l 32 0 l 365 1010 l 740 1010 l 1073 0 l 777 0 l 719 193 l 386 193 l 327 0 m 448 399 l 657 399 l 556 732 l 548 732 l 448 399 m 623 -335 q 527 -305 568 -335 q 485 -207 485 -275 l 485 -69 l 625 -69 l 625 -207 q 633 -230 625 -222 q 665 -239 640 -239 q 684 -238 677 -239 q 696 -237 691 -237 l 696 -326 q 662 -333 679 -330 q 623 -335 645 -335 m 49 1010 l 49 955 q 15 847 50 896 q -83 765 -20 798 l -138 807 q -95 875 -109 838 q -81 959 -80 911 l -81 1010 l 49 1010 m 312 791 l 312 781 l 245 781 l 81 996 l 81 1010 l 231 1010 l 312 791 z "},"ᾋ":{"ha":1105,"x_min":-109,"x_max":1073,"o":"m 327 0 l 32 0 l 365 1010 l 740 1010 l 1073 0 l 777 0 l 719 193 l 386 193 l 327 0 m 448 399 l 657 399 l 556 732 l 548 732 l 448 399 m 623 -335 q 527 -305 568 -335 q 485 -207 485 -275 l 485 -69 l 625 -69 l 625 -207 q 633 -230 625 -222 q 665 -239 640 -239 q 684 -238 677 -239 q 696 -237 691 -237 l 696 -326 q 662 -333 679 -330 q 623 -335 645 -335 m -109 939 l -109 1010 l 12 1010 l 12 943 q 19 887 11 916 q 65 840 28 857 l 4 765 q -76 828 -42 783 q -109 939 -109 872 m 304 799 l 304 779 l 237 779 l 73 996 l 73 1010 l 225 1010 l 304 799 z "},"ᾌ":{"ha":1105,"x_min":-130,"x_max":1073,"o":"m 327 0 l 32 0 l 365 1010 l 740 1010 l 1073 0 l 777 0 l 719 193 l 386 193 l 327 0 m 448 399 l 657 399 l 556 732 l 548 732 l 448 399 m 43 1010 l 43 939 q 10 829 43 874 q -69 765 -24 783 l -130 840 q -86 887 -94 857 q -77 943 -77 916 l -77 1010 l 43 1010 m 71 779 l 71 799 l 152 1010 l 302 1010 l 302 996 l 138 779 l 71 779 m 623 -335 q 527 -305 568 -335 q 485 -207 485 -275 l 485 -69 l 625 -69 l 625 -207 q 633 -230 625 -222 q 665 -239 640 -239 q 684 -238 677 -239 q 696 -237 691 -237 l 696 -326 q 662 -333 679 -330 q 623 -335 645 -335 z "},"ᾍ":{"ha":1105,"x_min":-148,"x_max":1073,"o":"m 327 0 l 32 0 l 365 1010 l 740 1010 l 1073 0 l 777 0 l 719 193 l 386 193 l 327 0 m 448 399 l 657 399 l 556 732 l 548 732 l 448 399 m 623 -335 q 527 -305 568 -335 q 485 -207 485 -275 l 485 -69 l 625 -69 l 625 -207 q 633 -230 625 -222 q 665 -239 640 -239 q 684 -238 677 -239 q 696 -237 691 -237 l 696 -326 q 662 -333 679 -330 q 623 -335 645 -335 m 69 779 l 69 799 l 146 1010 l 298 1010 l 298 996 l 132 779 l 69 779 m -39 765 q -113 826 -79 782 q -148 939 -147 870 l -148 1010 l -30 1010 l -30 943 q -20 882 -29 909 q 22 840 -10 855 l -39 765 z "},"ᾎ":{"ha":1105,"x_min":-32,"x_max":1073,"o":"m 327 0 l 32 0 l 365 1010 l 740 1010 l 1073 0 l 777 0 l 719 193 l 386 193 l 327 0 m 296 1184 l 399 1152 q 366 1067 399 1103 q 284 1030 334 1030 q 220 1041 248 1030 q 168 1062 193 1052 q 112 1073 143 1073 q 82 1055 93 1073 q 71 1014 71 1038 l -32 1044 q 0 1130 -32 1092 q 83 1168 33 1168 q 141 1158 112 1168 q 198 1137 170 1147 q 254 1126 226 1126 q 284 1143 272 1126 q 296 1184 296 1160 m 448 399 l 657 399 l 556 732 l 548 732 l 448 399 m 253 994 l 253 935 q 218 841 253 876 q 138 793 184 806 l 85 854 q 128 891 120 865 q 136 941 136 917 l 136 994 l 253 994 m 623 -335 q 527 -305 568 -335 q 485 -207 485 -275 l 485 -69 l 625 -69 l 625 -207 q 633 -230 625 -222 q 665 -239 640 -239 q 684 -238 677 -239 q 696 -237 691 -237 l 696 -326 q 662 -333 679 -330 q 623 -335 645 -335 z "},"ᾏ":{"ha":1105,"x_min":-59,"x_max":1073,"o":"m 327 0 l 32 0 l 365 1010 l 740 1010 l 1073 0 l 777 0 l 719 193 l 386 193 l 327 0 m 448 399 l 657 399 l 556 732 l 548 732 l 448 399 m 623 -335 q 527 -305 568 -335 q 485 -207 485 -275 l 485 -69 l 625 -69 l 625 -207 q 633 -230 625 -222 q 665 -239 640 -239 q 684 -238 677 -239 q 696 -237 691 -237 l 696 -326 q 662 -333 679 -330 q 623 -335 645 -335 m 268 1184 l 371 1152 q 339 1067 371 1103 q 256 1030 307 1030 q 193 1041 220 1030 q 141 1062 166 1052 q 85 1073 115 1073 q 55 1055 66 1073 q 43 1014 43 1038 l -59 1044 q -27 1130 -59 1092 q 55 1168 5 1168 q 113 1158 85 1168 q 170 1137 142 1147 q 227 1126 198 1126 q 256 1143 245 1126 q 268 1184 268 1160 m 110 935 l 110 994 l 227 994 l 227 941 q 235 891 227 917 q 278 854 243 865 l 223 793 q 147 839 183 805 q 110 935 110 873 z "},"ᾼ":{"ha":1105,"x_min":32,"x_max":1073,"o":"m 327 0 l 32 0 l 365 1010 l 740 1010 l 1073 0 l 777 0 l 719 193 l 386 193 l 327 0 m 448 399 l 657 399 l 556 732 l 548 732 l 448 399 m 623 -335 q 527 -305 568 -335 q 485 -207 485 -275 l 485 -69 l 625 -69 l 625 -207 q 633 -230 625 -222 q 665 -239 640 -239 q 684 -238 677 -239 q 696 -237 691 -237 l 696 -326 q 662 -333 679 -330 q 623 -335 645 -335 z "},"Λ":{"ha":1105,"x_min":32,"x_max":1073,"o":"m 327 0 l 32 0 l 365 1010 l 740 1010 l 1073 0 l 777 0 l 556 732 l 548 732 l 327 0 z "},"Æ":{"ha":1468,"x_min":32,"x_max":1397,"o":"m 32 0 l 426 1010 l 1397 1010 l 1397 789 l 943 789 l 943 616 l 1359 616 l 1359 395 l 943 395 l 943 221 l 1395 221 l 1395 0 l 669 0 l 669 193 l 404 193 l 333 0 l 32 0 m 478 399 l 669 399 l 669 732 l 600 732 l 478 399 z "},"Ǣ":{"ha":1468,"x_min":32,"x_max":1397,"o":"m 32 0 l 426 1010 l 1397 1010 l 1397 789 l 943 789 l 943 616 l 1359 616 l 1359 395 l 943 395 l 943 221 l 1395 221 l 1395 0 l 669 0 l 669 193 l 404 193 l 333 0 l 32 0 m 478 399 l 669 399 l 669 732 l 600 732 l 478 399 m 1164 1263 l 1164 1138 l 671 1138 l 671 1263 l 1164 1263 z "},"Ǽ":{"ha":1468,"x_min":32,"x_max":1397,"o":"m 32 0 l 426 1010 l 1397 1010 l 1397 789 l 943 789 l 943 616 l 1359 616 l 1359 395 l 943 395 l 943 221 l 1395 221 l 1395 0 l 669 0 l 669 193 l 404 193 l 333 0 l 32 0 m 478 399 l 669 399 l 669 732 l 600 732 l 478 399 m 827 1105 l 921 1326 l 1154 1326 l 1006 1105 l 827 1105 z "},"Ӕ":{"ha":1468,"x_min":32,"x_max":1397,"o":"m 32 0 l 426 1010 l 1397 1010 l 1397 789 l 943 789 l 943 616 l 1359 616 l 1359 395 l 943 395 l 943 221 l 1395 221 l 1395 0 l 669 0 l 669 193 l 404 193 l 333 0 l 32 0 m 478 399 l 669 399 l 669 732 l 600 732 l 478 399 z "},"B":{"ha":927,"x_min":65,"x_max":896,"o":"m 65 0 l 65 1010 l 503 1010 q 766 942 676 1010 q 856 758 856 873 q 802 614 856 674 q 661 537 749 554 l 661 527 q 779 494 726 524 q 864 411 833 464 q 896 286 896 358 q 853 139 896 203 q 730 37 809 74 q 541 0 651 0 l 65 0 m 339 219 l 468 219 q 606 322 606 219 q 570 403 606 375 q 472 432 534 432 l 339 432 l 339 219 m 339 602 l 452 602 q 540 627 506 602 q 574 698 574 652 q 541 770 574 745 q 456 795 507 795 l 339 795 l 339 602 z "},"Ḃ":{"ha":927,"x_min":65,"x_max":896,"o":"m 65 0 l 65 1010 l 503 1010 q 766 942 676 1010 q 856 758 856 873 q 802 614 856 674 q 661 537 749 554 l 661 527 q 779 494 726 524 q 864 411 833 464 q 896 286 896 358 q 853 139 896 203 q 730 37 809 74 q 541 0 651 0 l 65 0 m 339 219 l 468 219 q 606 322 606 219 q 570 403 606 375 q 472 432 534 432 l 339 432 l 339 219 m 339 602 l 452 602 q 540 627 506 602 q 574 698 574 652 q 541 770 574 745 q 456 795 507 795 l 339 795 l 339 602 m 452 1089 q 357 1126 397 1089 q 318 1213 318 1162 q 357 1301 318 1265 q 452 1338 397 1338 q 547 1301 508 1338 q 586 1213 586 1265 q 547 1126 586 1162 q 452 1089 508 1089 z "},"Ḅ":{"ha":927,"x_min":65,"x_max":896,"o":"m 65 0 l 65 1010 l 503 1010 q 766 942 676 1010 q 856 758 856 873 q 802 614 856 674 q 661 537 749 554 l 661 527 q 779 494 726 524 q 864 411 833 464 q 896 286 896 358 q 853 139 896 203 q 730 37 809 74 q 541 0 651 0 l 65 0 m 339 219 l 468 219 q 606 322 606 219 q 570 403 606 375 q 472 432 534 432 l 339 432 l 339 219 m 339 602 l 452 602 q 540 627 506 602 q 574 698 574 652 q 541 770 574 745 q 456 795 507 795 l 339 795 l 339 602 m 450 -306 q 355 -269 395 -306 q 316 -182 316 -233 q 355 -94 316 -130 q 450 -57 395 -57 q 545 -94 506 -57 q 584 -182 584 -130 q 545 -269 584 -233 q 450 -306 506 -306 z "},"Ḇ":{"ha":927,"x_min":65,"x_max":896,"o":"m 65 0 l 65 1010 l 503 1010 q 766 942 676 1010 q 856 758 856 873 q 802 614 856 674 q 661 537 749 554 l 661 527 q 779 494 726 524 q 864 411 833 464 q 896 286 896 358 q 853 139 896 203 q 730 37 809 74 q 541 0 651 0 l 65 0 m 339 219 l 468 219 q 606 322 606 219 q 570 403 606 375 q 472 432 534 432 l 339 432 l 339 219 m 339 602 l 452 602 q 540 627 506 602 q 574 698 574 652 q 541 770 574 745 q 456 795 507 795 l 339 795 l 339 602 m 696 -127 l 696 -252 l 203 -252 l 203 -127 l 696 -127 z "},"Ƀ":{"ha":1022,"x_min":22,"x_max":990,"o":"m 160 0 l 160 1010 l 598 1010 q 861 942 771 1010 q 951 758 951 873 q 897 614 951 674 q 756 537 843 554 l 756 527 q 874 494 821 524 q 959 411 927 464 q 990 286 990 358 q 947 139 990 203 q 825 37 904 74 q 635 0 745 0 l 160 0 m 434 219 l 562 219 q 700 322 700 219 q 665 403 700 375 q 566 432 629 432 l 434 432 l 434 219 m 434 602 l 546 602 q 635 627 601 602 q 669 698 669 652 q 635 770 669 745 q 550 795 602 795 l 434 795 l 434 602 m 22 253 l 22 399 l 552 399 l 552 253 l 22 253 z "},"Ɓ":{"ha":1263,"x_min":37,"x_max":1231,"o":"m 400 0 l 400 791 l 385 791 q 319 771 343 791 q 287 722 296 752 q 278 663 278 692 l 278 590 l 37 590 l 37 710 q 131 932 37 854 q 385 1010 226 1010 l 838 1010 q 1102 942 1012 1010 q 1192 758 1192 873 q 1138 614 1192 674 q 996 537 1084 554 l 996 527 q 1115 494 1061 524 q 1199 411 1168 464 q 1231 286 1231 358 q 1188 139 1231 203 q 1065 37 1145 74 q 876 0 986 0 l 400 0 m 675 219 l 803 219 q 941 322 941 219 q 905 403 941 375 q 807 432 870 432 l 675 432 l 675 219 m 675 602 l 787 602 q 875 627 841 602 q 909 698 909 652 q 876 770 909 745 q 791 795 842 795 l 675 795 l 675 602 z "},"В":{"ha":927,"x_min":65,"x_max":896,"o":"m 65 0 l 65 1010 l 503 1010 q 766 942 676 1010 q 856 758 856 873 q 802 614 856 674 q 661 537 749 554 l 661 527 q 779 494 726 524 q 864 411 833 464 q 896 286 896 358 q 853 139 896 203 q 730 37 809 74 q 541 0 651 0 l 65 0 m 339 219 l 468 219 q 606 322 606 219 q 570 403 606 375 q 472 432 534 432 l 339 432 l 339 219 m 339 602 l 452 602 q 540 627 506 602 q 574 698 574 652 q 541 770 574 745 q 456 795 507 795 l 339 795 l 339 602 z "},"Β":{"ha":927,"x_min":65,"x_max":896,"o":"m 65 0 l 65 1010 l 503 1010 q 766 942 676 1010 q 856 758 856 873 q 802 614 856 674 q 661 537 749 554 l 661 527 q 779 494 726 524 q 864 411 833 464 q 896 286 896 358 q 853 139 896 203 q 730 37 809 74 q 541 0 651 0 l 65 0 m 339 219 l 468 219 q 606 322 606 219 q 570 403 606 375 q 472 432 534 432 l 339 432 l 339 219 m 339 602 l 452 602 q 540 627 506 602 q 574 698 574 652 q 541 770 574 745 q 456 795 507 795 l 339 795 l 339 602 z "},"C":{"ha":1067,"x_min":61,"x_max":1008,"o":"m 1008 631 l 730 631 q 680 743 724 700 q 556 785 636 785 q 398 711 453 785 q 343 505 343 637 q 399 295 343 366 q 554 225 454 225 q 675 263 630 225 q 730 365 720 300 l 1008 363 q 972 233 1003 299 q 884 110 941 166 q 743 20 827 54 q 548 -14 659 -14 q 299 46 409 -14 q 125 221 189 106 q 61 505 61 337 q 126 789 61 674 q 302 964 191 905 q 548 1024 412 1024 q 776 978 676 1024 q 936 844 875 932 q 1008 631 997 757 z "},"Ƈ":{"ha":1225,"x_min":61,"x_max":1237,"o":"m 1008 631 l 730 631 q 680 743 724 700 q 556 785 636 785 q 398 711 453 785 q 343 505 343 637 q 399 295 343 366 q 554 225 454 225 q 675 263 630 225 q 730 365 720 300 l 1008 363 q 972 233 1003 299 q 884 110 941 166 q 743 20 827 54 q 548 -14 659 -14 q 299 46 409 -14 q 125 221 189 106 q 61 505 61 337 q 126 789 61 674 q 302 964 191 905 q 548 1024 412 1024 q 830 948 714 1024 q 957 1025 882 999 q 1115 1052 1032 1052 q 1174 1051 1146 1052 q 1237 1046 1201 1050 l 1237 829 q 1199 830 1222 829 q 1162 831 1175 831 q 1095 817 1130 831 q 1034 773 1059 804 q 1008 689 1008 742 l 1008 631 z "},"Ç":{"ha":1067,"x_min":61,"x_max":1008,"o":"m 1008 631 l 730 631 q 680 743 724 700 q 556 785 636 785 q 398 711 453 785 q 343 505 343 637 q 399 295 343 366 q 554 225 454 225 q 675 263 630 225 q 730 365 720 300 l 1008 363 q 972 233 1003 299 q 884 110 941 166 q 743 20 827 54 q 548 -14 659 -14 q 299 46 409 -14 q 125 221 189 106 q 61 505 61 337 q 126 789 61 674 q 302 964 191 905 q 548 1024 412 1024 q 776 978 676 1024 q 936 844 875 932 q 1008 631 997 757 m 495 8 l 592 8 l 584 -37 q 675 -79 643 -46 q 708 -160 708 -111 q 630 -286 709 -240 q 412 -331 551 -331 l 412 -227 q 564 -166 560 -227 q 472 -95 568 -109 l 495 8 z "},"Ć":{"ha":1067,"x_min":61,"x_max":1008,"o":"m 1008 631 l 730 631 q 680 743 724 700 q 556 785 636 785 q 398 711 453 785 q 343 505 343 637 q 399 295 343 366 q 554 225 454 225 q 675 263 630 225 q 730 365 720 300 l 1008 363 q 972 233 1003 299 q 884 110 941 166 q 743 20 827 54 q 548 -14 659 -14 q 299 46 409 -14 q 125 221 189 106 q 61 505 61 337 q 126 789 61 674 q 302 964 191 905 q 548 1024 412 1024 q 776 978 676 1024 q 936 844 875 932 q 1008 631 997 757 m 458 1105 l 552 1326 l 785 1326 l 637 1105 l 458 1105 z "},"Ĉ":{"ha":1067,"x_min":61,"x_max":1008,"o":"m 1008 631 l 730 631 q 680 743 724 700 q 556 785 636 785 q 398 711 453 785 q 343 505 343 637 q 399 295 343 366 q 554 225 454 225 q 675 263 630 225 q 730 365 720 300 l 1008 363 q 972 233 1003 299 q 884 110 941 166 q 743 20 827 54 q 548 -14 659 -14 q 299 46 409 -14 q 125 221 189 106 q 61 505 61 337 q 126 789 61 674 q 302 964 191 905 q 548 1024 412 1024 q 776 978 676 1024 q 936 844 875 932 q 1008 631 997 757 m 645 1101 l 548 1209 l 452 1101 l 227 1101 l 227 1107 l 454 1332 l 643 1332 l 870 1107 l 870 1101 l 645 1101 z "},"Ċ":{"ha":1067,"x_min":61,"x_max":1008,"o":"m 1008 631 l 730 631 q 680 743 724 700 q 556 785 636 785 q 398 711 453 785 q 343 505 343 637 q 399 295 343 366 q 554 225 454 225 q 675 263 630 225 q 730 365 720 300 l 1008 363 q 972 233 1003 299 q 884 110 941 166 q 743 20 827 54 q 548 -14 659 -14 q 299 46 409 -14 q 125 221 189 106 q 61 505 61 337 q 126 789 61 674 q 302 964 191 905 q 548 1024 412 1024 q 776 978 676 1024 q 936 844 875 932 q 1008 631 997 757 m 548 1089 q 454 1126 493 1089 q 414 1213 414 1162 q 454 1301 414 1265 q 548 1338 493 1338 q 643 1301 604 1338 q 683 1213 683 1265 q 643 1126 683 1162 q 548 1089 604 1089 z "},"Č":{"ha":1067,"x_min":61,"x_max":1008,"o":"m 1008 631 l 730 631 q 680 743 724 700 q 556 785 636 785 q 398 711 453 785 q 343 505 343 637 q 399 295 343 366 q 554 225 454 225 q 675 263 630 225 q 730 365 720 300 l 1008 363 q 972 233 1003 299 q 884 110 941 166 q 743 20 827 54 q 548 -14 659 -14 q 299 46 409 -14 q 125 221 189 106 q 61 505 61 337 q 126 789 61 674 q 302 964 191 905 q 548 1024 412 1024 q 776 978 676 1024 q 936 844 875 932 q 1008 631 997 757 m 452 1332 l 548 1223 l 645 1332 l 870 1332 l 870 1326 l 643 1101 l 454 1101 l 227 1326 l 227 1332 l 452 1332 z "},"Ḉ":{"ha":1067,"x_min":61,"x_max":1008,"o":"m 1008 631 l 730 631 q 680 743 724 700 q 556 785 636 785 q 398 711 453 785 q 343 505 343 637 q 399 295 343 366 q 554 225 454 225 q 675 263 630 225 q 730 365 720 300 l 1008 363 q 972 233 1003 299 q 884 110 941 166 q 743 20 827 54 q 548 -14 659 -14 q 299 46 409 -14 q 125 221 189 106 q 61 505 61 337 q 126 789 61 674 q 302 964 191 905 q 548 1024 412 1024 q 776 978 676 1024 q 936 844 875 932 q 1008 631 997 757 m 495 8 l 592 8 l 584 -37 q 675 -79 643 -46 q 708 -160 708 -111 q 630 -286 709 -240 q 412 -331 551 -331 l 412 -227 q 564 -166 560 -227 q 472 -95 568 -109 l 495 8 m 458 1105 l 552 1326 l 785 1326 l 637 1105 l 458 1105 z "},"Ȼ":{"ha":1067,"x_min":61,"x_max":1008,"o":"m 274 -128 l 323 34 q 133 209 204 89 q 61 505 61 328 q 126 789 61 674 q 302 964 191 905 q 548 1024 412 1024 q 621 1020 586 1024 l 657 1138 l 797 1138 l 752 988 q 928 855 860 945 q 1008 631 997 764 l 730 631 q 678 744 724 703 l 522 227 q 554 225 538 225 q 675 263 630 225 q 730 365 720 300 l 1008 363 q 972 233 1003 299 q 884 110 941 166 q 743 20 827 54 q 548 -14 659 -14 q 451 -6 498 -14 l 414 -128 l 274 -128 m 401 292 l 550 785 q 397 709 450 783 q 343 505 343 635 q 401 292 343 364 z "},"Ɔ":{"ha":1067,"x_min":59,"x_max":1006,"o":"m 59 379 l 337 379 q 388 268 343 310 q 511 225 432 225 q 669 299 615 225 q 724 505 724 373 q 669 715 724 644 q 513 785 613 785 q 393 747 437 785 q 337 645 348 710 l 59 647 q 95 778 65 712 q 183 900 126 844 q 324 990 240 956 q 519 1024 408 1024 q 768 964 658 1024 q 942 789 878 905 q 1006 505 1006 673 q 941 221 1006 336 q 765 46 876 105 q 519 -14 655 -14 q 292 32 392 -14 q 131 166 192 78 q 59 379 70 254 z "},"Ϲ":{"ha":1067,"x_min":61,"x_max":1008,"o":"m 1008 631 l 730 631 q 680 743 724 700 q 556 785 636 785 q 398 711 453 785 q 343 505 343 637 q 399 295 343 366 q 554 225 454 225 q 675 263 630 225 q 730 365 720 300 l 1008 363 q 972 233 1003 299 q 884 110 941 166 q 743 20 827 54 q 548 -14 659 -14 q 299 46 409 -14 q 125 221 189 106 q 61 505 61 337 q 126 789 61 674 q 302 964 191 905 q 548 1024 412 1024 q 776 978 676 1024 q 936 844 875 932 q 1008 631 997 757 z "},"D":{"ha":1018,"x_min":65,"x_max":957,"o":"m 454 0 l 65 0 l 65 1010 l 450 1010 q 719 950 606 1010 q 895 776 833 889 q 957 505 957 663 q 895 234 957 347 q 721 60 834 121 q 454 0 608 0 m 339 233 l 444 233 q 572 257 519 233 q 653 340 625 281 q 681 505 681 400 q 652 670 681 611 q 569 753 624 729 q 436 777 515 777 l 339 777 l 339 233 z "},"Ɗ":{"ha":1355,"x_min":37,"x_max":1294,"o":"m 37 590 l 37 710 q 131 932 37 854 q 385 1010 226 1010 l 787 1010 q 1057 950 943 1010 q 1232 776 1170 889 q 1294 505 1294 663 q 1233 234 1294 347 q 1058 60 1171 121 q 791 0 945 0 l 402 0 l 402 777 l 385 777 q 300 742 322 777 q 278 663 278 707 l 278 590 l 37 590 m 677 777 l 677 233 l 781 233 q 909 257 856 233 q 990 340 962 281 q 1018 505 1018 400 q 990 670 1018 611 q 907 753 961 729 q 773 777 852 777 l 677 777 z "},"Ď":{"ha":1018,"x_min":65,"x_max":957,"o":"m 454 0 l 65 0 l 65 1010 l 450 1010 q 719 950 606 1010 q 895 776 833 889 q 957 505 957 663 q 895 234 957 347 q 721 60 834 121 q 454 0 608 0 m 339 233 l 444 233 q 572 257 519 233 q 653 340 625 281 q 681 505 681 400 q 652 670 681 611 q 569 753 624 729 q 436 777 515 777 l 339 777 l 339 233 m 306 1332 l 402 1223 l 499 1332 l 724 1332 l 724 1326 l 497 1101 l 308 1101 l 81 1326 l 81 1332 l 306 1332 z "},"Ḋ":{"ha":1018,"x_min":65,"x_max":957,"o":"m 454 0 l 65 0 l 65 1010 l 450 1010 q 719 950 606 1010 q 895 776 833 889 q 957 505 957 663 q 895 234 957 347 q 721 60 834 121 q 454 0 608 0 m 339 233 l 444 233 q 572 257 519 233 q 653 340 625 281 q 681 505 681 400 q 652 670 681 611 q 569 753 624 729 q 436 777 515 777 l 339 777 l 339 233 m 402 1089 q 308 1126 347 1089 q 268 1213 268 1162 q 308 1301 268 1265 q 402 1338 347 1338 q 497 1301 458 1338 q 537 1213 537 1265 q 497 1126 537 1162 q 402 1089 458 1089 z "},"Ḍ":{"ha":1018,"x_min":65,"x_max":957,"o":"m 454 0 l 65 0 l 65 1010 l 450 1010 q 719 950 606 1010 q 895 776 833 889 q 957 505 957 663 q 895 234 957 347 q 721 60 834 121 q 454 0 608 0 m 339 233 l 444 233 q 572 257 519 233 q 653 340 625 281 q 681 505 681 400 q 652 670 681 611 q 569 753 624 729 q 436 777 515 777 l 339 777 l 339 233 m 458 -306 q 363 -269 402 -306 q 324 -182 324 -233 q 363 -94 324 -130 q 458 -57 402 -57 q 553 -94 513 -57 q 592 -182 592 -130 q 553 -269 592 -233 q 458 -306 513 -306 z "},"Ḏ":{"ha":1018,"x_min":65,"x_max":957,"o":"m 454 0 l 65 0 l 65 1010 l 450 1010 q 719 950 606 1010 q 895 776 833 889 q 957 505 957 663 q 895 234 957 347 q 721 60 834 121 q 454 0 608 0 m 339 233 l 444 233 q 572 257 519 233 q 653 340 625 281 q 681 505 681 400 q 652 670 681 611 q 569 753 624 729 q 436 777 515 777 l 339 777 l 339 233 m 704 -127 l 704 -252 l 211 -252 l 211 -127 l 704 -127 z "},"Ḑ":{"ha":1018,"x_min":65,"x_max":957,"o":"m 454 0 l 65 0 l 65 1010 l 450 1010 q 719 950 606 1010 q 895 776 833 889 q 957 505 957 663 q 895 234 957 347 q 721 60 834 121 q 454 0 608 0 m 339 233 l 444 233 q 572 257 519 233 q 653 340 625 281 q 681 505 681 400 q 652 670 681 611 q 569 753 624 729 q 436 777 515 777 l 339 777 l 339 233 m 273 -316 l 338 -80 l 583 -80 l 459 -316 l 273 -316 z "},"Ḓ":{"ha":1018,"x_min":65,"x_max":957,"o":"m 454 0 l 65 0 l 65 1010 l 450 1010 q 719 950 606 1010 q 895 776 833 889 q 957 505 957 663 q 895 234 957 347 q 721 60 834 121 q 454 0 608 0 m 339 233 l 444 233 q 572 257 519 233 q 653 340 625 281 q 681 505 681 400 q 652 670 681 611 q 569 753 624 729 q 436 777 515 777 l 339 777 l 339 233 m 554 -294 l 458 -185 l 361 -294 l 136 -294 l 136 -288 l 363 -63 l 552 -63 l 779 -288 l 779 -294 l 554 -294 z "},"Ɖ":{"ha":1018,"x_min":-65,"x_max":957,"o":"m 454 0 l 65 0 l 65 468 l -65 468 l -65 614 l 65 614 l 65 1010 l 450 1010 q 719 950 606 1010 q 895 776 833 889 q 957 505 957 663 q 895 234 957 347 q 721 60 834 121 q 454 0 608 0 m 339 233 l 444 233 q 572 257 519 233 q 653 340 625 281 q 681 505 681 400 q 652 670 681 611 q 569 753 624 729 q 436 777 515 777 l 339 777 l 339 614 l 466 614 l 466 468 l 339 468 l 339 233 z "},"ǲ":{"ha":1841,"x_min":65,"x_max":1760,"o":"m 454 0 l 65 0 l 65 1010 l 450 1010 q 719 950 606 1010 q 895 776 833 889 q 957 505 957 663 q 895 234 957 347 q 721 60 834 121 q 454 0 608 0 m 339 233 l 444 233 q 572 257 519 233 q 653 340 625 281 q 681 505 681 400 q 652 670 681 611 q 569 753 624 729 q 436 777 515 777 l 339 777 l 339 233 m 1095 0 l 1095 150 l 1426 546 l 1426 550 l 1107 550 l 1107 758 l 1748 758 l 1748 592 l 1446 211 l 1446 207 l 1760 207 l 1760 0 l 1095 0 z "},"ǅ":{"ha":1841,"x_min":65,"x_max":1760,"o":"m 454 0 l 65 0 l 65 1010 l 450 1010 q 719 950 606 1010 q 895 776 833 889 q 957 505 957 663 q 895 234 957 347 q 721 60 834 121 q 454 0 608 0 m 339 233 l 444 233 q 572 257 519 233 q 653 340 625 281 q 681 505 681 400 q 652 670 681 611 q 569 753 624 729 q 436 777 515 777 l 339 777 l 339 233 m 1095 0 l 1095 150 l 1426 546 l 1426 550 l 1107 550 l 1107 758 l 1748 758 l 1748 592 l 1446 211 l 1446 207 l 1760 207 l 1760 0 l 1095 0 m 1332 1079 l 1428 971 l 1525 1079 l 1750 1079 l 1750 1073 l 1523 848 l 1334 848 l 1107 1073 l 1107 1079 l 1332 1079 z "},"E":{"ha":864,"x_min":65,"x_max":793,"o":"m 65 0 l 65 1010 l 793 1010 l 793 789 l 339 789 l 339 616 l 756 616 l 756 395 l 339 395 l 339 221 l 791 221 l 791 0 l 65 0 z "},"È":{"ha":864,"x_min":65,"x_max":793,"o":"m 65 0 l 65 1010 l 793 1010 l 793 789 l 339 789 l 339 616 l 756 616 l 756 395 l 339 395 l 339 221 l 791 221 l 791 0 l 65 0 m 343 1105 l 195 1326 l 428 1326 l 523 1105 l 343 1105 z "},"É":{"ha":864,"x_min":65,"x_max":793,"o":"m 65 0 l 65 1010 l 793 1010 l 793 789 l 339 789 l 339 616 l 756 616 l 756 395 l 339 395 l 339 221 l 791 221 l 791 0 l 65 0 m 341 1105 l 436 1326 l 669 1326 l 521 1105 l 341 1105 z "},"Ê":{"ha":864,"x_min":65,"x_max":793,"o":"m 65 0 l 65 1010 l 793 1010 l 793 789 l 339 789 l 339 616 l 756 616 l 756 395 l 339 395 l 339 221 l 791 221 l 791 0 l 65 0 m 529 1101 l 432 1209 l 335 1101 l 110 1101 l 110 1107 l 337 1332 l 527 1332 l 754 1107 l 754 1101 l 529 1101 z "},"Ë":{"ha":864,"x_min":65,"x_max":793,"o":"m 65 0 l 65 1010 l 793 1010 l 793 789 l 339 789 l 339 616 l 756 616 l 756 395 l 339 395 l 339 221 l 791 221 l 791 0 l 65 0 m 276 1099 q 191 1132 226 1099 q 156 1213 156 1166 q 191 1294 156 1261 q 276 1328 226 1328 q 360 1294 325 1328 q 395 1213 395 1261 q 360 1132 395 1166 q 276 1099 325 1099 m 590 1099 q 505 1132 540 1099 q 470 1213 470 1166 q 505 1294 470 1261 q 590 1328 540 1328 q 673 1294 639 1328 q 708 1213 708 1261 q 673 1132 708 1166 q 590 1099 639 1099 z "},"Ē":{"ha":864,"x_min":65,"x_max":793,"o":"m 65 0 l 65 1010 l 793 1010 l 793 789 l 339 789 l 339 616 l 756 616 l 756 395 l 339 395 l 339 221 l 791 221 l 791 0 l 65 0 m 679 1263 l 679 1138 l 185 1138 l 185 1263 l 679 1263 z "},"Ĕ":{"ha":864,"x_min":65,"x_max":793,"o":"m 65 0 l 65 1010 l 793 1010 l 793 789 l 339 789 l 339 616 l 756 616 l 756 395 l 339 395 l 339 221 l 791 221 l 791 0 l 65 0 m 531 1282 l 702 1282 q 629 1129 702 1186 q 432 1071 556 1071 q 234 1129 307 1071 q 162 1282 161 1186 l 331 1282 q 354 1225 331 1251 q 432 1199 377 1199 q 508 1225 485 1199 q 531 1282 530 1250 z "},"Ė":{"ha":864,"x_min":65,"x_max":793,"o":"m 65 0 l 65 1010 l 793 1010 l 793 789 l 339 789 l 339 616 l 756 616 l 756 395 l 339 395 l 339 221 l 791 221 l 791 0 l 65 0 m 432 1089 q 337 1126 377 1089 q 298 1213 298 1162 q 337 1301 298 1265 q 432 1338 377 1338 q 527 1301 488 1338 q 566 1213 566 1265 q 527 1126 566 1162 q 432 1089 488 1089 z "},"Ę":{"ha":864,"x_min":65,"x_max":811,"o":"m 65 0 l 65 1010 l 793 1010 l 793 789 l 339 789 l 339 616 l 756 616 l 756 395 l 339 395 l 339 221 l 791 221 l 791 0 l 65 0 m 692 -274 q 577 -240 624 -274 q 511 -144 530 -206 q 501 -58 498 -102 q 521 20 504 -14 q 566 67 538 54 l 791 0 q 718 -32 743 -15 q 692 -79 692 -49 q 705 -117 692 -104 q 738 -130 718 -130 q 760 -127 751 -130 q 779 -122 770 -124 l 811 -245 q 762 -265 791 -255 q 692 -274 732 -274 z "},"Ě":{"ha":864,"x_min":65,"x_max":793,"o":"m 65 0 l 65 1010 l 793 1010 l 793 789 l 339 789 l 339 616 l 756 616 l 756 395 l 339 395 l 339 221 l 791 221 l 791 0 l 65 0 m 335 1332 l 432 1223 l 529 1332 l 754 1332 l 754 1326 l 527 1101 l 337 1101 l 110 1326 l 110 1332 l 335 1332 z "},"Ȅ":{"ha":864,"x_min":65,"x_max":793,"o":"m 65 0 l 65 1010 l 793 1010 l 793 789 l 339 789 l 339 616 l 756 616 l 756 395 l 339 395 l 339 221 l 791 221 l 791 0 l 65 0 m 218 1105 l 70 1326 l 303 1326 l 398 1105 l 218 1105 m 485 1105 l 390 1326 l 610 1326 l 660 1105 l 485 1105 z "},"Ȇ":{"ha":864,"x_min":65,"x_max":793,"o":"m 65 0 l 65 1010 l 793 1010 l 793 789 l 339 789 l 339 616 l 756 616 l 756 395 l 339 395 l 339 221 l 791 221 l 791 0 l 65 0 m 160 1128 q 232 1286 159 1225 q 430 1347 305 1347 q 628 1286 554 1347 q 702 1128 702 1225 l 531 1128 q 507 1184 530 1160 q 430 1209 484 1209 q 354 1184 376 1209 q 331 1128 331 1160 l 160 1128 z "},"Ȩ":{"ha":864,"x_min":65,"x_max":793,"o":"m 65 0 l 65 1010 l 793 1010 l 793 789 l 339 789 l 339 616 l 756 616 l 756 395 l 339 395 l 339 221 l 791 221 l 791 0 l 65 0 m 387 4 l 483 4 l 475 -41 q 567 -83 534 -50 q 600 -164 599 -115 q 522 -290 601 -244 q 304 -335 442 -335 l 304 -231 q 456 -170 452 -231 q 363 -99 460 -113 l 387 4 z "},"Ḕ":{"ha":864,"x_min":65,"x_max":793,"o":"m 65 0 l 65 1010 l 793 1010 l 793 789 l 339 789 l 339 616 l 756 616 l 756 395 l 339 395 l 339 221 l 791 221 l 791 0 l 65 0 m 679 1243 l 679 1119 l 185 1119 l 185 1243 l 679 1243 m 349 1338 l 179 1528 l 401 1528 l 533 1338 l 349 1338 z "},"Ḗ":{"ha":864,"x_min":65,"x_max":793,"o":"m 65 0 l 65 1010 l 793 1010 l 793 789 l 339 789 l 339 616 l 756 616 l 756 395 l 339 395 l 339 221 l 791 221 l 791 0 l 65 0 m 679 1243 l 679 1119 l 185 1119 l 185 1243 l 679 1243 m 331 1338 l 463 1528 l 686 1528 l 515 1338 l 331 1338 z "},"Ḙ":{"ha":864,"x_min":65,"x_max":793,"o":"m 65 0 l 65 1010 l 793 1010 l 793 789 l 339 789 l 339 616 l 756 616 l 756 395 l 339 395 l 339 221 l 791 221 l 791 0 l 65 0 m 529 -294 l 432 -185 l 335 -294 l 110 -294 l 110 -288 l 337 -63 l 527 -63 l 754 -288 l 754 -294 l 529 -294 z "},"Ḛ":{"ha":864,"x_min":65,"x_max":793,"o":"m 65 0 l 65 1010 l 793 1010 l 793 789 l 339 789 l 339 616 l 756 616 l 756 395 l 339 395 l 339 221 l 791 221 l 791 0 l 65 0 m 316 -284 l 182 -284 q 230 -126 182 -178 q 349 -73 279 -73 q 424 -90 395 -73 q 476 -125 454 -108 q 505 -145 492 -137 q 533 -154 518 -154 q 573 -133 561 -153 q 586 -77 585 -113 l 718 -77 q 668 -235 717 -182 q 550 -290 619 -289 q 476 -273 505 -291 q 425 -239 447 -256 q 396 -218 410 -227 q 367 -209 382 -209 q 316 -284 316 -209 z "},"Ḝ":{"ha":864,"x_min":65,"x_max":793,"o":"m 65 0 l 65 1010 l 793 1010 l 793 789 l 339 789 l 339 616 l 756 616 l 756 395 l 339 395 l 339 221 l 791 221 l 791 0 l 65 0 m 387 4 l 483 4 l 475 -41 q 567 -83 534 -50 q 600 -164 599 -115 q 522 -290 601 -244 q 304 -335 442 -335 l 304 -231 q 456 -170 452 -231 q 363 -99 460 -113 l 387 4 m 531 1282 l 702 1282 q 629 1129 702 1186 q 432 1071 556 1071 q 234 1129 307 1071 q 162 1282 161 1186 l 331 1282 q 354 1225 331 1251 q 432 1199 377 1199 q 508 1225 485 1199 q 531 1282 530 1250 z "},"Ẹ":{"ha":864,"x_min":65,"x_max":793,"o":"m 65 0 l 65 1010 l 793 1010 l 793 789 l 339 789 l 339 616 l 756 616 l 756 395 l 339 395 l 339 221 l 791 221 l 791 0 l 65 0 m 432 -306 q 337 -269 377 -306 q 298 -182 298 -233 q 337 -94 298 -130 q 432 -57 377 -57 q 527 -94 488 -57 q 566 -182 566 -130 q 527 -269 566 -233 q 432 -306 488 -306 z "},"Ẻ":{"ha":864,"x_min":65,"x_max":793,"o":"m 65 0 l 65 1010 l 793 1010 l 793 789 l 339 789 l 339 616 l 756 616 l 756 395 l 339 395 l 339 221 l 791 221 l 791 0 l 65 0 m 527 1123 l 331 1123 l 314 1199 q 389 1213 366 1201 q 410 1241 411 1225 q 385 1275 411 1268 q 318 1282 359 1282 l 324 1391 q 555 1355 475 1391 q 633 1255 634 1320 q 601 1191 634 1213 q 527 1162 568 1168 l 527 1123 z "},"Ẽ":{"ha":864,"x_min":65,"x_max":793,"o":"m 65 0 l 65 1010 l 793 1010 l 793 789 l 339 789 l 339 616 l 756 616 l 756 395 l 339 395 l 339 221 l 791 221 l 791 0 l 65 0 m 298 1105 l 164 1105 q 213 1263 164 1211 q 331 1316 261 1315 q 407 1299 377 1316 q 459 1264 436 1281 q 487 1244 474 1252 q 515 1235 501 1235 q 556 1256 544 1235 q 568 1312 568 1276 l 700 1312 q 650 1154 699 1207 q 533 1099 602 1100 q 458 1115 487 1098 q 407 1150 429 1132 q 378 1171 392 1162 q 349 1180 364 1180 q 298 1105 298 1180 z "},"Ế":{"ha":864,"x_min":65,"x_max":939,"o":"m 65 0 l 65 1010 l 793 1010 l 793 789 l 339 789 l 339 616 l 756 616 l 756 395 l 339 395 l 339 221 l 791 221 l 791 0 l 65 0 m 174 1085 l 371 1221 l 487 1221 l 687 1085 l 529 1085 l 430 1154 l 329 1085 l 174 1085 m 635 1150 l 763 1340 l 939 1340 l 765 1150 l 635 1150 z "},"Ề":{"ha":864,"x_min":-75,"x_max":793,"o":"m 65 0 l 65 1010 l 793 1010 l 793 789 l 339 789 l 339 616 l 756 616 l 756 395 l 339 395 l 339 221 l 791 221 l 791 0 l 65 0 m 489 1217 l 689 1081 l 531 1081 l 432 1150 l 331 1081 l 176 1081 l 373 1217 l 489 1217 m 97 1334 l 227 1146 l 99 1146 l -75 1334 l 97 1334 z "},"Ể":{"ha":864,"x_min":65,"x_max":835,"o":"m 65 0 l 65 1010 l 793 1010 l 793 789 l 339 789 l 339 616 l 756 616 l 756 395 l 339 395 l 339 221 l 791 221 l 791 0 l 65 0 m 746 1166 l 619 1166 l 604 1229 q 666 1240 647 1231 q 685 1263 685 1249 q 662 1291 685 1285 q 606 1298 640 1298 l 612 1387 q 777 1358 720 1387 q 835 1274 835 1329 q 806 1223 835 1242 q 746 1198 778 1203 l 746 1166 m 485 1221 l 685 1085 l 525 1085 l 432 1146 l 335 1085 l 176 1085 l 375 1221 l 485 1221 z "},"Ễ":{"ha":864,"x_min":65,"x_max":793,"o":"m 65 0 l 65 1010 l 793 1010 l 793 789 l 339 789 l 339 616 l 756 616 l 756 395 l 339 395 l 339 221 l 791 221 l 791 0 l 65 0 m 495 1233 l 689 1091 l 529 1091 l 432 1160 l 339 1091 l 176 1091 l 371 1233 l 495 1233 m 531 1397 l 616 1365 q 595 1292 615 1325 q 535 1259 574 1259 q 478 1269 505 1259 q 427 1290 451 1279 q 379 1300 402 1300 q 361 1287 365 1300 q 357 1255 357 1274 l 274 1278 q 294 1348 274 1315 q 355 1381 315 1381 q 406 1371 379 1381 q 461 1351 434 1361 q 511 1342 488 1342 q 526 1360 522 1342 q 531 1397 530 1378 z "},"Ệ":{"ha":864,"x_min":65,"x_max":793,"o":"m 65 0 l 65 1010 l 793 1010 l 793 789 l 339 789 l 339 616 l 756 616 l 756 395 l 339 395 l 339 221 l 791 221 l 791 0 l 65 0 m 529 1101 l 432 1209 l 335 1101 l 110 1101 l 110 1107 l 337 1332 l 527 1332 l 754 1107 l 754 1101 l 529 1101 m 432 -306 q 337 -269 377 -306 q 298 -182 298 -233 q 337 -94 298 -130 q 432 -57 377 -57 q 527 -94 488 -57 q 566 -182 566 -130 q 527 -269 566 -233 q 432 -306 488 -306 z "},"Ɇ":{"ha":864,"x_min":65,"x_max":793,"o":"m 696 1138 l 659 1010 l 793 1010 l 793 789 l 596 789 l 546 616 l 756 616 l 756 395 l 482 395 l 432 221 l 791 221 l 791 0 l 368 0 l 331 -128 l 219 -128 l 256 0 l 65 0 l 65 1010 l 547 1010 l 584 1138 l 696 1138 m 483 789 l 339 789 l 339 616 l 434 616 l 483 789 m 369 395 l 339 395 l 339 290 l 369 395 z "},"Ǝ":{"ha":864,"x_min":71,"x_max":799,"o":"m 799 1010 l 799 0 l 71 0 l 71 221 l 525 221 l 525 395 l 109 395 l 109 616 l 525 616 l 525 789 l 73 789 l 73 1010 l 799 1010 z "},"Ε":{"ha":864,"x_min":65,"x_max":793,"o":"m 65 0 l 65 1010 l 793 1010 l 793 789 l 339 789 l 339 616 l 756 616 l 756 395 l 339 395 l 339 221 l 791 221 l 791 0 l 65 0 z "},"Έ":{"ha":1178,"x_min":77,"x_max":1107,"o":"m 379 0 l 379 1010 l 1107 1010 l 1107 789 l 653 789 l 653 616 l 1069 616 l 1069 395 l 653 395 l 653 221 l 1105 221 l 1105 0 l 379 0 m 77 852 l 142 1089 l 371 1089 l 229 852 l 77 852 z "},"Ἐ":{"ha":1083,"x_min":32,"x_max":1012,"o":"m 284 0 l 284 1010 l 1012 1010 l 1012 789 l 558 789 l 558 616 l 975 616 l 975 395 l 558 395 l 558 221 l 1010 221 l 1010 0 l 284 0 m 201 1010 l 201 939 q 168 828 201 872 q 93 765 136 783 l 32 840 q 74 882 64 855 q 85 943 85 909 l 85 1010 l 201 1010 z "},"Ἑ":{"ha":1093,"x_min":73,"x_max":1022,"o":"m 294 0 l 294 1010 l 1022 1010 l 1022 789 l 568 789 l 568 616 l 984 616 l 984 395 l 568 395 l 568 221 l 1020 221 l 1020 0 l 294 0 m 73 939 l 73 1010 l 191 1010 l 191 943 q 201 887 192 916 q 243 840 210 857 l 182 765 q 107 828 140 783 q 73 939 74 872 z "},"Ἒ":{"ha":1347,"x_min":71,"x_max":1276,"o":"m 548 0 l 548 1010 l 1276 1010 l 1276 789 l 823 789 l 823 616 l 1239 616 l 1239 395 l 823 395 l 823 221 l 1274 221 l 1274 0 l 548 0 m 258 1010 l 258 955 q 224 847 259 896 q 126 765 189 798 l 71 807 q 114 875 100 838 q 128 959 129 911 l 128 1010 l 258 1010 m 521 791 l 521 781 l 454 781 l 290 996 l 290 1010 l 440 1010 l 521 791 z "},"Ἓ":{"ha":1314,"x_min":67,"x_max":1243,"o":"m 515 0 l 515 1010 l 1243 1010 l 1243 789 l 789 789 l 789 616 l 1205 616 l 1205 395 l 789 395 l 789 221 l 1241 221 l 1241 0 l 515 0 m 67 939 l 67 1010 l 187 1010 l 187 943 q 195 887 187 916 q 241 840 203 857 l 180 765 q 100 828 133 783 q 67 939 67 872 m 479 799 l 479 779 l 412 779 l 249 996 l 249 1010 l 400 1010 l 479 799 z "},"Ἔ":{"ha":1344,"x_min":75,"x_max":1272,"o":"m 545 0 l 545 1010 l 1272 1010 l 1272 789 l 819 789 l 819 616 l 1235 616 l 1235 395 l 819 395 l 819 221 l 1271 221 l 1271 0 l 545 0 m 249 1010 l 249 939 q 215 829 248 874 q 136 765 182 783 l 75 840 q 120 887 111 857 q 128 943 128 916 l 128 1010 l 249 1010 m 276 779 l 276 799 l 357 1010 l 507 1010 l 507 996 l 343 779 l 276 779 z "},"Ἕ":{"ha":1359,"x_min":73,"x_max":1288,"o":"m 560 0 l 560 1010 l 1288 1010 l 1288 789 l 835 789 l 835 616 l 1251 616 l 1251 395 l 835 395 l 835 221 l 1286 221 l 1286 0 l 560 0 m 290 779 l 290 799 l 367 1010 l 519 1010 l 519 996 l 353 779 l 290 779 m 182 765 q 108 826 142 782 q 73 939 73 870 l 73 1010 l 191 1010 l 191 943 q 201 882 192 909 q 243 840 211 855 l 182 765 z "},"Ὲ":{"ha":1136,"x_min":71,"x_max":1065,"o":"m 337 0 l 337 1010 l 1065 1010 l 1065 789 l 612 789 l 612 616 l 1028 616 l 1028 395 l 612 395 l 612 221 l 1063 221 l 1063 0 l 337 0 m 235 779 l 71 996 l 71 1010 l 221 1010 l 298 803 l 298 779 l 235 779 z "},"Έ":{"ha":1136,"x_min":41,"x_max":1065,"o":"m 337 0 l 337 1010 l 1065 1010 l 1065 789 l 612 789 l 612 616 l 1028 616 l 1028 395 l 612 395 l 612 221 l 1063 221 l 1063 0 l 337 0 m 41 852 l 41 876 l 120 1083 l 337 1083 l 337 1069 l 174 852 l 41 852 z "},"Е":{"ha":864,"x_min":65,"x_max":793,"o":"m 65 0 l 65 1010 l 793 1010 l 793 789 l 339 789 l 339 616 l 756 616 l 756 395 l 339 395 l 339 221 l 791 221 l 791 0 l 65 0 z "},"Ѐ":{"ha":864,"x_min":65,"x_max":793,"o":"m 65 0 l 65 1010 l 793 1010 l 793 789 l 339 789 l 339 616 l 756 616 l 756 395 l 339 395 l 339 221 l 791 221 l 791 0 l 65 0 m 343 1105 l 195 1326 l 428 1326 l 523 1105 l 343 1105 z "},"Ё":{"ha":864,"x_min":65,"x_max":793,"o":"m 65 0 l 65 1010 l 793 1010 l 793 789 l 339 789 l 339 616 l 756 616 l 756 395 l 339 395 l 339 221 l 791 221 l 791 0 l 65 0 m 276 1099 q 191 1132 226 1099 q 156 1213 156 1166 q 191 1294 156 1261 q 276 1328 226 1328 q 360 1294 325 1328 q 395 1213 395 1261 q 360 1132 395 1166 q 276 1099 325 1099 m 590 1099 q 505 1132 540 1099 q 470 1213 470 1166 q 505 1294 470 1261 q 590 1328 540 1328 q 673 1294 639 1328 q 708 1213 708 1261 q 673 1132 708 1166 q 590 1099 639 1099 z "},"Ӗ":{"ha":864,"x_min":65,"x_max":793,"o":"m 65 0 l 65 1010 l 793 1010 l 793 789 l 339 789 l 339 616 l 756 616 l 756 395 l 339 395 l 339 221 l 791 221 l 791 0 l 65 0 m 531 1282 l 702 1282 q 629 1129 702 1186 q 432 1071 556 1071 q 234 1129 307 1071 q 162 1282 161 1186 l 331 1282 q 354 1225 331 1251 q 432 1199 377 1199 q 508 1225 485 1199 q 531 1282 530 1250 z "},"F":{"ha":811,"x_min":65,"x_max":775,"o":"m 65 0 l 65 1010 l 775 1010 l 775 789 l 339 789 l 339 616 l 732 616 l 732 395 l 339 395 l 339 0 l 65 0 z "},"Ƒ":{"ha":862,"x_min":-32,"x_max":827,"o":"m 116 -24 l 116 1010 l 827 1010 l 827 789 l 391 789 l 391 616 l 783 616 l 783 395 l 391 395 l 391 -24 q 364 -165 391 -113 q 292 -243 337 -218 q 194 -276 248 -269 q 87 -284 141 -284 q 29 -284 67 -284 q -32 -280 -10 -283 l -32 -79 q -15 -80 -24 -80 q 2 -79 -6 -79 q 14 -79 10 -79 q 84 -68 52 -79 q 116 -24 116 -58 z "},"Ḟ":{"ha":811,"x_min":65,"x_max":775,"o":"m 65 0 l 65 1010 l 775 1010 l 775 789 l 339 789 l 339 616 l 732 616 l 732 395 l 339 395 l 339 0 l 65 0 m 422 1089 q 327 1126 367 1089 q 288 1213 288 1162 q 327 1301 288 1265 q 422 1338 367 1338 q 517 1301 478 1338 q 556 1213 556 1265 q 517 1126 556 1162 q 422 1089 478 1089 z "},"Ⅎ":{"ha":811,"x_min":36,"x_max":746,"o":"m 746 1010 l 746 0 l 36 0 l 36 221 l 472 221 l 472 395 l 79 395 l 79 616 l 472 616 l 472 1010 l 746 1010 z "},"G":{"ha":1073,"x_min":61,"x_max":1010,"o":"m 721 677 q 667 757 709 728 q 560 785 625 785 q 400 712 457 785 q 343 507 343 638 q 398 299 343 374 q 558 225 452 225 q 697 264 651 225 q 746 369 744 303 l 562 369 l 562 564 l 1010 564 l 1010 424 q 952 188 1010 286 q 791 38 893 90 q 556 -14 689 -14 q 297 49 409 -14 q 124 227 186 111 q 61 503 61 343 q 128 786 61 670 q 306 963 194 903 q 554 1024 418 1024 q 770 979 674 1024 q 927 856 867 935 q 998 677 988 778 l 721 677 z "},"Ǥ":{"ha":1073,"x_min":61,"x_max":1042,"o":"m 1042 339 l 1042 278 l 990 278 q 833 62 948 139 q 556 -14 717 -14 q 297 49 409 -14 q 124 227 186 111 q 61 503 61 343 q 128 786 61 670 q 306 963 194 903 q 554 1024 418 1024 q 770 979 674 1024 q 927 856 867 935 q 998 677 988 778 l 721 677 q 667 757 709 728 q 560 785 625 785 q 400 712 457 785 q 343 507 343 638 q 398 299 343 374 q 558 225 452 225 q 712 278 664 225 l 562 278 l 562 339 l 742 339 q 746 369 745 354 l 562 369 l 562 564 l 1010 564 l 1010 424 q 1004 339 1010 380 l 1042 339 z "},"Ɠ":{"ha":1215,"x_min":61,"x_max":1215,"o":"m 998 677 l 718 677 l 718 688 q 560 785 687 785 q 400 712 457 785 q 343 507 343 638 q 398 299 343 374 q 558 225 452 225 q 697 264 651 225 q 746 369 744 303 l 562 369 l 562 564 l 1010 564 l 1010 424 q 952 188 1010 286 q 791 38 893 90 q 556 -14 689 -14 q 297 49 409 -14 q 124 227 186 111 q 61 503 61 343 q 128 786 61 670 q 306 963 194 903 q 554 1024 418 1024 q 743 990 655 1024 q 827 1096 772 1053 q 952 1160 882 1138 q 1095 1182 1021 1182 q 1153 1178 1125 1182 q 1215 1166 1181 1173 l 1215 953 q 1178 957 1196 954 q 1142 959 1160 959 q 1073 952 1106 959 q 1019 925 1040 946 q 998 862 998 905 l 998 677 z "},"Ĝ":{"ha":1073,"x_min":61,"x_max":1010,"o":"m 721 677 q 667 757 709 728 q 560 785 625 785 q 400 712 457 785 q 343 507 343 638 q 398 299 343 374 q 558 225 452 225 q 697 264 651 225 q 746 369 744 303 l 562 369 l 562 564 l 1010 564 l 1010 424 q 952 188 1010 286 q 791 38 893 90 q 556 -14 689 -14 q 297 49 409 -14 q 124 227 186 111 q 61 503 61 343 q 128 786 61 670 q 306 963 194 903 q 554 1024 418 1024 q 770 979 674 1024 q 927 856 867 935 q 998 677 988 778 l 721 677 m 643 1101 l 546 1209 l 450 1101 l 225 1101 l 225 1107 l 452 1332 l 641 1332 l 868 1107 l 868 1101 l 643 1101 z "},"Ğ":{"ha":1073,"x_min":61,"x_max":1010,"o":"m 721 677 q 667 757 709 728 q 560 785 625 785 q 400 712 457 785 q 343 507 343 638 q 398 299 343 374 q 558 225 452 225 q 697 264 651 225 q 746 369 744 303 l 562 369 l 562 564 l 1010 564 l 1010 424 q 952 188 1010 286 q 791 38 893 90 q 556 -14 689 -14 q 297 49 409 -14 q 124 227 186 111 q 61 503 61 343 q 128 786 61 670 q 306 963 194 903 q 554 1024 418 1024 q 770 979 674 1024 q 927 856 867 935 q 998 677 988 778 l 721 677 m 645 1282 l 817 1282 q 743 1129 816 1186 q 546 1071 670 1071 q 349 1129 422 1071 q 276 1282 276 1186 l 446 1282 q 468 1225 445 1251 q 546 1199 491 1199 q 622 1225 599 1199 q 645 1282 645 1250 z "},"Ġ":{"ha":1073,"x_min":61,"x_max":1010,"o":"m 721 677 q 667 757 709 728 q 560 785 625 785 q 400 712 457 785 q 343 507 343 638 q 398 299 343 374 q 558 225 452 225 q 697 264 651 225 q 746 369 744 303 l 562 369 l 562 564 l 1010 564 l 1010 424 q 952 188 1010 286 q 791 38 893 90 q 556 -14 689 -14 q 297 49 409 -14 q 124 227 186 111 q 61 503 61 343 q 128 786 61 670 q 306 963 194 903 q 554 1024 418 1024 q 770 979 674 1024 q 927 856 867 935 q 998 677 988 778 l 721 677 m 546 1089 q 452 1126 491 1089 q 412 1213 412 1162 q 452 1301 412 1265 q 546 1338 491 1338 q 641 1301 602 1338 q 681 1213 681 1265 q 641 1126 681 1162 q 546 1089 602 1089 z "},"Ģ":{"ha":1073,"x_min":61,"x_max":1010,"o":"m 721 677 q 667 757 709 728 q 560 785 625 785 q 400 712 457 785 q 343 507 343 638 q 398 299 343 374 q 558 225 452 225 q 697 264 651 225 q 746 369 744 303 l 562 369 l 562 564 l 1010 564 l 1010 424 q 952 188 1010 286 q 791 38 893 90 q 556 -14 689 -14 q 297 49 409 -14 q 124 227 186 111 q 61 503 61 343 q 128 786 61 670 q 306 963 194 903 q 554 1024 418 1024 q 770 979 674 1024 q 927 856 867 935 q 998 677 988 778 l 721 677 m 360 -312 l 425 -76 l 670 -76 l 545 -312 l 360 -312 z "},"Ǧ":{"ha":1073,"x_min":61,"x_max":1010,"o":"m 721 677 q 667 757 709 728 q 560 785 625 785 q 400 712 457 785 q 343 507 343 638 q 398 299 343 374 q 558 225 452 225 q 697 264 651 225 q 746 369 744 303 l 562 369 l 562 564 l 1010 564 l 1010 424 q 952 188 1010 286 q 791 38 893 90 q 556 -14 689 -14 q 297 49 409 -14 q 124 227 186 111 q 61 503 61 343 q 128 786 61 670 q 306 963 194 903 q 554 1024 418 1024 q 770 979 674 1024 q 927 856 867 935 q 998 677 988 778 l 721 677 m 450 1332 l 546 1223 l 643 1332 l 868 1332 l 868 1326 l 641 1101 l 452 1101 l 225 1326 l 225 1332 l 450 1332 z "},"Ǵ":{"ha":1073,"x_min":61,"x_max":1010,"o":"m 721 677 q 667 757 709 728 q 560 785 625 785 q 400 712 457 785 q 343 507 343 638 q 398 299 343 374 q 558 225 452 225 q 697 264 651 225 q 746 369 744 303 l 562 369 l 562 564 l 1010 564 l 1010 424 q 952 188 1010 286 q 791 38 893 90 q 556 -14 689 -14 q 297 49 409 -14 q 124 227 186 111 q 61 503 61 343 q 128 786 61 670 q 306 963 194 903 q 554 1024 418 1024 q 770 979 674 1024 q 927 856 867 935 q 998 677 988 778 l 721 677 m 456 1105 l 550 1326 l 783 1326 l 635 1105 l 456 1105 z "},"Ḡ":{"ha":1073,"x_min":61,"x_max":1010,"o":"m 721 677 q 667 757 709 728 q 560 785 625 785 q 400 712 457 785 q 343 507 343 638 q 398 299 343 374 q 558 225 452 225 q 697 264 651 225 q 746 369 744 303 l 562 369 l 562 564 l 1010 564 l 1010 424 q 952 188 1010 286 q 791 38 893 90 q 556 -14 689 -14 q 297 49 409 -14 q 124 227 186 111 q 61 503 61 343 q 128 786 61 670 q 306 963 194 903 q 554 1024 418 1024 q 770 979 674 1024 q 927 856 867 935 q 998 677 988 778 l 721 677 m 793 1263 l 793 1138 l 300 1138 l 300 1263 l 793 1263 z "},"":{"ha":1081,"x_min":61,"x_max":1018,"o":"m 556 -14 q 298 49 410 -14 q 124 227 187 111 q 61 503 61 343 q 100 725 61 628 q 208 889 139 822 q 367 990 277 955 q 559 1024 457 1024 q 777 980 679 1024 q 936 857 874 936 q 1008 677 998 779 l 732 677 q 675 757 720 729 q 565 785 630 785 q 402 712 462 785 q 343 507 343 639 q 398 299 343 374 q 558 225 453 225 q 697 264 651 225 q 746 369 744 303 l 562 369 l 562 564 l 1018 564 l 1018 0 l 843 0 l 833 110 l 827 110 q 712 19 780 51 q 556 -14 645 -14 z "},"":{"ha":1083,"x_min":61,"x_max":1052,"o":"m 1052 339 l 1052 278 l 1018 278 l 1018 0 l 843 0 l 833 110 l 827 110 q 712 19 780 51 q 556 -14 645 -14 q 298 49 410 -14 q 124 227 187 111 q 61 503 61 343 q 100 725 61 628 q 208 889 139 822 q 367 990 277 955 q 559 1024 457 1024 q 777 980 679 1024 q 936 857 874 936 q 1008 677 998 779 l 732 677 q 675 757 720 729 q 565 785 630 785 q 402 712 462 785 q 343 507 343 639 q 398 299 343 374 q 558 225 453 225 q 712 278 664 225 l 562 278 l 562 339 l 742 339 q 746 369 745 354 l 562 369 l 562 564 l 1018 564 l 1018 339 l 1052 339 z "},"":{"ha":1215,"x_min":61,"x_max":1225,"o":"m 1008 677 l 728 677 l 728 690 q 669 761 712 736 q 565 785 625 785 q 402 712 462 785 q 343 507 343 639 q 398 299 343 374 q 558 225 453 225 q 697 264 651 225 q 746 369 744 303 l 562 369 l 562 564 l 1018 564 l 1018 0 l 843 0 l 833 110 l 827 110 q 712 19 780 51 q 556 -14 645 -14 q 298 49 410 -14 q 124 227 187 111 q 61 503 61 343 q 100 725 61 628 q 208 889 139 822 q 367 990 277 955 q 559 1024 457 1024 q 753 989 662 1024 q 837 1095 782 1052 q 961 1160 892 1138 q 1105 1182 1031 1182 q 1163 1178 1134 1182 q 1225 1166 1191 1173 l 1225 953 q 1188 957 1206 954 q 1152 959 1170 959 q 1083 952 1116 959 q 1029 925 1050 946 q 1008 862 1008 905 l 1008 677 z "},"":{"ha":1081,"x_min":61,"x_max":1018,"o":"m 556 -14 q 298 49 410 -14 q 124 227 187 111 q 61 503 61 343 q 100 725 61 628 q 208 889 139 822 q 367 990 277 955 q 559 1024 457 1024 q 777 980 679 1024 q 936 857 874 936 q 1008 677 998 779 l 732 677 q 675 757 720 729 q 565 785 630 785 q 402 712 462 785 q 343 507 343 639 q 398 299 343 374 q 558 225 453 225 q 697 264 651 225 q 746 369 744 303 l 562 369 l 562 564 l 1018 564 l 1018 0 l 843 0 l 833 110 l 827 110 q 712 19 780 51 q 556 -14 645 -14 m 643 1101 l 546 1209 l 450 1101 l 225 1101 l 225 1107 l 452 1332 l 641 1332 l 868 1107 l 868 1101 l 643 1101 z "},"":{"ha":1081,"x_min":61,"x_max":1018,"o":"m 556 -14 q 298 49 410 -14 q 124 227 187 111 q 61 503 61 343 q 100 725 61 628 q 208 889 139 822 q 367 990 277 955 q 559 1024 457 1024 q 777 980 679 1024 q 936 857 874 936 q 1008 677 998 779 l 732 677 q 675 757 720 729 q 565 785 630 785 q 402 712 462 785 q 343 507 343 639 q 398 299 343 374 q 558 225 453 225 q 697 264 651 225 q 746 369 744 303 l 562 369 l 562 564 l 1018 564 l 1018 0 l 843 0 l 833 110 l 827 110 q 712 19 780 51 q 556 -14 645 -14 m 645 1282 l 817 1282 q 743 1129 816 1186 q 546 1071 670 1071 q 349 1129 422 1071 q 276 1282 276 1186 l 446 1282 q 468 1225 445 1251 q 546 1199 491 1199 q 622 1225 599 1199 q 645 1282 645 1250 z "},"":{"ha":1081,"x_min":61,"x_max":1018,"o":"m 556 -14 q 298 49 410 -14 q 124 227 187 111 q 61 503 61 343 q 100 725 61 628 q 208 889 139 822 q 367 990 277 955 q 559 1024 457 1024 q 777 980 679 1024 q 936 857 874 936 q 1008 677 998 779 l 732 677 q 675 757 720 729 q 565 785 630 785 q 402 712 462 785 q 343 507 343 639 q 398 299 343 374 q 558 225 453 225 q 697 264 651 225 q 746 369 744 303 l 562 369 l 562 564 l 1018 564 l 1018 0 l 843 0 l 833 110 l 827 110 q 712 19 780 51 q 556 -14 645 -14 m 546 1089 q 452 1126 491 1089 q 412 1213 412 1162 q 452 1301 412 1265 q 546 1338 491 1338 q 641 1301 602 1338 q 681 1213 681 1265 q 641 1126 681 1162 q 546 1089 602 1089 z "},"":{"ha":1081,"x_min":61,"x_max":1018,"o":"m 556 -14 q 298 49 410 -14 q 124 227 187 111 q 61 503 61 343 q 100 725 61 628 q 208 889 139 822 q 367 990 277 955 q 559 1024 457 1024 q 777 980 679 1024 q 936 857 874 936 q 1008 677 998 779 l 732 677 q 675 757 720 729 q 565 785 630 785 q 402 712 462 785 q 343 507 343 639 q 398 299 343 374 q 558 225 453 225 q 697 264 651 225 q 746 369 744 303 l 562 369 l 562 564 l 1018 564 l 1018 0 l 843 0 l 833 110 l 827 110 q 712 19 780 51 q 556 -14 645 -14 m 360 -312 l 425 -76 l 670 -76 l 545 -312 l 360 -312 z "},"":{"ha":1081,"x_min":61,"x_max":1018,"o":"m 556 -14 q 298 49 410 -14 q 124 227 187 111 q 61 503 61 343 q 100 725 61 628 q 208 889 139 822 q 367 990 277 955 q 559 1024 457 1024 q 777 980 679 1024 q 936 857 874 936 q 1008 677 998 779 l 732 677 q 675 757 720 729 q 565 785 630 785 q 402 712 462 785 q 343 507 343 639 q 398 299 343 374 q 558 225 453 225 q 697 264 651 225 q 746 369 744 303 l 562 369 l 562 564 l 1018 564 l 1018 0 l 843 0 l 833 110 l 827 110 q 712 19 780 51 q 556 -14 645 -14 m 450 1332 l 546 1223 l 643 1332 l 868 1332 l 868 1326 l 641 1101 l 452 1101 l 225 1326 l 225 1332 l 450 1332 z "},"":{"ha":1081,"x_min":61,"x_max":1018,"o":"m 556 -14 q 298 49 410 -14 q 124 227 187 111 q 61 503 61 343 q 100 725 61 628 q 208 889 139 822 q 367 990 277 955 q 559 1024 457 1024 q 777 980 679 1024 q 936 857 874 936 q 1008 677 998 779 l 732 677 q 675 757 720 729 q 565 785 630 785 q 402 712 462 785 q 343 507 343 639 q 398 299 343 374 q 558 225 453 225 q 697 264 651 225 q 746 369 744 303 l 562 369 l 562 564 l 1018 564 l 1018 0 l 843 0 l 833 110 l 827 110 q 712 19 780 51 q 556 -14 645 -14 m 456 1105 l 550 1326 l 783 1326 l 635 1105 l 456 1105 z "},"":{"ha":1081,"x_min":61,"x_max":1018,"o":"m 556 -14 q 298 49 410 -14 q 124 227 187 111 q 61 503 61 343 q 100 725 61 628 q 208 889 139 822 q 367 990 277 955 q 559 1024 457 1024 q 777 980 679 1024 q 936 857 874 936 q 1008 677 998 779 l 732 677 q 675 757 720 729 q 565 785 630 785 q 402 712 462 785 q 343 507 343 639 q 398 299 343 374 q 558 225 453 225 q 697 264 651 225 q 746 369 744 303 l 562 369 l 562 564 l 1018 564 l 1018 0 l 843 0 l 833 110 l 827 110 q 712 19 780 51 q 556 -14 645 -14 m 793 1263 l 793 1138 l 300 1138 l 300 1263 l 793 1263 z "},"H":{"ha":1042,"x_min":65,"x_max":977,"o":"m 65 0 l 65 1010 l 339 1010 l 339 616 l 702 616 l 702 1010 l 977 1010 l 977 0 l 702 0 l 702 395 l 339 395 l 339 0 l 65 0 z "},"Ḩ":{"ha":1042,"x_min":65,"x_max":977,"o":"m 65 0 l 65 1010 l 339 1010 l 339 616 l 702 616 l 702 1010 l 977 1010 l 977 0 l 702 0 l 702 395 l 339 395 l 339 0 l 65 0 m 148 4 l 245 4 l 237 -41 q 328 -83 295 -50 q 361 -164 361 -115 q 283 -290 362 -244 q 65 -335 204 -335 l 65 -231 q 217 -170 213 -231 q 124 -99 221 -113 l 148 4 z "},"Ĥ":{"ha":1042,"x_min":65,"x_max":977,"o":"m 65 0 l 65 1010 l 339 1010 l 339 616 l 702 616 l 702 1010 l 977 1010 l 977 0 l 702 0 l 702 395 l 339 395 l 339 0 l 65 0 m 618 1101 l 521 1209 l 424 1101 l 199 1101 l 199 1107 l 426 1332 l 616 1332 l 842 1107 l 842 1101 l 618 1101 z "},"Ȟ":{"ha":1042,"x_min":65,"x_max":977,"o":"m 65 0 l 65 1010 l 339 1010 l 339 616 l 702 616 l 702 1010 l 977 1010 l 977 0 l 702 0 l 702 395 l 339 395 l 339 0 l 65 0 m 424 1332 l 521 1223 l 618 1332 l 842 1332 l 842 1326 l 616 1101 l 426 1101 l 199 1326 l 199 1332 l 424 1332 z "},"Ḣ":{"ha":1042,"x_min":65,"x_max":977,"o":"m 65 0 l 65 1010 l 339 1010 l 339 616 l 702 616 l 702 1010 l 977 1010 l 977 0 l 702 0 l 702 395 l 339 395 l 339 0 l 65 0 m 521 1089 q 426 1126 466 1089 q 387 1213 387 1162 q 426 1301 387 1265 q 521 1338 466 1338 q 616 1301 577 1338 q 655 1213 655 1265 q 616 1126 655 1162 q 521 1089 577 1089 z "},"Ḥ":{"ha":1042,"x_min":65,"x_max":977,"o":"m 65 0 l 65 1010 l 339 1010 l 339 616 l 702 616 l 702 1010 l 977 1010 l 977 0 l 702 0 l 702 395 l 339 395 l 339 0 l 65 0 m 521 -306 q 426 -269 466 -306 q 387 -182 387 -233 q 426 -94 387 -130 q 521 -57 466 -57 q 616 -94 577 -57 q 655 -182 655 -130 q 616 -269 655 -233 q 521 -306 577 -306 z "},"Ḧ":{"ha":1042,"x_min":65,"x_max":977,"o":"m 65 0 l 65 1010 l 339 1010 l 339 616 l 702 616 l 702 1010 l 977 1010 l 977 0 l 702 0 l 702 395 l 339 395 l 339 0 l 65 0 m 365 1099 q 280 1132 315 1099 q 245 1213 245 1166 q 280 1294 245 1261 q 365 1328 315 1328 q 449 1294 414 1328 q 483 1213 483 1261 q 449 1132 483 1166 q 365 1099 414 1099 m 679 1099 q 593 1132 628 1099 q 558 1213 558 1166 q 593 1294 558 1261 q 679 1328 628 1328 q 762 1294 727 1328 q 797 1213 797 1261 q 762 1132 797 1166 q 679 1099 727 1099 z "},"Ḫ":{"ha":1042,"x_min":65,"x_max":977,"o":"m 65 0 l 65 1010 l 339 1010 l 339 616 l 702 616 l 702 1010 l 977 1010 l 977 0 l 702 0 l 702 395 l 339 395 l 339 0 l 65 0 m 623 -49 l 793 -49 q 720 -205 793 -143 q 521 -268 648 -268 q 326 -208 400 -268 q 253 -49 252 -148 l 422 -49 q 445 -106 422 -80 q 523 -132 468 -132 q 599 -106 576 -132 q 623 -49 623 -79 z "},"Ħ":{"ha":1156,"x_min":37,"x_max":1119,"o":"m 1119 860 l 1119 730 l 1034 730 l 1034 0 l 760 0 l 760 395 l 397 395 l 397 0 l 122 0 l 122 730 l 37 730 l 37 860 l 122 860 l 122 1010 l 397 1010 l 397 860 l 760 860 l 760 1010 l 1034 1010 l 1034 860 l 1119 860 m 760 730 l 397 730 l 397 616 l 760 616 l 760 730 z "},"Ӈ":{"ha":1042,"x_min":65,"x_max":977,"o":"m 65 0 l 65 1010 l 339 1010 l 339 616 l 702 616 l 702 1010 l 977 1010 l 977 -28 q 973 -84 977 -49 q 951 -158 969 -119 q 891 -231 933 -197 q 773 -288 849 -266 q 578 -310 697 -310 q 524 -307 550 -310 q 493 -304 497 -304 l 493 -87 q 530 -89 507 -87 q 568 -91 554 -91 q 630 -85 599 -91 q 682 -61 661 -79 q 702 -8 702 -43 l 702 395 l 339 395 l 339 0 l 65 0 z "},"Ң":{"ha":1267,"x_min":65,"x_max":1239,"o":"m 65 0 l 65 1010 l 339 1010 l 339 616 l 702 616 l 702 1010 l 977 1010 l 977 0 l 702 0 l 702 395 l 339 395 l 339 0 l 65 0 m 1239 170 l 1239 -243 l 977 -243 l 977 170 l 1239 170 z "},"Ӊ":{"ha":1205,"x_min":65,"x_max":1179,"o":"m 65 0 l 65 1010 l 339 1010 l 339 616 l 702 616 l 702 1010 l 977 1010 l 977 0 l 702 0 l 702 395 l 339 395 l 339 0 l 65 0 m 1178 140 l 1178 6 q 1158 -115 1179 -55 q 1100 -226 1137 -176 q 1018 -308 1064 -276 l 898 -239 q 906 -225 902 -232 q 915 -211 910 -218 q 957 -132 936 -176 q 977 -14 977 -87 l 977 140 l 1178 140 z "},"Ҥ":{"ha":1417,"x_min":65,"x_max":1379,"o":"m 1379 1010 l 1379 789 l 977 789 l 977 0 l 702 0 l 702 395 l 339 395 l 339 0 l 65 0 l 65 1010 l 339 1010 l 339 616 l 702 616 l 702 1010 l 1379 1010 z "},"Ƕ":{"ha":1568,"x_min":65,"x_max":1499,"o":"m 1101 -14 q 888 31 978 -14 q 751 157 799 75 q 702 353 702 240 l 702 395 l 339 395 l 339 0 l 65 0 l 65 1010 l 339 1010 l 339 616 l 702 616 l 702 1010 l 977 1010 l 977 353 q 1010 249 977 287 q 1101 211 1043 211 q 1192 249 1159 211 q 1225 353 1225 287 l 1225 724 l 1499 724 l 1499 353 q 1393 85 1499 183 q 1101 -14 1287 -14 z "},"Η":{"ha":1042,"x_min":65,"x_max":977,"o":"m 65 0 l 65 1010 l 339 1010 l 339 616 l 702 616 l 702 1010 l 977 1010 l 977 0 l 702 0 l 702 395 l 339 395 l 339 0 l 65 0 z "},"Ή":{"ha":1351,"x_min":77,"x_max":1286,"o":"m 375 0 l 375 1010 l 649 1010 l 649 616 l 1012 616 l 1012 1010 l 1286 1010 l 1286 0 l 1012 0 l 1012 395 l 649 395 l 649 0 l 375 0 m 77 852 l 142 1089 l 371 1089 l 229 852 l 77 852 z "},"Ἠ":{"ha":1290,"x_min":65,"x_max":1225,"o":"m 314 0 l 314 1010 l 588 1010 l 588 616 l 951 616 l 951 1010 l 1225 1010 l 1225 0 l 951 0 l 951 395 l 588 395 l 588 0 l 314 0 m 235 1010 l 235 939 q 202 828 235 872 q 126 765 169 783 l 65 840 q 108 882 98 855 q 118 943 118 909 l 118 1010 l 235 1010 z "},"Ἡ":{"ha":1267,"x_min":73,"x_max":1201,"o":"m 290 0 l 290 1010 l 564 1010 l 564 616 l 927 616 l 927 1010 l 1201 1010 l 1201 0 l 927 0 l 927 395 l 564 395 l 564 0 l 290 0 m 73 939 l 73 1010 l 191 1010 l 191 943 q 201 887 192 916 q 243 840 210 857 l 182 765 q 107 828 140 783 q 73 939 74 872 z "},"Ἢ":{"ha":1521,"x_min":71,"x_max":1456,"o":"m 545 0 l 545 1010 l 819 1010 l 819 616 l 1182 616 l 1182 1010 l 1456 1010 l 1456 0 l 1182 0 l 1182 395 l 819 395 l 819 0 l 545 0 m 258 1010 l 258 955 q 224 847 259 896 q 126 765 189 798 l 71 807 q 114 875 100 838 q 128 959 129 911 l 128 1010 l 258 1010 m 521 791 l 521 781 l 454 781 l 290 996 l 290 1010 l 440 1010 l 521 791 z "},"Ἣ":{"ha":1488,"x_min":67,"x_max":1422,"o":"m 511 0 l 511 1010 l 785 1010 l 785 616 l 1148 616 l 1148 1010 l 1422 1010 l 1422 0 l 1148 0 l 1148 395 l 785 395 l 785 0 l 511 0 m 67 939 l 67 1010 l 187 1010 l 187 943 q 195 887 187 916 q 241 840 203 857 l 180 765 q 100 828 133 783 q 67 939 67 872 m 479 799 l 479 779 l 412 779 l 249 996 l 249 1010 l 400 1010 l 479 799 z "},"Ἤ":{"ha":1517,"x_min":75,"x_max":1452,"o":"m 541 0 l 541 1010 l 815 1010 l 815 616 l 1178 616 l 1178 1010 l 1452 1010 l 1452 0 l 1178 0 l 1178 395 l 815 395 l 815 0 l 541 0 m 249 1010 l 249 939 q 215 829 248 874 q 136 765 182 783 l 75 840 q 120 887 111 857 q 128 943 128 916 l 128 1010 l 249 1010 m 276 779 l 276 799 l 357 1010 l 507 1010 l 507 996 l 343 779 l 276 779 z "},"Ἥ":{"ha":1533,"x_min":73,"x_max":1468,"o":"m 556 0 l 556 1010 l 831 1010 l 831 616 l 1194 616 l 1194 1010 l 1468 1010 l 1468 0 l 1194 0 l 1194 395 l 831 395 l 831 0 l 556 0 m 290 779 l 290 799 l 367 1010 l 519 1010 l 519 996 l 353 779 l 290 779 m 182 765 q 108 826 142 782 q 73 939 73 870 l 73 1010 l 191 1010 l 191 943 q 201 882 192 909 q 243 840 211 855 l 182 765 z "},"Ἦ":{"ha":1411,"x_min":67,"x_max":1345,"o":"m 434 0 l 434 1010 l 708 1010 l 708 616 l 1071 616 l 1071 1010 l 1345 1010 l 1345 0 l 1071 0 l 1071 395 l 708 395 l 708 0 l 434 0 m 395 1184 l 497 1152 q 465 1067 497 1103 q 383 1030 433 1030 q 319 1041 346 1030 q 267 1062 292 1052 q 211 1073 242 1073 q 181 1055 192 1073 q 170 1014 170 1038 l 67 1044 q 99 1130 67 1092 q 182 1168 131 1168 q 240 1158 211 1168 q 296 1137 268 1147 q 353 1126 325 1126 q 383 1143 371 1126 q 395 1184 395 1160 m 351 994 l 351 935 q 317 841 351 876 q 237 793 283 806 l 183 854 q 227 891 219 865 q 235 941 235 917 l 235 994 l 351 994 z "},"Ἧ":{"ha":1438,"x_min":67,"x_max":1373,"o":"m 462 0 l 462 1010 l 736 1010 l 736 616 l 1099 616 l 1099 1010 l 1373 1010 l 1373 0 l 1099 0 l 1099 395 l 736 395 l 736 0 l 462 0 m 395 1184 l 497 1152 q 465 1067 497 1103 q 383 1030 433 1030 q 319 1041 346 1030 q 267 1062 292 1052 q 211 1073 242 1073 q 181 1055 192 1073 q 170 1014 170 1038 l 67 1044 q 99 1130 67 1092 q 182 1168 131 1168 q 240 1158 211 1168 q 296 1137 268 1147 q 353 1126 325 1126 q 383 1143 371 1126 q 395 1184 395 1160 m 237 935 l 237 994 l 353 994 l 353 941 q 361 891 353 917 q 404 854 369 865 l 349 793 q 273 839 309 805 q 237 935 237 873 z "},"Ὴ":{"ha":1310,"x_min":71,"x_max":1245,"o":"m 333 0 l 333 1010 l 608 1010 l 608 616 l 971 616 l 971 1010 l 1245 1010 l 1245 0 l 971 0 l 971 395 l 608 395 l 608 0 l 333 0 m 235 779 l 71 996 l 71 1010 l 221 1010 l 298 803 l 298 779 l 235 779 z "},"Ή":{"ha":1310,"x_min":41,"x_max":1245,"o":"m 333 0 l 333 1010 l 608 1010 l 608 616 l 971 616 l 971 1010 l 1245 1010 l 1245 0 l 971 0 l 971 395 l 608 395 l 608 0 l 333 0 m 41 852 l 41 876 l 120 1083 l 337 1083 l 337 1069 l 174 852 l 41 852 z "},"Н":{"ha":1042,"x_min":65,"x_max":977,"o":"m 65 0 l 65 1010 l 339 1010 l 339 616 l 702 616 l 702 1010 l 977 1010 l 977 0 l 702 0 l 702 395 l 339 395 l 339 0 l 65 0 z "},"ᾘ":{"ha":1271,"x_min":45,"x_max":1205,"o":"m 294 0 l 294 1010 l 568 1010 l 568 616 l 931 616 l 931 1010 l 1205 1010 l 1205 0 l 931 0 l 931 395 l 568 395 l 568 0 l 294 0 m 821 -335 q 724 -305 765 -335 q 683 -207 683 -275 l 683 -69 l 823 -69 l 823 -207 q 830 -230 823 -222 q 862 -239 837 -239 q 881 -238 874 -239 q 894 -237 888 -237 l 894 -326 q 859 -333 876 -330 q 821 -335 842 -335 m 215 1010 l 215 939 q 182 828 215 872 q 107 765 149 783 l 45 840 q 88 882 78 855 q 99 943 99 909 l 99 1010 l 215 1010 z "},"ᾙ":{"ha":1267,"x_min":73,"x_max":1201,"o":"m 290 0 l 290 1010 l 564 1010 l 564 616 l 927 616 l 927 1010 l 1201 1010 l 1201 0 l 927 0 l 927 395 l 564 395 l 564 0 l 290 0 m 817 -335 q 720 -305 761 -335 q 679 -207 679 -275 l 679 -69 l 819 -69 l 819 -207 q 826 -230 819 -222 q 858 -239 834 -239 q 877 -238 871 -239 q 890 -237 884 -237 l 890 -326 q 855 -333 872 -330 q 817 -335 838 -335 m 73 939 l 73 1010 l 191 1010 l 191 943 q 201 887 192 916 q 243 840 210 857 l 182 765 q 107 828 140 783 q 73 939 74 872 z "},"ᾚ":{"ha":1521,"x_min":71,"x_max":1456,"o":"m 545 0 l 545 1010 l 819 1010 l 819 616 l 1182 616 l 1182 1010 l 1456 1010 l 1456 0 l 1182 0 l 1182 395 l 819 395 l 819 0 l 545 0 m 1071 -335 q 974 -305 1016 -335 q 933 -207 933 -275 l 933 -69 l 1073 -69 l 1073 -207 q 1081 -230 1073 -222 q 1113 -239 1088 -239 q 1132 -238 1125 -239 q 1144 -237 1139 -237 l 1144 -326 q 1110 -333 1127 -330 q 1071 -335 1092 -335 m 258 1010 l 258 955 q 224 847 259 896 q 126 765 189 798 l 71 807 q 114 875 100 838 q 128 959 129 911 l 128 1010 l 258 1010 m 521 791 l 521 781 l 454 781 l 290 996 l 290 1010 l 440 1010 l 521 791 z "},"ᾛ":{"ha":1488,"x_min":67,"x_max":1422,"o":"m 511 0 l 511 1010 l 785 1010 l 785 616 l 1148 616 l 1148 1010 l 1422 1010 l 1422 0 l 1148 0 l 1148 395 l 785 395 l 785 0 l 511 0 m 1038 -335 q 941 -305 982 -335 q 900 -207 900 -275 l 900 -69 l 1040 -69 l 1040 -207 q 1047 -230 1040 -222 q 1079 -239 1054 -239 q 1098 -238 1091 -239 q 1111 -237 1105 -237 l 1111 -326 q 1076 -333 1093 -330 q 1038 -335 1059 -335 m 67 939 l 67 1010 l 187 1010 l 187 943 q 195 887 187 916 q 241 840 203 857 l 180 765 q 100 828 133 783 q 67 939 67 872 m 479 799 l 479 779 l 412 779 l 249 996 l 249 1010 l 400 1010 l 479 799 z "},"ᾜ":{"ha":1517,"x_min":75,"x_max":1452,"o":"m 541 0 l 541 1010 l 815 1010 l 815 616 l 1178 616 l 1178 1010 l 1452 1010 l 1452 0 l 1178 0 l 1178 395 l 815 395 l 815 0 l 541 0 m 1067 -335 q 970 -305 1012 -335 q 929 -207 929 -275 l 929 -69 l 1069 -69 l 1069 -207 q 1077 -230 1069 -222 q 1109 -239 1084 -239 q 1128 -238 1121 -239 q 1140 -237 1135 -237 l 1140 -326 q 1106 -333 1123 -330 q 1067 -335 1089 -335 m 249 1010 l 249 939 q 215 829 248 874 q 136 765 182 783 l 75 840 q 120 887 111 857 q 128 943 128 916 l 128 1010 l 249 1010 m 276 779 l 276 799 l 357 1010 l 507 1010 l 507 996 l 343 779 l 276 779 z "},"ᾝ":{"ha":1533,"x_min":73,"x_max":1468,"o":"m 556 0 l 556 1010 l 831 1010 l 831 616 l 1194 616 l 1194 1010 l 1468 1010 l 1468 0 l 1194 0 l 1194 395 l 831 395 l 831 0 l 556 0 m 1083 -335 q 986 -305 1027 -335 q 945 -207 945 -275 l 945 -69 l 1085 -69 l 1085 -207 q 1092 -230 1085 -222 q 1125 -239 1100 -239 q 1144 -238 1137 -239 q 1156 -237 1151 -237 l 1156 -326 q 1122 -333 1139 -330 q 1083 -335 1104 -335 m 290 779 l 290 799 l 367 1010 l 519 1010 l 519 996 l 353 779 l 290 779 m 182 765 q 108 826 142 782 q 73 939 73 870 l 73 1010 l 191 1010 l 191 943 q 201 882 192 909 q 243 840 211 855 l 182 765 z "},"ᾞ":{"ha":1411,"x_min":67,"x_max":1345,"o":"m 434 0 l 434 1010 l 708 1010 l 708 616 l 1071 616 l 1071 1010 l 1345 1010 l 1345 0 l 1071 0 l 1071 395 l 708 395 l 708 0 l 434 0 m 961 -335 q 864 -305 905 -335 q 823 -207 823 -275 l 823 -69 l 963 -69 l 963 -207 q 970 -230 963 -222 q 1002 -239 978 -239 q 1021 -238 1015 -239 q 1034 -237 1028 -237 l 1034 -326 q 999 -333 1017 -330 q 961 -335 982 -335 m 395 1184 l 497 1152 q 465 1067 497 1103 q 383 1030 433 1030 q 319 1041 346 1030 q 267 1062 292 1052 q 211 1073 242 1073 q 181 1055 192 1073 q 170 1014 170 1038 l 67 1044 q 99 1130 67 1092 q 182 1168 131 1168 q 240 1158 211 1168 q 296 1137 268 1147 q 353 1126 325 1126 q 383 1143 371 1126 q 395 1184 395 1160 m 351 994 l 351 935 q 317 841 351 876 q 237 793 283 806 l 183 854 q 227 891 219 865 q 235 941 235 917 l 235 994 l 351 994 z "},"ᾟ":{"ha":1438,"x_min":67,"x_max":1373,"o":"m 462 0 l 462 1010 l 736 1010 l 736 616 l 1099 616 l 1099 1010 l 1373 1010 l 1373 0 l 1099 0 l 1099 395 l 736 395 l 736 0 l 462 0 m 988 -335 q 891 -305 933 -335 q 850 -207 850 -275 l 850 -69 l 990 -69 l 990 -207 q 998 -230 990 -222 q 1030 -239 1005 -239 q 1049 -238 1042 -239 q 1061 -237 1056 -237 l 1061 -326 q 1027 -333 1044 -330 q 988 -335 1010 -335 m 395 1184 l 497 1152 q 465 1067 497 1103 q 383 1030 433 1030 q 319 1041 346 1030 q 267 1062 292 1052 q 211 1073 242 1073 q 181 1055 192 1073 q 170 1014 170 1038 l 67 1044 q 99 1130 67 1092 q 182 1168 131 1168 q 240 1158 211 1168 q 296 1137 268 1147 q 353 1126 325 1126 q 383 1143 371 1126 q 395 1184 395 1160 m 237 935 l 237 994 l 353 994 l 353 941 q 361 891 353 917 q 404 854 369 865 l 349 793 q 273 839 309 805 q 237 935 237 873 z "},"ῌ":{"ha":1042,"x_min":65,"x_max":977,"o":"m 65 0 l 65 1010 l 339 1010 l 339 616 l 702 616 l 702 1010 l 977 1010 l 977 0 l 702 0 l 702 395 l 339 395 l 339 0 l 65 0 m 592 -335 q 495 -305 536 -335 q 454 -207 454 -275 l 454 -69 l 594 -69 l 594 -207 q 601 -230 594 -222 q 633 -239 609 -239 q 653 -238 646 -239 q 665 -237 659 -237 l 665 -326 q 630 -333 648 -330 q 592 -335 613 -335 z "},"I":{"ha":404,"x_min":65,"x_max":339,"o":"m 339 1010 l 339 0 l 65 0 l 65 1010 l 339 1010 z "},"Ï":{"ha":404,"x_min":-73,"x_max":479,"o":"m 339 1010 l 339 0 l 65 0 l 65 1010 l 339 1010 m 47 1099 q -38 1132 -3 1099 q -73 1213 -73 1166 q -38 1294 -73 1261 q 47 1328 -3 1328 q 131 1294 96 1328 q 166 1213 166 1261 q 131 1132 166 1166 q 47 1099 96 1099 m 361 1099 q 276 1132 311 1099 q 241 1213 241 1166 q 276 1294 241 1261 q 361 1328 311 1328 q 445 1294 410 1328 q 479 1213 479 1261 q 445 1132 479 1166 q 361 1099 410 1099 z "},"Ḯ":{"ha":404,"x_min":-55,"x_max":462,"o":"m 339 1010 l 339 0 l 65 0 l 65 1010 l 339 1010 m 103 1338 l 234 1528 l 457 1528 l 286 1338 l 103 1338 m 58 1073 q -22 1103 11 1073 q -55 1176 -55 1133 q -22 1250 -55 1219 q 58 1280 11 1280 q 136 1250 103 1280 q 168 1176 168 1219 q 136 1103 168 1133 q 58 1073 103 1073 m 351 1073 q 271 1103 304 1073 q 238 1176 238 1133 q 271 1250 238 1219 q 351 1280 304 1280 q 429 1250 397 1280 q 462 1176 462 1219 q 429 1103 462 1133 q 351 1073 397 1073 z "},"Ɨ":{"ha":404,"x_min":-65,"x_max":466,"o":"m 339 1010 l 339 0 l 65 0 l 65 1010 l 339 1010 m -65 468 l -65 614 l 466 614 l 466 468 l -65 468 z "},"Ḭ":{"ha":404,"x_min":-49,"x_max":487,"o":"m 339 1010 l 339 0 l 65 0 l 65 1010 l 339 1010 m 85 -284 l -49 -284 q 0 -126 -49 -178 q 118 -73 48 -73 q 194 -90 164 -73 q 246 -125 223 -108 q 274 -145 261 -137 q 302 -154 288 -154 q 343 -133 330 -153 q 355 -77 355 -113 l 487 -77 q 437 -235 486 -182 q 320 -290 389 -289 q 245 -273 274 -291 q 194 -239 216 -256 q 165 -218 179 -227 q 136 -209 151 -209 q 85 -284 85 -209 z "},"Ì":{"ha":404,"x_min":-34,"x_max":339,"o":"m 339 1010 l 339 0 l 65 0 l 65 1010 l 339 1010 m 114 1105 l -34 1326 l 199 1326 l 294 1105 l 114 1105 z "},"Í":{"ha":404,"x_min":65,"x_max":440,"o":"m 339 1010 l 339 0 l 65 0 l 65 1010 l 339 1010 m 112 1105 l 207 1326 l 440 1326 l 292 1105 l 112 1105 z "},"Î":{"ha":404,"x_min":-118,"x_max":525,"o":"m 339 1010 l 339 0 l 65 0 l 65 1010 l 339 1010 m 300 1101 l 203 1209 l 107 1101 l -118 1101 l -118 1107 l 109 1332 l 298 1332 l 525 1107 l 525 1101 l 300 1101 z "},"Ĩ":{"ha":633,"x_min":47,"x_max":584,"o":"m 452 1010 l 452 0 l 178 0 l 178 1010 l 452 1010 m 182 1105 l 47 1105 q 96 1263 47 1211 q 215 1316 145 1315 q 290 1299 260 1316 q 342 1264 320 1281 q 371 1244 358 1252 q 399 1235 384 1235 q 439 1256 427 1235 q 452 1312 451 1276 l 584 1312 q 534 1154 582 1207 q 416 1099 485 1100 q 342 1115 370 1098 q 291 1150 313 1132 q 262 1171 276 1162 q 233 1180 248 1180 q 182 1105 182 1180 z "},"Ī":{"ha":404,"x_min":-43,"x_max":450,"o":"m 339 1010 l 339 0 l 65 0 l 65 1010 l 339 1010 m 450 1263 l 450 1138 l -43 1138 l -43 1263 l 450 1263 z "},"Ĭ":{"ha":404,"x_min":-68,"x_max":473,"o":"m 339 1010 l 339 0 l 65 0 l 65 1010 l 339 1010 m 302 1282 l 473 1282 q 400 1129 473 1186 q 203 1071 327 1071 q 5 1129 78 1071 q -67 1282 -68 1186 l 103 1282 q 125 1225 102 1251 q 203 1199 148 1199 q 279 1225 256 1199 q 302 1282 301 1250 z "},"Į":{"ha":404,"x_min":46,"x_max":359,"o":"m 339 1010 l 339 0 l 65 0 l 65 1010 l 339 1010 m 241 -274 q 125 -240 172 -274 q 59 -144 78 -206 q 49 -58 46 -102 q 69 20 52 -14 q 114 67 86 54 l 339 0 q 266 -32 291 -15 q 241 -79 240 -49 q 253 -117 240 -104 q 286 -130 266 -130 q 309 -127 299 -130 q 327 -122 318 -124 l 359 -245 q 310 -265 339 -255 q 241 -274 280 -274 z "},"İ":{"ha":404,"x_min":65,"x_max":339,"o":"m 339 1010 l 339 0 l 65 0 l 65 1010 l 339 1010 m 203 1089 q 109 1126 148 1089 q 69 1213 69 1162 q 109 1301 69 1265 q 203 1338 148 1338 q 298 1301 259 1338 q 337 1213 337 1265 q 298 1126 337 1162 q 203 1089 259 1089 z "},"Ǐ":{"ha":404,"x_min":-118,"x_max":525,"o":"m 339 1010 l 339 0 l 65 0 l 65 1010 l 339 1010 m 107 1332 l 203 1223 l 300 1332 l 525 1332 l 525 1326 l 298 1101 l 109 1101 l -118 1326 l -118 1332 l 107 1332 z "},"Ȉ":{"ha":404,"x_min":-159,"x_max":431,"o":"m 339 1010 l 339 0 l 65 0 l 65 1010 l 339 1010 m -11 1105 l -159 1326 l 74 1326 l 169 1105 l -11 1105 m 256 1105 l 161 1326 l 381 1326 l 431 1105 l 256 1105 z "},"Ȋ":{"ha":404,"x_min":-70,"x_max":473,"o":"m 339 1010 l 339 0 l 65 0 l 65 1010 l 339 1010 m -69 1128 q 3 1286 -70 1225 q 201 1347 76 1347 q 399 1286 325 1347 q 473 1128 473 1225 l 302 1128 q 278 1184 301 1160 q 201 1209 255 1209 q 125 1184 147 1209 q 103 1128 102 1160 l -69 1128 z "},"Ỉ":{"ha":404,"x_min":65,"x_max":405,"o":"m 339 1010 l 339 0 l 65 0 l 65 1010 l 339 1010 m 298 1123 l 103 1123 l 85 1199 q 160 1213 138 1201 q 182 1241 182 1225 q 156 1275 182 1268 q 89 1282 130 1282 l 95 1391 q 326 1355 247 1391 q 404 1255 405 1320 q 372 1191 405 1213 q 298 1162 339 1168 l 298 1123 z "},"Ị":{"ha":404,"x_min":65,"x_max":339,"o":"m 339 1010 l 339 0 l 65 0 l 65 1010 l 339 1010 m 201 -306 q 107 -269 146 -306 q 67 -182 67 -233 q 107 -94 67 -130 q 201 -57 146 -57 q 296 -94 257 -57 q 335 -182 335 -130 q 296 -269 335 -233 q 201 -306 257 -306 z "},"Ɩ":{"ha":458,"x_min":69,"x_max":466,"o":"m 69 1010 l 341 1010 l 341 247 q 393 199 342 199 q 426 203 416 199 l 466 16 q 425 4 449 10 q 353 -4 401 -1 q 138 42 207 -11 q 69 221 70 95 l 69 1010 z "},"Ι":{"ha":404,"x_min":65,"x_max":339,"o":"m 339 1010 l 339 0 l 65 0 l 65 1010 l 339 1010 z "},"Ί":{"ha":614,"x_min":0,"x_max":548,"o":"m 548 1010 l 548 0 l 274 0 l 274 1010 l 548 1010 m 0 852 l 65 1089 l 294 1089 l 152 852 l 0 852 z "},"Ϊ":{"ha":404,"x_min":-73,"x_max":479,"o":"m 339 1010 l 339 0 l 65 0 l 65 1010 l 339 1010 m 47 1099 q -38 1132 -3 1099 q -73 1213 -73 1166 q -38 1294 -73 1261 q 47 1328 -3 1328 q 131 1294 96 1328 q 166 1213 166 1261 q 131 1132 166 1166 q 47 1099 96 1099 m 361 1099 q 276 1132 311 1099 q 241 1213 241 1166 q 276 1294 241 1261 q 361 1328 311 1328 q 445 1294 410 1328 q 479 1213 479 1261 q 445 1132 479 1166 q 361 1099 410 1099 z "},"Ἰ":{"ha":623,"x_min":65,"x_max":564,"o":"m 564 1010 l 564 0 l 290 0 l 290 1010 l 564 1010 m 235 1010 l 235 939 q 202 828 235 872 q 126 765 169 783 l 65 840 q 108 882 98 855 q 118 943 118 909 l 118 1010 l 235 1010 z "},"Ἱ":{"ha":600,"x_min":73,"x_max":541,"o":"m 541 1010 l 541 0 l 266 0 l 266 1010 l 541 1010 m 73 939 l 73 1010 l 191 1010 l 191 943 q 201 887 192 916 q 243 840 210 857 l 182 765 q 107 828 140 783 q 73 939 74 872 z "},"Ἲ":{"ha":854,"x_min":71,"x_max":795,"o":"m 795 1010 l 795 0 l 521 0 l 521 1010 l 795 1010 m 258 1010 l 258 955 q 224 847 259 896 q 126 765 189 798 l 71 807 q 114 875 100 838 q 128 959 129 911 l 128 1010 l 258 1010 m 521 791 l 521 781 l 454 781 l 290 996 l 290 1010 l 440 1010 l 521 791 z "},"Ἳ":{"ha":821,"x_min":67,"x_max":762,"o":"m 762 1010 l 762 0 l 487 0 l 487 1010 l 762 1010 m 67 939 l 67 1010 l 187 1010 l 187 943 q 195 887 187 916 q 241 840 203 857 l 180 765 q 100 828 133 783 q 67 939 67 872 m 479 799 l 479 779 l 412 779 l 249 996 l 249 1010 l 400 1010 l 479 799 z "},"Ἴ":{"ha":850,"x_min":75,"x_max":791,"o":"m 791 1010 l 791 0 l 517 0 l 517 1010 l 791 1010 m 249 1010 l 249 939 q 215 829 248 874 q 136 765 182 783 l 75 840 q 120 887 111 857 q 128 943 128 916 l 128 1010 l 249 1010 m 276 779 l 276 799 l 357 1010 l 507 1010 l 507 996 l 343 779 l 276 779 z "},"Ἵ":{"ha":866,"x_min":73,"x_max":807,"o":"m 807 1010 l 807 0 l 533 0 l 533 1010 l 807 1010 m 290 779 l 290 799 l 367 1010 l 519 1010 l 519 996 l 353 779 l 290 779 m 182 765 q 108 826 142 782 q 73 939 73 870 l 73 1010 l 191 1010 l 191 943 q 201 882 192 909 q 243 840 211 855 l 182 765 z "},"Ἶ":{"ha":744,"x_min":67,"x_max":685,"o":"m 685 1010 l 685 0 l 410 0 l 410 1010 l 685 1010 m 395 1184 l 497 1152 q 465 1067 497 1103 q 383 1030 433 1030 q 319 1041 346 1030 q 267 1062 292 1052 q 211 1073 242 1073 q 181 1055 192 1073 q 170 1014 170 1038 l 67 1044 q 99 1130 67 1092 q 182 1168 131 1168 q 240 1158 211 1168 q 296 1137 268 1147 q 353 1126 325 1126 q 383 1143 371 1126 q 395 1184 395 1160 m 351 994 l 351 935 q 317 841 351 876 q 237 793 283 806 l 183 854 q 227 891 219 865 q 235 941 235 917 l 235 994 l 351 994 z "},"Ἷ":{"ha":771,"x_min":67,"x_max":712,"o":"m 712 1010 l 712 0 l 438 0 l 438 1010 l 712 1010 m 395 1184 l 497 1152 q 465 1067 497 1103 q 383 1030 433 1030 q 319 1041 346 1030 q 267 1062 292 1052 q 211 1073 242 1073 q 181 1055 192 1073 q 170 1014 170 1038 l 67 1044 q 99 1130 67 1092 q 182 1168 131 1168 q 240 1158 211 1168 q 296 1137 268 1147 q 353 1126 325 1126 q 383 1143 371 1126 q 395 1184 395 1160 m 237 935 l 237 994 l 353 994 l 353 941 q 361 891 353 917 q 404 854 369 865 l 349 793 q 273 839 309 805 q 237 935 237 873 z "},"Ῐ":{"ha":404,"x_min":-68,"x_max":473,"o":"m 339 1010 l 339 0 l 65 0 l 65 1010 l 339 1010 m 302 1282 l 473 1282 q 400 1129 473 1186 q 203 1071 327 1071 q 5 1129 78 1071 q -67 1282 -68 1186 l 103 1282 q 125 1225 102 1251 q 203 1199 148 1199 q 279 1225 256 1199 q 302 1282 301 1250 z "},"Ῑ":{"ha":404,"x_min":-43,"x_max":450,"o":"m 339 1010 l 339 0 l 65 0 l 65 1010 l 339 1010 m 450 1263 l 450 1138 l -43 1138 l -43 1263 l 450 1263 z "},"Ὶ":{"ha":643,"x_min":71,"x_max":584,"o":"m 584 1010 l 584 0 l 310 0 l 310 1010 l 584 1010 m 235 779 l 71 996 l 71 1010 l 221 1010 l 298 803 l 298 779 l 235 779 z "},"Ί":{"ha":643,"x_min":41,"x_max":584,"o":"m 584 1010 l 584 0 l 310 0 l 310 1010 l 584 1010 m 41 852 l 41 876 l 120 1083 l 337 1083 l 337 1069 l 174 852 l 41 852 z "},"І":{"ha":404,"x_min":65,"x_max":339,"o":"m 339 1010 l 339 0 l 65 0 l 65 1010 l 339 1010 z "},"Ї":{"ha":404,"x_min":-73,"x_max":479,"o":"m 339 1010 l 339 0 l 65 0 l 65 1010 l 339 1010 m 47 1099 q -38 1132 -3 1099 q -73 1213 -73 1166 q -38 1294 -73 1261 q 47 1328 -3 1328 q 131 1294 96 1328 q 166 1213 166 1261 q 131 1132 166 1166 q 47 1099 96 1099 m 361 1099 q 276 1132 311 1099 q 241 1213 241 1166 q 276 1294 241 1261 q 361 1328 311 1328 q 445 1294 410 1328 q 479 1213 479 1261 q 445 1132 479 1166 q 361 1099 410 1099 z "},"":{"ha":700,"x_min":37,"x_max":663,"o":"m 37 789 l 37 1010 l 663 1010 l 663 789 l 487 789 l 487 221 l 663 221 l 663 0 l 37 0 l 37 221 l 213 221 l 213 789 l 37 789 z "},"":{"ha":700,"x_min":37,"x_max":663,"o":"m 37 789 l 37 1010 l 663 1010 l 663 789 l 487 789 l 487 221 l 663 221 l 663 0 l 37 0 l 37 221 l 213 221 l 213 789 l 37 789 m 195 1099 q 110 1132 145 1099 q 75 1213 75 1166 q 110 1294 75 1261 q 195 1328 145 1328 q 279 1294 244 1328 q 314 1213 314 1261 q 279 1132 314 1166 q 195 1099 244 1099 m 509 1099 q 424 1132 459 1099 q 389 1213 389 1166 q 424 1294 389 1261 q 509 1328 459 1328 q 593 1294 558 1328 q 627 1213 627 1261 q 593 1132 627 1166 q 509 1099 558 1099 z "},"":{"ha":700,"x_min":37,"x_max":663,"o":"m 37 789 l 37 1010 l 663 1010 l 663 789 l 487 789 l 487 221 l 663 221 l 663 0 l 37 0 l 37 221 l 213 221 l 213 789 l 37 789 m 251 1338 l 382 1528 l 605 1528 l 434 1338 l 251 1338 m 206 1073 q 126 1103 159 1073 q 93 1176 93 1133 q 126 1250 93 1219 q 206 1280 159 1280 q 284 1250 251 1280 q 316 1176 316 1219 q 284 1103 316 1133 q 206 1073 251 1073 m 499 1073 q 419 1103 452 1073 q 386 1176 386 1133 q 419 1250 386 1219 q 499 1280 452 1280 q 577 1250 545 1280 q 610 1176 610 1219 q 577 1103 610 1133 q 499 1073 545 1073 z "},"":{"ha":700,"x_min":37,"x_max":663,"o":"m 37 789 l 37 1010 l 663 1010 l 663 789 l 487 789 l 487 221 l 663 221 l 663 0 l 37 0 l 37 221 l 213 221 l 213 789 l 37 789 m 83 468 l 83 614 l 614 614 l 614 468 l 83 468 z "},"":{"ha":700,"x_min":37,"x_max":663,"o":"m 37 789 l 37 1010 l 663 1010 l 663 789 l 487 789 l 487 221 l 663 221 l 663 0 l 37 0 l 37 221 l 213 221 l 213 789 l 37 789 m 233 -284 l 99 -284 q 147 -126 99 -178 q 266 -73 196 -73 q 342 -90 312 -73 q 394 -125 371 -108 q 422 -145 409 -137 q 450 -154 436 -154 q 491 -133 478 -153 q 503 -77 503 -113 l 635 -77 q 585 -235 634 -182 q 468 -290 537 -289 q 393 -273 422 -291 q 342 -239 364 -256 q 313 -218 327 -227 q 284 -209 299 -209 q 233 -284 233 -209 z "},"":{"ha":700,"x_min":37,"x_max":663,"o":"m 37 789 l 37 1010 l 663 1010 l 663 789 l 487 789 l 487 221 l 663 221 l 663 0 l 37 0 l 37 221 l 213 221 l 213 789 l 37 789 m 262 1105 l 114 1326 l 347 1326 l 442 1105 l 262 1105 z "},"":{"ha":700,"x_min":37,"x_max":663,"o":"m 37 789 l 37 1010 l 663 1010 l 663 789 l 487 789 l 487 221 l 663 221 l 663 0 l 37 0 l 37 221 l 213 221 l 213 789 l 37 789 m 260 1105 l 355 1326 l 588 1326 l 440 1105 l 260 1105 z "},"":{"ha":700,"x_min":30,"x_max":673,"o":"m 37 789 l 37 1010 l 663 1010 l 663 789 l 487 789 l 487 221 l 663 221 l 663 0 l 37 0 l 37 221 l 213 221 l 213 789 l 37 789 m 448 1101 l 351 1209 l 254 1101 l 30 1101 l 30 1107 l 256 1332 l 446 1332 l 673 1107 l 673 1101 l 448 1101 z "},"":{"ha":700,"x_min":37,"x_max":663,"o":"m 37 789 l 37 1010 l 663 1010 l 663 789 l 487 789 l 487 221 l 663 221 l 663 0 l 37 0 l 37 221 l 213 221 l 213 789 l 37 789 m 217 1105 l 83 1105 q 132 1263 83 1211 q 251 1316 181 1315 q 326 1299 296 1316 q 378 1264 356 1281 q 406 1244 393 1252 q 434 1235 420 1235 q 475 1256 463 1235 q 487 1312 487 1276 l 619 1312 q 569 1154 618 1207 q 452 1099 521 1100 q 377 1115 406 1098 q 327 1150 348 1132 q 297 1171 311 1162 q 268 1180 284 1180 q 217 1105 217 1180 z "},"":{"ha":700,"x_min":37,"x_max":663,"o":"m 37 789 l 37 1010 l 663 1010 l 663 789 l 487 789 l 487 221 l 663 221 l 663 0 l 37 0 l 37 221 l 213 221 l 213 789 l 37 789 m 598 1263 l 598 1138 l 105 1138 l 105 1263 l 598 1263 z "},"":{"ha":700,"x_min":37,"x_max":663,"o":"m 37 789 l 37 1010 l 663 1010 l 663 789 l 487 789 l 487 221 l 663 221 l 663 0 l 37 0 l 37 221 l 213 221 l 213 789 l 37 789 m 450 1282 l 621 1282 q 548 1129 621 1186 q 351 1071 475 1071 q 153 1129 226 1071 q 81 1282 80 1186 l 251 1282 q 273 1225 250 1251 q 351 1199 296 1199 q 427 1225 404 1199 q 450 1282 449 1250 z "},"":{"ha":700,"x_min":37,"x_max":683,"o":"m 37 789 l 37 1010 l 663 1010 l 663 789 l 487 789 l 487 221 l 663 221 l 663 0 l 37 0 l 37 221 l 213 221 l 213 789 l 37 789 m 564 -274 q 449 -240 496 -274 q 383 -144 401 -206 q 373 -58 370 -102 q 392 20 375 -14 q 438 67 409 54 l 663 0 q 589 -32 615 -15 q 564 -79 564 -49 q 577 -117 564 -104 q 610 -130 590 -130 q 632 -127 622 -130 q 651 -122 642 -124 l 683 -245 q 633 -265 663 -255 q 564 -274 604 -274 z "},"":{"ha":700,"x_min":37,"x_max":663,"o":"m 37 789 l 37 1010 l 663 1010 l 663 789 l 487 789 l 487 221 l 663 221 l 663 0 l 37 0 l 37 221 l 213 221 l 213 789 l 37 789 m 351 1089 q 256 1126 296 1089 q 217 1213 217 1162 q 256 1301 217 1265 q 351 1338 296 1338 q 446 1301 407 1338 q 485 1213 485 1265 q 446 1126 485 1162 q 351 1089 407 1089 z "},"":{"ha":700,"x_min":30,"x_max":673,"o":"m 37 789 l 37 1010 l 663 1010 l 663 789 l 487 789 l 487 221 l 663 221 l 663 0 l 37 0 l 37 221 l 213 221 l 213 789 l 37 789 m 254 1332 l 351 1223 l 448 1332 l 673 1332 l 673 1326 l 446 1101 l 256 1101 l 30 1326 l 30 1332 l 254 1332 z "},"":{"ha":700,"x_min":-11,"x_max":663,"o":"m 37 789 l 37 1010 l 663 1010 l 663 789 l 487 789 l 487 221 l 663 221 l 663 0 l 37 0 l 37 221 l 213 221 l 213 789 l 37 789 m 137 1105 l -11 1326 l 222 1326 l 317 1105 l 137 1105 m 404 1105 l 309 1326 l 529 1326 l 579 1105 l 404 1105 z "},"":{"ha":700,"x_min":37,"x_max":663,"o":"m 37 789 l 37 1010 l 663 1010 l 663 789 l 487 789 l 487 221 l 663 221 l 663 0 l 37 0 l 37 221 l 213 221 l 213 789 l 37 789 m 79 1128 q 151 1286 78 1225 q 349 1347 224 1347 q 547 1286 473 1347 q 621 1128 621 1225 l 450 1128 q 426 1184 449 1160 q 349 1209 403 1209 q 273 1184 295 1209 q 251 1128 250 1160 l 79 1128 z "},"":{"ha":700,"x_min":37,"x_max":663,"o":"m 37 789 l 37 1010 l 663 1010 l 663 789 l 487 789 l 487 221 l 663 221 l 663 0 l 37 0 l 37 221 l 213 221 l 213 789 l 37 789 m 446 1123 l 251 1123 l 233 1199 q 308 1213 286 1201 q 329 1241 330 1225 q 304 1275 330 1268 q 237 1282 278 1282 l 243 1391 q 474 1355 395 1391 q 552 1255 553 1320 q 520 1191 553 1213 q 446 1162 487 1168 l 446 1123 z "},"":{"ha":700,"x_min":37,"x_max":663,"o":"m 37 789 l 37 1010 l 663 1010 l 663 789 l 487 789 l 487 221 l 663 221 l 663 0 l 37 0 l 37 221 l 213 221 l 213 789 l 37 789 m 349 -306 q 254 -269 294 -306 q 215 -182 215 -233 q 254 -94 215 -130 q 349 -57 294 -57 q 444 -94 405 -57 q 483 -182 483 -130 q 444 -269 483 -233 q 349 -306 405 -306 z "},"":{"ha":925,"x_min":37,"x_max":888,"o":"m 262 789 l 262 1010 l 888 1010 l 888 789 l 712 789 l 712 221 l 888 221 l 888 0 l 262 0 l 262 221 l 438 221 l 438 789 l 262 789 m 207 1010 l 207 939 q 174 828 207 872 q 99 765 142 783 l 37 840 q 80 882 70 855 q 91 943 91 909 l 91 1010 l 207 1010 z "},"":{"ha":894,"x_min":37,"x_max":856,"o":"m 231 789 l 231 1010 l 856 1010 l 856 789 l 681 789 l 681 221 l 856 221 l 856 0 l 231 0 l 231 221 l 406 221 l 406 789 l 231 789 m 37 939 l 37 1010 l 156 1010 l 156 943 q 165 887 157 916 q 207 840 174 857 l 146 765 q 71 828 104 783 q 37 939 38 872 z "},"":{"ha":1150,"x_min":37,"x_max":1113,"o":"m 487 789 l 487 1010 l 1113 1010 l 1113 789 l 937 789 l 937 221 l 1113 221 l 1113 0 l 487 0 l 487 221 l 663 221 l 663 789 l 487 789 m 225 1010 l 225 955 q 190 847 225 896 q 93 765 155 798 l 37 807 q 81 875 66 838 q 95 959 95 911 l 95 1010 l 225 1010 m 487 791 l 487 781 l 420 781 l 256 996 l 256 1010 l 406 1010 l 487 791 z "},"":{"ha":1121,"x_min":37,"x_max":1083,"o":"m 458 789 l 458 1010 l 1083 1010 l 1083 789 l 908 789 l 908 221 l 1083 221 l 1083 0 l 458 0 l 458 221 l 633 221 l 633 789 l 458 789 m 37 939 l 37 1010 l 158 1010 l 158 943 q 165 887 157 916 q 211 840 174 857 l 150 765 q 70 828 104 783 q 37 939 37 872 m 450 799 l 450 779 l 383 779 l 219 996 l 219 1010 l 371 1010 l 450 799 z "},"":{"ha":1142,"x_min":37,"x_max":1105,"o":"m 479 789 l 479 1010 l 1105 1010 l 1105 789 l 929 789 l 929 221 l 1105 221 l 1105 0 l 479 0 l 479 221 l 655 221 l 655 789 l 479 789 m 211 1010 l 211 939 q 177 829 211 874 q 99 765 144 783 l 37 840 q 82 887 74 857 q 91 943 90 916 l 91 1010 l 211 1010 m 239 779 l 239 799 l 320 1010 l 470 1010 l 470 996 l 306 779 l 239 779 z "},"":{"ha":1160,"x_min":37,"x_max":1123,"o":"m 497 789 l 497 1010 l 1123 1010 l 1123 789 l 947 789 l 947 221 l 1123 221 l 1123 0 l 497 0 l 497 221 l 673 221 l 673 789 l 497 789 m 254 779 l 254 799 l 331 1010 l 483 1010 l 483 996 l 318 779 l 254 779 m 146 765 q 72 826 107 782 q 37 939 38 870 l 37 1010 l 156 1010 l 156 943 q 166 882 156 909 q 207 840 175 855 l 146 765 z "},"":{"ha":1044,"x_min":37,"x_max":1006,"o":"m 381 789 l 381 1010 l 1006 1010 l 1006 789 l 831 789 l 831 221 l 1006 221 l 1006 0 l 381 0 l 381 221 l 556 221 l 556 789 l 381 789 m 365 1184 l 468 1152 q 436 1067 468 1103 q 353 1030 403 1030 q 290 1041 317 1030 q 237 1062 262 1052 q 182 1073 212 1073 q 151 1055 162 1073 q 140 1014 140 1038 l 37 1044 q 70 1130 37 1092 q 152 1168 102 1168 q 210 1158 182 1168 q 267 1137 239 1147 q 324 1126 295 1126 q 353 1143 341 1126 q 365 1184 365 1160 m 322 994 l 322 935 q 287 841 322 876 q 207 793 253 806 l 154 854 q 197 891 189 865 q 205 941 205 917 l 205 994 l 322 994 z "},"":{"ha":1071,"x_min":37,"x_max":1034,"o":"m 408 789 l 408 1010 l 1034 1010 l 1034 789 l 858 789 l 858 221 l 1034 221 l 1034 0 l 408 0 l 408 221 l 584 221 l 584 789 l 408 789 m 365 1184 l 468 1152 q 436 1067 468 1103 q 353 1030 403 1030 q 290 1041 317 1030 q 237 1062 262 1052 q 182 1073 212 1073 q 151 1055 162 1073 q 140 1014 140 1038 l 37 1044 q 70 1130 37 1092 q 152 1168 102 1168 q 210 1158 182 1168 q 267 1137 239 1147 q 324 1126 295 1126 q 353 1143 341 1126 q 365 1184 365 1160 m 207 935 l 207 994 l 324 994 l 324 941 q 331 891 324 917 q 375 854 339 865 l 320 793 q 243 839 280 805 q 207 935 207 873 z "},"":{"ha":700,"x_min":37,"x_max":663,"o":"m 37 789 l 37 1010 l 663 1010 l 663 789 l 487 789 l 487 221 l 663 221 l 663 0 l 37 0 l 37 221 l 213 221 l 213 789 l 37 789 m 450 1282 l 621 1282 q 548 1129 621 1186 q 351 1071 475 1071 q 153 1129 226 1071 q 81 1282 80 1186 l 251 1282 q 273 1225 250 1251 q 351 1199 296 1199 q 427 1225 404 1199 q 450 1282 449 1250 z "},"":{"ha":700,"x_min":37,"x_max":663,"o":"m 37 789 l 37 1010 l 663 1010 l 663 789 l 487 789 l 487 221 l 663 221 l 663 0 l 37 0 l 37 221 l 213 221 l 213 789 l 37 789 m 598 1263 l 598 1138 l 105 1138 l 105 1263 l 598 1263 z "},"":{"ha":939,"x_min":37,"x_max":902,"o":"m 276 789 l 276 1010 l 902 1010 l 902 789 l 726 789 l 726 221 l 902 221 l 902 0 l 276 0 l 276 221 l 452 221 l 452 789 l 276 789 m 201 779 l 37 996 l 37 1010 l 187 1010 l 264 803 l 264 779 l 201 779 z "},"":{"ha":939,"x_min":8,"x_max":902,"o":"m 276 789 l 276 1010 l 902 1010 l 902 789 l 726 789 l 726 221 l 902 221 l 902 0 l 276 0 l 276 221 l 452 221 l 452 789 l 276 789 m 8 852 l 8 876 l 87 1083 l 304 1083 l 304 1069 l 140 852 l 8 852 z "},"":{"ha":700,"x_min":37,"x_max":663,"o":"m 37 789 l 37 1010 l 663 1010 l 663 789 l 487 789 l 487 221 l 663 221 l 663 0 l 37 0 l 37 221 l 213 221 l 213 789 l 37 789 z "},"":{"ha":700,"x_min":37,"x_max":663,"o":"m 37 789 l 37 1010 l 663 1010 l 663 789 l 487 789 l 487 221 l 663 221 l 663 0 l 37 0 l 37 221 l 213 221 l 213 789 l 37 789 m 195 1099 q 110 1132 145 1099 q 75 1213 75 1166 q 110 1294 75 1261 q 195 1328 145 1328 q 279 1294 244 1328 q 314 1213 314 1261 q 279 1132 314 1166 q 195 1099 244 1099 m 509 1099 q 424 1132 459 1099 q 389 1213 389 1166 q 424 1294 389 1261 q 509 1328 459 1328 q 593 1294 558 1328 q 627 1213 627 1261 q 593 1132 627 1166 q 509 1099 558 1099 z "},"J":{"ha":817,"x_min":15,"x_max":752,"o":"m 481 1010 l 752 1010 l 752 318 q 702 144 751 219 q 567 28 653 70 q 369 -14 481 -14 q 191 20 272 -14 q 63 127 111 54 q 16 316 15 199 l 290 316 q 387 199 294 199 q 481 318 480 199 l 481 1010 z "},"Ĵ":{"ha":817,"x_min":15,"x_max":937,"o":"m 481 1010 l 752 1010 l 752 318 q 702 144 751 219 q 567 28 653 70 q 369 -14 481 -14 q 191 20 272 -14 q 63 127 111 54 q 16 316 15 199 l 290 316 q 387 199 294 199 q 481 318 480 199 l 481 1010 m 712 1101 l 616 1209 l 519 1101 l 294 1101 l 294 1107 l 521 1332 l 710 1332 l 937 1107 l 937 1101 l 712 1101 z "},"Ɉ":{"ha":817,"x_min":15,"x_max":878,"o":"m 481 1010 l 752 1010 l 752 318 q 702 144 751 219 q 567 28 653 70 q 369 -14 481 -14 q 191 20 272 -14 q 63 127 111 54 q 16 316 15 199 l 290 316 q 387 199 294 199 q 481 318 480 199 l 481 1010 m 347 533 l 347 679 l 878 679 l 878 533 l 347 533 z "},"Ϳ":{"ha":817,"x_min":15,"x_max":752,"o":"m 481 1010 l 752 1010 l 752 318 q 702 144 751 219 q 567 28 653 70 q 369 -14 481 -14 q 191 20 272 -14 q 63 127 111 54 q 16 316 15 199 l 290 316 q 387 199 294 199 q 481 318 480 199 l 481 1010 z "},"Ј":{"ha":817,"x_min":15,"x_max":752,"o":"m 481 1010 l 752 1010 l 752 318 q 702 144 751 219 q 567 28 653 70 q 369 -14 481 -14 q 191 20 272 -14 q 63 127 111 54 q 16 316 15 199 l 290 316 q 387 199 294 199 q 481 318 480 199 l 481 1010 z "},"K":{"ha":992,"x_min":65,"x_max":984,"o":"m 65 0 l 65 1010 l 339 1010 l 339 602 l 353 602 l 657 1010 l 977 1010 l 635 560 l 984 0 l 657 0 l 430 379 l 339 260 l 339 0 l 65 0 z "},"Ķ":{"ha":992,"x_min":65,"x_max":984,"o":"m 65 0 l 65 1010 l 339 1010 l 339 602 l 353 602 l 657 1010 l 977 1010 l 635 560 l 984 0 l 657 0 l 430 379 l 339 260 l 339 0 l 65 0 m 305 -314 l 370 -78 l 615 -78 l 490 -314 l 305 -314 z "},"Ǩ":{"ha":992,"x_min":65,"x_max":984,"o":"m 65 0 l 65 1010 l 339 1010 l 339 602 l 353 602 l 657 1010 l 977 1010 l 635 560 l 984 0 l 657 0 l 430 379 l 339 260 l 339 0 l 65 0 m 395 1332 l 491 1223 l 588 1332 l 813 1332 l 813 1326 l 586 1101 l 397 1101 l 170 1326 l 170 1332 l 395 1332 z "},"Ḱ":{"ha":992,"x_min":65,"x_max":984,"o":"m 65 0 l 65 1010 l 339 1010 l 339 602 l 353 602 l 657 1010 l 977 1010 l 635 560 l 984 0 l 657 0 l 430 379 l 339 260 l 339 0 l 65 0 m 400 1105 l 495 1326 l 728 1326 l 580 1105 l 400 1105 z "},"Ḳ":{"ha":992,"x_min":65,"x_max":984,"o":"m 65 0 l 65 1010 l 339 1010 l 339 602 l 353 602 l 657 1010 l 977 1010 l 635 560 l 984 0 l 657 0 l 430 379 l 339 260 l 339 0 l 65 0 m 489 -304 q 395 -267 434 -304 q 355 -180 355 -231 q 395 -92 355 -128 q 489 -55 434 -55 q 584 -92 545 -55 q 623 -180 623 -128 q 584 -267 623 -231 q 489 -304 545 -304 z "},"Ḵ":{"ha":992,"x_min":65,"x_max":984,"o":"m 65 0 l 65 1010 l 339 1010 l 339 602 l 353 602 l 657 1010 l 977 1010 l 635 560 l 984 0 l 657 0 l 430 379 l 339 260 l 339 0 l 65 0 m 736 -125 l 736 -250 l 243 -250 l 243 -125 l 736 -125 z "},"Ҡ":{"ha":1274,"x_min":30,"x_max":1211,"o":"m 867 0 l 557 408 l 519 408 l 519 0 l 245 0 l 245 805 l 30 805 l 30 1010 l 519 1010 l 519 629 l 554 629 l 844 1010 l 1190 1010 l 805 525 l 1211 0 l 867 0 z "},"Қ":{"ha":1077,"x_min":65,"x_max":1046,"o":"m 688 0 l 378 408 l 339 408 l 339 0 l 65 0 l 65 1010 l 339 1010 l 339 629 l 375 629 l 665 1010 l 1010 1010 l 625 525 l 1032 0 l 688 0 m 1046 182 l 1046 -231 l 783 -231 l 783 182 l 1046 182 z "},"Ƙ":{"ha":1065,"x_min":65,"x_max":1057,"o":"m 65 0 l 65 1010 l 339 1010 l 339 619 l 353 619 l 639 909 q 834 1019 729 1001 q 1057 973 939 1038 l 977 781 q 902 790 929 803 q 842 744 874 776 l 637 537 l 1050 0 l 722 0 l 462 341 l 339 215 l 339 0 l 65 0 z "},"Κ":{"ha":992,"x_min":65,"x_max":984,"o":"m 65 0 l 65 1010 l 339 1010 l 339 602 l 353 602 l 657 1010 l 977 1010 l 635 560 l 984 0 l 657 0 l 430 379 l 339 260 l 339 0 l 65 0 z "},"L":{"ha":793,"x_min":65,"x_max":748,"o":"m 65 0 l 65 1010 l 339 1010 l 339 221 l 748 221 l 748 0 l 65 0 z "},"Ĺ":{"ha":793,"x_min":65,"x_max":748,"o":"m 65 0 l 65 1010 l 339 1010 l 339 221 l 748 221 l 748 0 l 65 0 m 109 1105 l 203 1326 l 436 1326 l 288 1105 l 109 1105 z "},"Ļ":{"ha":793,"x_min":65,"x_max":748,"o":"m 65 0 l 65 1010 l 339 1010 l 339 221 l 748 221 l 748 0 l 65 0 m 222 -316 l 287 -80 l 532 -80 l 407 -316 l 222 -316 z "},"Ľ":{"ha":793,"x_min":65,"x_max":748,"o":"m 65 0 l 65 1010 l 339 1010 l 339 221 l 748 221 l 748 0 l 65 0 m 477 802 l 477 1065 l 661 1065 l 624 802 l 477 802 z "},"Ḷ":{"ha":793,"x_min":65,"x_max":748,"o":"m 65 0 l 65 1010 l 339 1010 l 339 221 l 748 221 l 748 0 l 65 0 m 406 -306 q 312 -269 351 -306 q 272 -182 272 -233 q 312 -94 272 -130 q 406 -57 351 -57 q 501 -94 462 -57 q 541 -182 541 -130 q 501 -269 541 -233 q 406 -306 462 -306 z "},"Ḹ":{"ha":793,"x_min":-47,"x_max":748,"o":"m 65 0 l 65 1010 l 339 1010 l 339 221 l 748 221 l 748 0 l 65 0 m 406 -306 q 312 -269 351 -306 q 272 -182 272 -233 q 312 -94 272 -130 q 406 -57 351 -57 q 501 -94 462 -57 q 541 -182 541 -130 q 501 -269 541 -233 q 406 -306 462 -306 m 446 1263 l 446 1138 l -47 1138 l -47 1263 l 446 1263 z "},"Ḻ":{"ha":793,"x_min":65,"x_max":748,"o":"m 65 0 l 65 1010 l 339 1010 l 339 221 l 748 221 l 748 0 l 65 0 m 653 -127 l 653 -252 l 160 -252 l 160 -127 l 653 -127 z "},"Ḽ":{"ha":793,"x_min":65,"x_max":748,"o":"m 65 0 l 65 1010 l 339 1010 l 339 221 l 748 221 l 748 0 l 65 0 m 503 -294 l 406 -185 l 310 -294 l 85 -294 l 85 -288 l 312 -63 l 501 -63 l 728 -288 l 728 -294 l 503 -294 z "},"Ł":{"ha":835,"x_min":14,"x_max":819,"o":"m 509 667 l 509 531 l 410 506 l 410 221 l 819 221 l 819 0 l 136 0 l 136 436 l 14 404 l 14 539 l 136 570 l 136 1010 l 410 1010 l 410 641 l 509 667 z "},"Ƚ":{"ha":793,"x_min":-65,"x_max":748,"o":"m 65 0 l 65 1010 l 339 1010 l 339 221 l 748 221 l 748 0 l 65 0 m -65 468 l -65 614 l 466 614 l 466 468 l -65 468 z "},"ǈ":{"ha":1203,"x_min":65,"x_max":1134,"o":"m 65 0 l 65 1010 l 339 1010 l 339 221 l 748 221 l 748 0 l 65 0 m 862 758 l 1134 758 l 1134 -26 q 1093 -182 1134 -125 q 976 -261 1051 -238 q 801 -284 901 -284 q 746 -282 773 -284 l 746 -81 q 777 -83 763 -83 q 844 -68 826 -83 q 862 -20 862 -53 l 862 758 m 998 836 q 904 873 943 836 q 864 961 864 909 q 904 1049 864 1012 q 998 1085 943 1085 q 1093 1049 1054 1085 q 1132 961 1132 1012 q 1093 873 1132 909 q 998 836 1054 836 z "},"M":{"ha":1294,"x_min":65,"x_max":1229,"o":"m 65 1010 l 406 1010 l 641 438 l 653 438 l 888 1010 l 1229 1010 l 1229 0 l 961 0 l 961 584 l 953 584 l 728 8 l 566 8 l 341 588 l 333 588 l 333 0 l 65 0 l 65 1010 z "},"Ḿ":{"ha":1294,"x_min":65,"x_max":1229,"o":"m 65 1010 l 406 1010 l 641 438 l 653 438 l 888 1010 l 1229 1010 l 1229 0 l 961 0 l 961 584 l 953 584 l 728 8 l 566 8 l 341 588 l 333 588 l 333 0 l 65 0 l 65 1010 m 556 1105 l 651 1326 l 884 1326 l 736 1105 l 556 1105 z "},"Ṁ":{"ha":1294,"x_min":65,"x_max":1229,"o":"m 65 1010 l 406 1010 l 641 438 l 653 438 l 888 1010 l 1229 1010 l 1229 0 l 961 0 l 961 584 l 953 584 l 728 8 l 566 8 l 341 588 l 333 588 l 333 0 l 65 0 l 65 1010 m 647 1089 q 552 1126 592 1089 q 513 1213 513 1162 q 552 1301 513 1265 q 647 1338 592 1338 q 742 1301 703 1338 q 781 1213 781 1265 q 742 1126 781 1162 q 647 1089 703 1089 z "},"Ṃ":{"ha":1294,"x_min":65,"x_max":1229,"o":"m 65 1010 l 406 1010 l 641 438 l 653 438 l 888 1010 l 1229 1010 l 1229 0 l 961 0 l 961 584 l 953 584 l 728 8 l 566 8 l 341 588 l 333 588 l 333 0 l 65 0 l 65 1010 m 647 -306 q 552 -269 592 -306 q 513 -182 513 -233 q 552 -94 513 -130 q 647 -57 592 -57 q 742 -94 703 -57 q 781 -182 781 -130 q 742 -269 781 -233 q 647 -306 703 -306 z "},"Ӎ":{"ha":1446,"x_min":65,"x_max":1432,"o":"m 65 1010 l 406 1010 l 641 438 l 653 438 l 888 1010 l 1229 1010 l 1229 0 l 961 0 l 961 584 l 953 584 l 728 8 l 566 8 l 341 588 l 333 588 l 333 0 l 65 0 l 65 1010 m 1430 140 l 1430 6 q 1411 -115 1432 -55 q 1353 -226 1389 -176 q 1271 -308 1316 -276 l 1150 -239 q 1159 -225 1154 -232 q 1167 -211 1163 -218 q 1209 -132 1189 -176 q 1229 -14 1230 -87 l 1229 140 l 1430 140 z "},"Μ":{"ha":1294,"x_min":65,"x_max":1229,"o":"m 65 1010 l 406 1010 l 641 438 l 653 438 l 888 1010 l 1229 1010 l 1229 0 l 961 0 l 961 584 l 953 584 l 728 8 l 566 8 l 341 588 l 333 588 l 333 0 l 65 0 l 65 1010 z "},"Ϻ":{"ha":1294,"x_min":65,"x_max":1229,"o":"m 65 1010 l 406 1010 l 641 438 l 653 438 l 888 1010 l 1229 1010 l 1229 0 l 961 0 l 961 584 l 953 584 l 728 8 l 566 8 l 341 588 l 333 588 l 333 0 l 65 0 l 65 1010 z "},"М":{"ha":1294,"x_min":65,"x_max":1229,"o":"m 65 1010 l 406 1010 l 641 438 l 653 438 l 888 1010 l 1229 1010 l 1229 0 l 961 0 l 961 584 l 953 584 l 728 8 l 566 8 l 341 588 l 333 588 l 333 0 l 65 0 l 65 1010 z "},"N":{"ha":1004,"x_min":65,"x_max":939,"o":"m 939 1010 l 939 0 l 710 0 l 345 531 l 339 531 l 339 0 l 65 0 l 65 1010 l 298 1010 l 657 481 l 665 481 l 665 1010 l 939 1010 z "},"Ñ":{"ha":1004,"x_min":65,"x_max":939,"o":"m 939 1010 l 939 0 l 710 0 l 345 531 l 339 531 l 339 0 l 65 0 l 65 1010 l 298 1010 l 657 481 l 665 481 l 665 1010 l 939 1010 m 369 1105 l 235 1105 q 284 1263 235 1211 q 402 1316 332 1315 q 478 1299 448 1316 q 530 1264 508 1281 q 558 1244 545 1252 q 586 1235 572 1235 q 627 1256 615 1235 q 639 1312 639 1276 l 771 1312 q 721 1154 770 1207 q 604 1099 673 1100 q 529 1115 558 1098 q 478 1150 500 1132 q 449 1171 463 1162 q 420 1180 436 1180 q 369 1105 369 1180 z "},"Ń":{"ha":1004,"x_min":65,"x_max":939,"o":"m 939 1010 l 939 0 l 710 0 l 345 531 l 339 531 l 339 0 l 65 0 l 65 1010 l 298 1010 l 657 481 l 665 481 l 665 1010 l 939 1010 m 412 1105 l 507 1326 l 740 1326 l 592 1105 l 412 1105 z "},"Ņ":{"ha":1004,"x_min":65,"x_max":939,"o":"m 939 1010 l 939 0 l 710 0 l 345 531 l 339 531 l 339 0 l 65 0 l 65 1010 l 298 1010 l 657 481 l 665 481 l 665 1010 l 939 1010 m 319 -316 l 384 -80 l 628 -80 l 504 -316 l 319 -316 z "},"Ň":{"ha":1004,"x_min":65,"x_max":939,"o":"m 939 1010 l 939 0 l 710 0 l 345 531 l 339 531 l 339 0 l 65 0 l 65 1010 l 298 1010 l 657 481 l 665 481 l 665 1010 l 939 1010 m 406 1332 l 503 1223 l 600 1332 l 825 1332 l 825 1326 l 598 1101 l 408 1101 l 182 1326 l 182 1332 l 406 1332 z "},"Ǹ":{"ha":1004,"x_min":65,"x_max":939,"o":"m 939 1010 l 939 0 l 710 0 l 345 531 l 339 531 l 339 0 l 65 0 l 65 1010 l 298 1010 l 657 481 l 665 481 l 665 1010 l 939 1010 m 414 1105 l 266 1326 l 499 1326 l 594 1105 l 414 1105 z "},"Ṅ":{"ha":1004,"x_min":65,"x_max":939,"o":"m 939 1010 l 939 0 l 710 0 l 345 531 l 339 531 l 339 0 l 65 0 l 65 1010 l 298 1010 l 657 481 l 665 481 l 665 1010 l 939 1010 m 503 1089 q 408 1126 448 1089 q 369 1213 369 1162 q 408 1301 369 1265 q 503 1338 448 1338 q 598 1301 559 1338 q 637 1213 637 1265 q 598 1126 637 1162 q 503 1089 559 1089 z "},"Ṇ":{"ha":1004,"x_min":65,"x_max":939,"o":"m 939 1010 l 939 0 l 710 0 l 345 531 l 339 531 l 339 0 l 65 0 l 65 1010 l 298 1010 l 657 481 l 665 481 l 665 1010 l 939 1010 m 503 -306 q 408 -269 448 -306 q 369 -182 369 -233 q 408 -94 369 -130 q 503 -57 448 -57 q 598 -94 559 -57 q 637 -182 637 -130 q 598 -269 637 -233 q 503 -306 559 -306 z "},"Ṉ":{"ha":1004,"x_min":65,"x_max":939,"o":"m 939 1010 l 939 0 l 710 0 l 345 531 l 339 531 l 339 0 l 65 0 l 65 1010 l 298 1010 l 657 481 l 665 481 l 665 1010 l 939 1010 m 750 -127 l 750 -252 l 256 -252 l 256 -127 l 750 -127 z "},"Ṋ":{"ha":1004,"x_min":65,"x_max":939,"o":"m 939 1010 l 939 0 l 710 0 l 345 531 l 339 531 l 339 0 l 65 0 l 65 1010 l 298 1010 l 657 481 l 665 481 l 665 1010 l 939 1010 m 600 -294 l 503 -185 l 406 -294 l 182 -294 l 182 -288 l 408 -63 l 598 -63 l 825 -288 l 825 -294 l 600 -294 z "},"Ɲ":{"ha":1040,"x_min":-47,"x_max":975,"o":"m 975 1010 l 975 0 l 746 0 l 381 531 l 375 531 l 375 -24 q 348 -165 375 -113 q 277 -243 321 -218 q 179 -276 232 -269 q 71 -284 125 -284 q 13 -284 51 -284 q -47 -280 -26 -283 l -47 -79 q -31 -80 -39 -80 q -14 -79 -22 -79 q -2 -79 -5 -79 q 68 -68 36 -79 q 101 -24 101 -58 l 101 1010 l 333 1010 l 692 481 l 700 481 l 700 1010 l 975 1010 z "},"Ŋ":{"ha":1004,"x_min":65,"x_max":939,"o":"m 710 0 l 345 531 l 339 531 l 339 0 l 65 0 l 65 1010 l 298 1010 l 657 481 l 665 481 l 665 1010 l 939 1010 l 939 -14 q 896 -195 939 -130 q 771 -284 852 -259 q 578 -310 690 -310 q 495 -296 539 -310 l 495 -99 q 592 -109 539 -109 q 679 -85 647 -109 q 710 -20 710 -61 l 710 0 z "},"И":{"ha":1004,"x_min":65,"x_max":939,"o":"m 65 1010 l 339 1010 l 339 481 l 347 481 l 706 1010 l 939 1010 l 939 0 l 665 0 l 665 531 l 659 531 l 294 0 l 65 0 l 65 1010 z "},"Ѝ":{"ha":1004,"x_min":65,"x_max":939,"o":"m 65 1010 l 339 1010 l 339 481 l 347 481 l 706 1010 l 939 1010 l 939 0 l 665 0 l 665 531 l 659 531 l 294 0 l 65 0 l 65 1010 m 414 1105 l 266 1326 l 499 1326 l 594 1105 l 414 1105 z "},"Й":{"ha":1004,"x_min":65,"x_max":939,"o":"m 65 1010 l 339 1010 l 339 481 l 347 481 l 706 1010 l 939 1010 l 939 0 l 665 0 l 665 531 l 659 531 l 294 0 l 65 0 l 65 1010 m 602 1282 l 773 1282 q 700 1129 773 1186 q 503 1071 627 1071 q 305 1129 378 1071 q 233 1282 232 1186 l 402 1282 q 425 1225 402 1251 q 503 1199 448 1199 q 579 1225 556 1199 q 602 1282 601 1250 z "},"Ӣ":{"ha":1004,"x_min":65,"x_max":939,"o":"m 65 1010 l 339 1010 l 339 481 l 347 481 l 706 1010 l 939 1010 l 939 0 l 665 0 l 665 531 l 659 531 l 294 0 l 65 0 l 65 1010 m 750 1263 l 750 1138 l 256 1138 l 256 1263 l 750 1263 z "},"Ӥ":{"ha":1004,"x_min":65,"x_max":939,"o":"m 65 1010 l 339 1010 l 339 481 l 347 481 l 706 1010 l 939 1010 l 939 0 l 665 0 l 665 531 l 659 531 l 294 0 l 65 0 l 65 1010 m 347 1099 q 262 1132 297 1099 q 227 1213 227 1166 q 262 1294 227 1261 q 347 1328 297 1328 q 431 1294 396 1328 q 466 1213 466 1261 q 431 1132 466 1166 q 347 1099 396 1099 m 661 1099 q 576 1132 611 1099 q 541 1213 541 1166 q 576 1294 541 1261 q 661 1328 611 1328 q 745 1294 710 1328 q 779 1213 779 1261 q 745 1132 779 1166 q 661 1099 710 1099 z "},"Ҋ":{"ha":1004,"x_min":65,"x_max":1142,"o":"m 65 1010 l 339 1010 l 339 481 l 347 481 l 706 1010 l 939 1010 l 939 0 l 665 0 l 665 531 l 659 531 l 294 0 l 65 0 l 65 1010 m 602 1282 l 773 1282 q 700 1129 773 1186 q 503 1071 627 1071 q 305 1129 378 1071 q 233 1282 232 1186 l 402 1282 q 425 1225 402 1251 q 503 1199 448 1199 q 579 1225 556 1199 q 602 1282 601 1250 m 1140 140 l 1140 6 q 1121 -115 1142 -55 q 1063 -226 1099 -176 q 981 -308 1026 -276 l 860 -239 q 869 -225 864 -232 q 877 -211 873 -218 q 919 -132 899 -176 q 939 -14 940 -87 l 939 140 l 1140 140 z "},"Ͷ":{"ha":1097,"x_min":110,"x_max":984,"o":"m 110 1010 l 385 1010 l 385 481 l 393 481 l 752 1010 l 984 1010 l 984 0 l 710 0 l 710 531 l 704 531 l 339 0 l 110 0 l 110 1010 z "},"Ν":{"ha":1004,"x_min":65,"x_max":939,"o":"m 939 1010 l 939 0 l 710 0 l 345 531 l 339 531 l 339 0 l 65 0 l 65 1010 l 298 1010 l 657 481 l 665 481 l 665 1010 l 939 1010 z "},"ǋ":{"ha":1367,"x_min":65,"x_max":1298,"o":"m 939 1010 l 939 0 l 710 0 l 345 531 l 339 531 l 339 0 l 65 0 l 65 1010 l 298 1010 l 657 481 l 665 481 l 665 1010 l 939 1010 m 1026 758 l 1298 758 l 1298 -26 q 1256 -182 1298 -125 q 1140 -261 1215 -238 q 965 -284 1065 -284 q 909 -282 937 -284 l 909 -81 q 941 -83 927 -83 q 1008 -68 990 -83 q 1026 -20 1026 -53 l 1026 758 m 1162 836 q 1067 873 1107 836 q 1028 961 1028 909 q 1067 1049 1028 1012 q 1162 1085 1107 1085 q 1257 1049 1218 1085 q 1296 961 1296 1012 q 1257 873 1296 909 q 1162 836 1218 836 z "},"O":{"ha":1105,"x_min":61,"x_max":1044,"o":"m 1044 505 q 978 221 1044 336 q 801 46 912 105 q 552 -14 690 -14 q 303 46 414 -14 q 127 222 192 106 q 61 505 61 337 q 127 789 61 674 q 303 964 192 905 q 552 1024 414 1024 q 801 964 690 1024 q 978 789 912 905 q 1044 505 1044 674 m 762 505 q 708 713 762 641 q 552 785 654 785 q 397 713 450 785 q 343 505 343 641 q 397 297 343 369 q 552 225 450 225 q 708 297 654 225 q 762 505 762 369 z "},"Ö":{"ha":1105,"x_min":61,"x_max":1044,"o":"m 1044 505 q 978 221 1044 336 q 801 46 912 105 q 552 -14 690 -14 q 303 46 414 -14 q 127 222 192 106 q 61 505 61 337 q 127 789 61 674 q 303 964 192 905 q 552 1024 414 1024 q 801 964 690 1024 q 978 789 912 905 q 1044 505 1044 674 m 762 505 q 708 713 762 641 q 552 785 654 785 q 397 713 450 785 q 343 505 343 641 q 397 297 343 369 q 552 225 450 225 q 708 297 654 225 q 762 505 762 369 m 397 1099 q 311 1132 346 1099 q 276 1213 276 1166 q 311 1294 276 1261 q 397 1328 346 1328 q 480 1294 445 1328 q 515 1213 515 1261 q 480 1132 515 1166 q 397 1099 445 1099 m 710 1099 q 625 1132 660 1099 q 590 1213 590 1166 q 625 1294 590 1261 q 710 1328 660 1328 q 794 1294 759 1328 q 829 1213 829 1261 q 794 1132 829 1166 q 710 1099 759 1099 z "},"Õ":{"ha":1105,"x_min":61,"x_max":1044,"o":"m 1044 505 q 978 221 1044 336 q 801 46 912 105 q 552 -14 690 -14 q 303 46 414 -14 q 127 222 192 106 q 61 505 61 337 q 127 789 61 674 q 303 964 192 905 q 552 1024 414 1024 q 801 964 690 1024 q 978 789 912 905 q 1044 505 1044 674 m 762 505 q 708 713 762 641 q 552 785 654 785 q 397 713 450 785 q 343 505 343 641 q 397 297 343 369 q 552 225 450 225 q 708 297 654 225 q 762 505 762 369 m 418 1109 l 284 1109 q 333 1267 284 1215 q 452 1320 382 1319 q 527 1303 497 1320 q 579 1268 557 1285 q 608 1248 594 1256 q 635 1239 621 1239 q 676 1260 664 1239 q 689 1316 688 1280 l 821 1316 q 771 1158 819 1211 q 653 1103 722 1104 q 578 1119 607 1102 q 528 1154 549 1136 q 499 1175 512 1166 q 470 1184 485 1184 q 418 1109 418 1184 z "},"Ø":{"ha":1105,"x_min":61,"x_max":1044,"o":"m 239 -53 l 128 22 l 200 123 q 98 285 135 189 q 61 505 61 381 q 127 789 61 674 q 303 964 192 905 q 552 1024 414 1024 q 799 966 690 1024 l 866 1061 l 977 986 l 906 886 q 1007 725 970 821 q 1044 505 1044 629 q 978 221 1044 336 q 801 46 912 105 q 552 -14 690 -14 q 307 43 416 -14 l 239 -53 m 365 356 l 653 762 q 552 785 611 785 q 397 713 450 785 q 343 505 343 641 q 365 356 343 418 m 762 505 q 740 653 762 591 l 453 248 q 552 225 495 225 q 708 297 654 225 q 762 505 762 369 z "},"Ơ":{"ha":1166,"x_min":61,"x_max":1150,"o":"m 1002 1044 l 1150 1044 q 1115 849 1150 927 q 1000 742 1079 772 q 1032 632 1021 691 q 1044 505 1044 573 q 978 221 1044 336 q 801 46 912 105 q 552 -14 690 -14 q 303 46 414 -14 q 127 222 192 106 q 61 505 61 337 q 127 789 61 674 q 303 964 192 905 q 552 1024 414 1024 q 771 980 670 1024 q 938 849 871 935 q 989 917 977 867 q 1002 1044 1002 967 m 762 505 q 708 713 762 641 q 552 785 654 785 q 397 713 450 785 q 343 505 343 641 q 397 297 343 369 q 552 225 450 225 q 708 297 654 225 q 762 505 762 369 z "},"Ò":{"ha":1105,"x_min":61,"x_max":1044,"o":"m 1044 505 q 978 221 1044 336 q 801 46 912 105 q 552 -14 690 -14 q 303 46 414 -14 q 127 222 192 106 q 61 505 61 337 q 127 789 61 674 q 303 964 192 905 q 552 1024 414 1024 q 801 964 690 1024 q 978 789 912 905 q 1044 505 1044 674 m 762 505 q 708 713 762 641 q 552 785 654 785 q 397 713 450 785 q 343 505 343 641 q 397 297 343 369 q 552 225 450 225 q 708 297 654 225 q 762 505 762 369 m 464 1105 l 316 1326 l 548 1326 l 643 1105 l 464 1105 z "},"Ó":{"ha":1105,"x_min":61,"x_max":1044,"o":"m 1044 505 q 978 221 1044 336 q 801 46 912 105 q 552 -14 690 -14 q 303 46 414 -14 q 127 222 192 106 q 61 505 61 337 q 127 789 61 674 q 303 964 192 905 q 552 1024 414 1024 q 801 964 690 1024 q 978 789 912 905 q 1044 505 1044 674 m 762 505 q 708 713 762 641 q 552 785 654 785 q 397 713 450 785 q 343 505 343 641 q 397 297 343 369 q 552 225 450 225 q 708 297 654 225 q 762 505 762 369 m 462 1105 l 556 1326 l 789 1326 l 641 1105 l 462 1105 z "},"Ô":{"ha":1105,"x_min":61,"x_max":1044,"o":"m 1044 505 q 978 221 1044 336 q 801 46 912 105 q 552 -14 690 -14 q 303 46 414 -14 q 127 222 192 106 q 61 505 61 337 q 127 789 61 674 q 303 964 192 905 q 552 1024 414 1024 q 801 964 690 1024 q 978 789 912 905 q 1044 505 1044 674 m 762 505 q 708 713 762 641 q 552 785 654 785 q 397 713 450 785 q 343 505 343 641 q 397 297 343 369 q 552 225 450 225 q 708 297 654 225 q 762 505 762 369 m 649 1101 l 552 1209 l 456 1101 l 231 1101 l 231 1107 l 458 1332 l 647 1332 l 874 1107 l 874 1101 l 649 1101 z "},"Ō":{"ha":1105,"x_min":61,"x_max":1044,"o":"m 1044 505 q 978 221 1044 336 q 801 46 912 105 q 552 -14 690 -14 q 303 46 414 -14 q 127 222 192 106 q 61 505 61 337 q 127 789 61 674 q 303 964 192 905 q 552 1024 414 1024 q 801 964 690 1024 q 978 789 912 905 q 1044 505 1044 674 m 762 505 q 708 713 762 641 q 552 785 654 785 q 397 713 450 785 q 343 505 343 641 q 397 297 343 369 q 552 225 450 225 q 708 297 654 225 q 762 505 762 369 m 799 1263 l 799 1138 l 306 1138 l 306 1263 l 799 1263 z "},"Ŏ":{"ha":1105,"x_min":61,"x_max":1044,"o":"m 1044 505 q 978 221 1044 336 q 801 46 912 105 q 552 -14 690 -14 q 303 46 414 -14 q 127 222 192 106 q 61 505 61 337 q 127 789 61 674 q 303 964 192 905 q 552 1024 414 1024 q 801 964 690 1024 q 978 789 912 905 q 1044 505 1044 674 m 762 505 q 708 713 762 641 q 552 785 654 785 q 397 713 450 785 q 343 505 343 641 q 397 297 343 369 q 552 225 450 225 q 708 297 654 225 q 762 505 762 369 m 651 1282 l 823 1282 q 749 1129 822 1186 q 552 1071 676 1071 q 355 1129 428 1071 q 282 1282 282 1186 l 452 1282 q 474 1225 451 1251 q 552 1199 497 1199 q 628 1225 605 1199 q 651 1282 651 1250 z "},"Ő":{"ha":1105,"x_min":61,"x_max":1044,"o":"m 1044 505 q 978 221 1044 336 q 801 46 912 105 q 552 -14 690 -14 q 303 46 414 -14 q 127 222 192 106 q 61 505 61 337 q 127 789 61 674 q 303 964 192 905 q 552 1024 414 1024 q 801 964 690 1024 q 978 789 912 905 q 1044 505 1044 674 m 762 505 q 708 713 762 641 q 552 785 654 785 q 397 713 450 785 q 343 505 343 641 q 397 297 343 369 q 552 225 450 225 q 708 297 654 225 q 762 505 762 369 m 308 1101 l 454 1302 l 663 1302 l 491 1101 l 308 1101 m 594 1101 l 754 1302 l 963 1302 l 773 1101 l 594 1101 z "},"Ǒ":{"ha":1105,"x_min":61,"x_max":1044,"o":"m 1044 505 q 978 221 1044 336 q 801 46 912 105 q 552 -14 690 -14 q 303 46 414 -14 q 127 222 192 106 q 61 505 61 337 q 127 789 61 674 q 303 964 192 905 q 552 1024 414 1024 q 801 964 690 1024 q 978 789 912 905 q 1044 505 1044 674 m 762 505 q 708 713 762 641 q 552 785 654 785 q 397 713 450 785 q 343 505 343 641 q 397 297 343 369 q 552 225 450 225 q 708 297 654 225 q 762 505 762 369 m 456 1332 l 552 1223 l 649 1332 l 874 1332 l 874 1326 l 647 1101 l 458 1101 l 231 1326 l 231 1332 l 456 1332 z "},"Ǫ":{"ha":1105,"x_min":61,"x_max":1044,"o":"m 1044 505 q 997 260 1044 364 q 869 91 950 156 q 683 1 788 26 q 617 -30 640 -13 q 594 -75 593 -47 q 606 -113 593 -100 q 639 -126 619 -126 q 662 -123 652 -126 q 681 -118 671 -120 l 712 -241 q 663 -261 692 -251 q 594 -270 633 -270 q 478 -236 525 -270 q 412 -140 431 -202 q 402 -66 401 -104 q 413 3 402 -28 q 231 95 310 29 q 106 264 151 161 q 61 505 61 367 q 127 789 61 674 q 303 964 192 905 q 552 1024 414 1024 q 801 964 690 1024 q 978 789 912 905 q 1044 505 1044 674 m 762 505 q 708 713 762 641 q 552 785 654 785 q 397 713 450 785 q 343 505 343 641 q 397 297 343 369 q 552 225 450 225 q 708 297 654 225 q 762 505 762 369 z "},"Ǭ":{"ha":1105,"x_min":61,"x_max":1044,"o":"m 1044 505 q 997 260 1044 364 q 869 91 950 156 q 683 1 788 26 q 617 -30 640 -13 q 594 -75 593 -47 q 606 -113 593 -100 q 639 -126 619 -126 q 662 -123 652 -126 q 681 -118 671 -120 l 712 -241 q 663 -261 692 -251 q 594 -270 633 -270 q 478 -236 525 -270 q 412 -140 431 -202 q 402 -66 401 -104 q 413 3 402 -28 q 231 95 310 29 q 106 264 151 161 q 61 505 61 367 q 127 789 61 674 q 303 964 192 905 q 552 1024 414 1024 q 801 964 690 1024 q 978 789 912 905 q 1044 505 1044 674 m 762 505 q 708 713 762 641 q 552 785 654 785 q 397 713 450 785 q 343 505 343 641 q 397 297 343 369 q 552 225 450 225 q 708 297 654 225 q 762 505 762 369 m 799 1263 l 799 1138 l 306 1138 l 306 1263 l 799 1263 z "},"Ȍ":{"ha":1105,"x_min":61,"x_max":1044,"o":"m 1044 505 q 978 221 1044 336 q 801 46 912 105 q 552 -14 690 -14 q 303 46 414 -14 q 127 222 192 106 q 61 505 61 337 q 127 789 61 674 q 303 964 192 905 q 552 1024 414 1024 q 801 964 690 1024 q 978 789 912 905 q 1044 505 1044 674 m 762 505 q 708 713 762 641 q 552 785 654 785 q 397 713 450 785 q 343 505 343 641 q 397 297 343 369 q 552 225 450 225 q 708 297 654 225 q 762 505 762 369 m 338 1105 l 190 1326 l 423 1326 l 518 1105 l 338 1105 m 606 1105 l 510 1326 l 730 1326 l 780 1105 l 606 1105 z "},"Ȏ":{"ha":1105,"x_min":61,"x_max":1044,"o":"m 1044 505 q 978 221 1044 336 q 801 46 912 105 q 552 -14 690 -14 q 303 46 414 -14 q 127 222 192 106 q 61 505 61 337 q 127 789 61 674 q 303 964 192 905 q 552 1024 414 1024 q 801 964 690 1024 q 978 789 912 905 q 1044 505 1044 674 m 762 505 q 708 713 762 641 q 552 785 654 785 q 397 713 450 785 q 343 505 343 641 q 397 297 343 369 q 552 225 450 225 q 708 297 654 225 q 762 505 762 369 m 280 1128 q 353 1286 280 1225 q 550 1347 426 1347 q 748 1286 674 1347 q 823 1128 822 1225 l 651 1128 q 628 1184 651 1160 q 550 1209 605 1209 q 474 1184 497 1209 q 452 1128 451 1160 l 280 1128 z "},"Ȫ":{"ha":1105,"x_min":61,"x_max":1044,"o":"m 1044 505 q 978 221 1044 336 q 801 46 912 105 q 552 -14 690 -14 q 303 46 414 -14 q 127 222 192 106 q 61 505 61 337 q 127 789 61 674 q 303 964 192 905 q 552 1024 414 1024 q 801 964 690 1024 q 978 789 912 905 q 1044 505 1044 674 m 762 505 q 708 713 762 641 q 552 785 654 785 q 397 713 450 785 q 343 505 343 641 q 397 297 343 369 q 552 225 450 225 q 708 297 654 225 q 762 505 762 369 m 799 1515 l 799 1391 l 306 1391 l 306 1515 l 799 1515 m 397 1099 q 311 1132 346 1099 q 276 1213 276 1166 q 311 1294 276 1261 q 397 1328 346 1328 q 480 1294 445 1328 q 515 1213 515 1261 q 480 1132 515 1166 q 397 1099 445 1099 m 710 1099 q 625 1132 660 1099 q 590 1213 590 1166 q 625 1294 590 1261 q 710 1328 660 1328 q 794 1294 759 1328 q 829 1213 829 1261 q 794 1132 829 1166 q 710 1099 759 1099 z "},"Ȭ":{"ha":1105,"x_min":61,"x_max":1044,"o":"m 1044 505 q 978 221 1044 336 q 801 46 912 105 q 552 -14 690 -14 q 303 46 414 -14 q 127 222 192 106 q 61 505 61 337 q 127 789 61 674 q 303 964 192 905 q 552 1024 414 1024 q 801 964 690 1024 q 978 789 912 905 q 1044 505 1044 674 m 762 505 q 708 713 762 641 q 552 785 654 785 q 397 713 450 785 q 343 505 343 641 q 397 297 343 369 q 552 225 450 225 q 708 297 654 225 q 762 505 762 369 m 799 1466 l 799 1342 l 304 1342 l 304 1466 l 799 1466 m 665 1278 l 769 1249 q 736 1164 769 1201 q 653 1126 703 1126 q 588 1137 616 1126 q 535 1158 560 1147 q 479 1168 510 1168 q 451 1151 463 1168 q 440 1111 439 1134 l 337 1140 q 368 1225 337 1188 q 450 1263 399 1263 q 509 1252 480 1263 q 566 1232 538 1242 q 623 1221 595 1221 q 652 1238 639 1221 q 665 1278 664 1255 z "},"Ȯ":{"ha":1105,"x_min":61,"x_max":1044,"o":"m 1044 505 q 978 221 1044 336 q 801 46 912 105 q 552 -14 690 -14 q 303 46 414 -14 q 127 222 192 106 q 61 505 61 337 q 127 789 61 674 q 303 964 192 905 q 552 1024 414 1024 q 801 964 690 1024 q 978 789 912 905 q 1044 505 1044 674 m 762 505 q 708 713 762 641 q 552 785 654 785 q 397 713 450 785 q 343 505 343 641 q 397 297 343 369 q 552 225 450 225 q 708 297 654 225 q 762 505 762 369 m 552 1089 q 458 1126 497 1089 q 418 1213 418 1162 q 458 1301 418 1265 q 552 1338 497 1338 q 647 1301 608 1338 q 687 1213 687 1265 q 647 1126 687 1162 q 552 1089 608 1089 z "},"Ȱ":{"ha":1105,"x_min":61,"x_max":1044,"o":"m 1044 505 q 978 221 1044 336 q 801 46 912 105 q 552 -14 690 -14 q 303 46 414 -14 q 127 222 192 106 q 61 505 61 337 q 127 789 61 674 q 303 964 192 905 q 552 1024 414 1024 q 801 964 690 1024 q 978 789 912 905 q 1044 505 1044 674 m 762 505 q 708 713 762 641 q 552 785 654 785 q 397 713 450 785 q 343 505 343 641 q 397 297 343 369 q 552 225 450 225 q 708 297 654 225 q 762 505 762 369 m 799 1515 l 799 1391 l 306 1391 l 306 1515 l 799 1515 m 553 1098 q 468 1132 503 1098 q 433 1213 433 1166 q 468 1294 433 1261 q 553 1327 503 1327 q 638 1294 603 1327 q 673 1213 673 1261 q 638 1132 673 1166 q 553 1098 603 1098 z "},"Ṍ":{"ha":1105,"x_min":61,"x_max":1044,"o":"m 1044 505 q 978 221 1044 336 q 801 46 912 105 q 552 -14 690 -14 q 303 46 414 -14 q 127 222 192 106 q 61 505 61 337 q 127 789 61 674 q 303 964 192 905 q 552 1024 414 1024 q 801 964 690 1024 q 978 789 912 905 q 1044 505 1044 674 m 762 505 q 708 713 762 641 q 552 785 654 785 q 397 713 450 785 q 343 505 343 641 q 397 297 343 369 q 552 225 450 225 q 708 297 654 225 q 762 505 762 369 m 427 1091 l 302 1091 q 347 1232 302 1186 q 458 1278 393 1278 q 529 1263 501 1279 q 578 1233 556 1248 q 604 1214 591 1222 q 630 1207 617 1207 q 668 1225 656 1207 q 680 1275 679 1243 l 803 1275 q 757 1134 802 1182 q 647 1086 711 1087 q 577 1101 604 1086 q 529 1131 549 1116 q 502 1150 515 1142 q 475 1158 489 1158 q 427 1091 427 1158 m 444 1338 l 575 1528 l 798 1528 l 627 1338 l 444 1338 z "},"Ṏ":{"ha":1105,"x_min":61,"x_max":1044,"o":"m 1044 505 q 978 221 1044 336 q 801 46 912 105 q 552 -14 690 -14 q 303 46 414 -14 q 127 222 192 106 q 61 505 61 337 q 127 789 61 674 q 303 964 192 905 q 552 1024 414 1024 q 801 964 690 1024 q 978 789 912 905 q 1044 505 1044 674 m 762 505 q 708 713 762 641 q 552 785 654 785 q 397 713 450 785 q 343 505 343 641 q 397 297 343 369 q 552 225 450 225 q 708 297 654 225 q 762 505 762 369 m 663 1259 l 767 1229 q 734 1144 767 1180 q 653 1107 701 1107 q 587 1117 615 1107 q 535 1138 560 1127 q 479 1148 509 1148 q 451 1131 463 1148 q 440 1091 439 1115 l 337 1121 q 368 1205 337 1168 q 450 1243 399 1243 q 509 1233 480 1243 q 566 1212 538 1222 q 623 1201 594 1201 q 651 1218 639 1201 q 663 1259 662 1235 m 590 1383 q 620 1443 589 1418 q 696 1468 650 1468 q 772 1443 742 1468 q 803 1383 802 1418 q 772 1324 802 1347 q 696 1300 742 1300 q 620 1324 650 1300 q 590 1383 589 1347 m 300 1383 q 329 1443 299 1418 q 404 1468 360 1468 q 481 1443 450 1468 q 513 1383 512 1418 q 482 1324 512 1347 q 404 1300 451 1300 q 329 1324 360 1300 q 300 1383 299 1347 z "},"Ṑ":{"ha":1105,"x_min":61,"x_max":1044,"o":"m 1044 505 q 978 221 1044 336 q 801 46 912 105 q 552 -14 690 -14 q 303 46 414 -14 q 127 222 192 106 q 61 505 61 337 q 127 789 61 674 q 303 964 192 905 q 552 1024 414 1024 q 801 964 690 1024 q 978 789 912 905 q 1044 505 1044 674 m 762 505 q 708 713 762 641 q 552 785 654 785 q 397 713 450 785 q 343 505 343 641 q 397 297 343 369 q 552 225 450 225 q 708 297 654 225 q 762 505 762 369 m 799 1243 l 799 1119 l 306 1119 l 306 1243 l 799 1243 m 470 1338 l 299 1528 l 522 1528 l 653 1338 l 470 1338 z "},"Ṓ":{"ha":1105,"x_min":61,"x_max":1044,"o":"m 1044 505 q 978 221 1044 336 q 801 46 912 105 q 552 -14 690 -14 q 303 46 414 -14 q 127 222 192 106 q 61 505 61 337 q 127 789 61 674 q 303 964 192 905 q 552 1024 414 1024 q 801 964 690 1024 q 978 789 912 905 q 1044 505 1044 674 m 762 505 q 708 713 762 641 q 552 785 654 785 q 397 713 450 785 q 343 505 343 641 q 397 297 343 369 q 552 225 450 225 q 708 297 654 225 q 762 505 762 369 m 799 1243 l 799 1119 l 306 1119 l 306 1243 l 799 1243 m 452 1338 l 583 1528 l 806 1528 l 635 1338 l 452 1338 z "},"Ọ":{"ha":1105,"x_min":61,"x_max":1044,"o":"m 1044 505 q 978 221 1044 336 q 801 46 912 105 q 552 -14 690 -14 q 303 46 414 -14 q 127 222 192 106 q 61 505 61 337 q 127 789 61 674 q 303 964 192 905 q 552 1024 414 1024 q 801 964 690 1024 q 978 789 912 905 q 1044 505 1044 674 m 762 505 q 708 713 762 641 q 552 785 654 785 q 397 713 450 785 q 343 505 343 641 q 397 297 343 369 q 552 225 450 225 q 708 297 654 225 q 762 505 762 369 m 552 -306 q 458 -269 497 -306 q 418 -182 418 -233 q 458 -94 418 -130 q 552 -57 497 -57 q 647 -94 608 -57 q 687 -182 687 -130 q 647 -269 687 -233 q 552 -306 608 -306 z "},"Ỏ":{"ha":1105,"x_min":61,"x_max":1044,"o":"m 1044 505 q 978 221 1044 336 q 801 46 912 105 q 552 -14 690 -14 q 303 46 414 -14 q 127 222 192 106 q 61 505 61 337 q 127 789 61 674 q 303 964 192 905 q 552 1024 414 1024 q 801 964 690 1024 q 978 789 912 905 q 1044 505 1044 674 m 762 505 q 708 713 762 641 q 552 785 654 785 q 397 713 450 785 q 343 505 343 641 q 397 297 343 369 q 552 225 450 225 q 708 297 654 225 q 762 505 762 369 m 647 1123 l 452 1123 l 434 1199 q 509 1213 487 1201 q 531 1241 532 1225 q 505 1275 532 1268 q 438 1282 479 1282 l 444 1391 q 675 1355 596 1391 q 754 1255 755 1320 q 721 1191 755 1213 q 647 1162 688 1168 l 647 1123 z "},"Ố":{"ha":1105,"x_min":61,"x_max":1059,"o":"m 1044 505 q 978 221 1044 336 q 801 46 912 105 q 552 -14 690 -14 q 303 46 414 -14 q 127 222 192 106 q 61 505 61 337 q 127 789 61 674 q 303 964 192 905 q 552 1024 414 1024 q 801 964 690 1024 q 978 789 912 905 q 1044 505 1044 674 m 762 505 q 708 713 762 641 q 552 785 654 785 q 397 713 450 785 q 343 505 343 641 q 397 297 343 369 q 552 225 450 225 q 708 297 654 225 q 762 505 762 369 m 294 1085 l 491 1221 l 608 1221 l 807 1085 l 649 1085 l 550 1154 l 450 1085 l 294 1085 m 756 1150 l 884 1340 l 1059 1340 l 886 1150 l 756 1150 z "},"Ồ":{"ha":1105,"x_min":45,"x_max":1044,"o":"m 1044 505 q 978 221 1044 336 q 801 46 912 105 q 552 -14 690 -14 q 303 46 414 -14 q 127 222 192 106 q 61 505 61 337 q 127 789 61 674 q 303 964 192 905 q 552 1024 414 1024 q 801 964 690 1024 q 978 789 912 905 q 1044 505 1044 674 m 762 505 q 708 713 762 641 q 552 785 654 785 q 397 713 450 785 q 343 505 343 641 q 397 297 343 369 q 552 225 450 225 q 708 297 654 225 q 762 505 762 369 m 610 1217 l 809 1081 l 651 1081 l 552 1150 l 452 1081 l 296 1081 l 493 1217 l 610 1217 m 217 1334 l 347 1146 l 219 1146 l 45 1334 l 217 1334 z "},"Ổ":{"ha":1105,"x_min":61,"x_max":1044,"o":"m 1044 505 q 978 221 1044 336 q 801 46 912 105 q 552 -14 690 -14 q 303 46 414 -14 q 127 222 192 106 q 61 505 61 337 q 127 789 61 674 q 303 964 192 905 q 552 1024 414 1024 q 801 964 690 1024 q 978 789 912 905 q 1044 505 1044 674 m 762 505 q 708 713 762 641 q 552 785 654 785 q 397 713 450 785 q 343 505 343 641 q 397 297 343 369 q 552 225 450 225 q 708 297 654 225 q 762 505 762 369 m 866 1166 l 740 1166 l 724 1229 q 786 1240 767 1231 q 805 1263 805 1249 q 782 1291 805 1285 q 726 1298 760 1298 l 732 1387 q 897 1358 840 1387 q 955 1274 955 1329 q 927 1223 955 1242 q 866 1198 899 1203 l 866 1166 m 606 1221 l 805 1085 l 645 1085 l 552 1146 l 456 1085 l 296 1085 l 495 1221 l 606 1221 z "},"Ỗ":{"ha":1105,"x_min":61,"x_max":1044,"o":"m 1044 505 q 978 221 1044 336 q 801 46 912 105 q 552 -14 690 -14 q 303 46 414 -14 q 127 222 192 106 q 61 505 61 337 q 127 789 61 674 q 303 964 192 905 q 552 1024 414 1024 q 801 964 690 1024 q 978 789 912 905 q 1044 505 1044 674 m 762 505 q 708 713 762 641 q 552 785 654 785 q 397 713 450 785 q 343 505 343 641 q 397 297 343 369 q 552 225 450 225 q 708 297 654 225 q 762 505 762 369 m 616 1233 l 809 1091 l 649 1091 l 552 1160 l 460 1091 l 296 1091 l 491 1233 l 616 1233 m 651 1397 l 736 1365 q 715 1292 735 1325 q 655 1259 694 1259 q 599 1269 625 1259 q 547 1290 572 1279 q 499 1300 523 1300 q 481 1287 485 1300 q 477 1255 477 1274 l 395 1278 q 415 1348 394 1315 q 475 1381 435 1381 q 527 1371 499 1381 q 581 1351 554 1361 q 631 1342 609 1342 q 647 1360 643 1342 q 651 1397 651 1378 z "},"Ộ":{"ha":1105,"x_min":61,"x_max":1044,"o":"m 1044 505 q 978 221 1044 336 q 801 46 912 105 q 552 -14 690 -14 q 303 46 414 -14 q 127 222 192 106 q 61 505 61 337 q 127 789 61 674 q 303 964 192 905 q 552 1024 414 1024 q 801 964 690 1024 q 978 789 912 905 q 1044 505 1044 674 m 762 505 q 708 713 762 641 q 552 785 654 785 q 397 713 450 785 q 343 505 343 641 q 397 297 343 369 q 552 225 450 225 q 708 297 654 225 q 762 505 762 369 m 649 1101 l 552 1209 l 456 1101 l 231 1101 l 231 1107 l 458 1332 l 647 1332 l 874 1107 l 874 1101 l 649 1101 m 552 -306 q 458 -269 497 -306 q 418 -182 418 -233 q 458 -94 418 -130 q 552 -57 497 -57 q 647 -94 608 -57 q 687 -182 687 -130 q 647 -269 687 -233 q 552 -306 608 -306 z "},"Ớ":{"ha":1166,"x_min":61,"x_max":1150,"o":"m 1002 1044 l 1150 1044 q 1115 849 1150 927 q 1000 742 1079 772 q 1032 632 1021 691 q 1044 505 1044 573 q 978 221 1044 336 q 801 46 912 105 q 552 -14 690 -14 q 303 46 414 -14 q 127 222 192 106 q 61 505 61 337 q 127 789 61 674 q 303 964 192 905 q 552 1024 414 1024 q 771 980 670 1024 q 938 849 871 935 q 989 917 977 867 q 1002 1044 1002 967 m 762 505 q 708 713 762 641 q 552 785 654 785 q 397 713 450 785 q 343 505 343 641 q 397 297 343 369 q 552 225 450 225 q 708 297 654 225 q 762 505 762 369 m 462 1105 l 556 1326 l 789 1326 l 641 1105 l 462 1105 z "},"Ờ":{"ha":1166,"x_min":61,"x_max":1150,"o":"m 1002 1044 l 1150 1044 q 1115 849 1150 927 q 1000 742 1079 772 q 1032 632 1021 691 q 1044 505 1044 573 q 978 221 1044 336 q 801 46 912 105 q 552 -14 690 -14 q 303 46 414 -14 q 127 222 192 106 q 61 505 61 337 q 127 789 61 674 q 303 964 192 905 q 552 1024 414 1024 q 771 980 670 1024 q 938 849 871 935 q 989 917 977 867 q 1002 1044 1002 967 m 762 505 q 708 713 762 641 q 552 785 654 785 q 397 713 450 785 q 343 505 343 641 q 397 297 343 369 q 552 225 450 225 q 708 297 654 225 q 762 505 762 369 m 464 1105 l 316 1326 l 548 1326 l 643 1105 l 464 1105 z "},"Ở":{"ha":1166,"x_min":61,"x_max":1150,"o":"m 1002 1044 l 1150 1044 q 1115 849 1150 927 q 1000 742 1079 772 q 1032 632 1021 691 q 1044 505 1044 573 q 978 221 1044 336 q 801 46 912 105 q 552 -14 690 -14 q 303 46 414 -14 q 127 222 192 106 q 61 505 61 337 q 127 789 61 674 q 303 964 192 905 q 552 1024 414 1024 q 771 980 670 1024 q 938 849 871 935 q 989 917 977 867 q 1002 1044 1002 967 m 762 505 q 708 713 762 641 q 552 785 654 785 q 397 713 450 785 q 343 505 343 641 q 397 297 343 369 q 552 225 450 225 q 708 297 654 225 q 762 505 762 369 m 647 1123 l 452 1123 l 434 1199 q 509 1213 487 1201 q 531 1241 532 1225 q 505 1275 532 1268 q 438 1282 479 1282 l 444 1391 q 675 1355 596 1391 q 754 1255 755 1320 q 721 1191 755 1213 q 647 1162 688 1168 l 647 1123 z "},"Ỡ":{"ha":1166,"x_min":61,"x_max":1150,"o":"m 1002 1044 l 1150 1044 q 1115 849 1150 927 q 1000 742 1079 772 q 1032 632 1021 691 q 1044 505 1044 573 q 978 221 1044 336 q 801 46 912 105 q 552 -14 690 -14 q 303 46 414 -14 q 127 222 192 106 q 61 505 61 337 q 127 789 61 674 q 303 964 192 905 q 552 1024 414 1024 q 771 980 670 1024 q 938 849 871 935 q 989 917 977 867 q 1002 1044 1002 967 m 762 505 q 708 713 762 641 q 552 785 654 785 q 397 713 450 785 q 343 505 343 641 q 397 297 343 369 q 552 225 450 225 q 708 297 654 225 q 762 505 762 369 m 418 1105 l 284 1105 q 333 1263 284 1211 q 452 1316 382 1315 q 527 1299 497 1316 q 579 1264 557 1281 q 608 1244 594 1252 q 635 1235 621 1235 q 676 1256 664 1235 q 689 1312 688 1276 l 821 1312 q 771 1154 819 1207 q 653 1099 722 1100 q 578 1115 607 1098 q 528 1150 549 1132 q 499 1171 512 1162 q 470 1180 485 1180 q 418 1105 418 1180 z "},"Ợ":{"ha":1166,"x_min":61,"x_max":1150,"o":"m 1002 1044 l 1150 1044 q 1115 849 1150 927 q 1000 742 1079 772 q 1032 632 1021 691 q 1044 505 1044 573 q 978 221 1044 336 q 801 46 912 105 q 552 -14 690 -14 q 303 46 414 -14 q 127 222 192 106 q 61 505 61 337 q 127 789 61 674 q 303 964 192 905 q 552 1024 414 1024 q 771 980 670 1024 q 938 849 871 935 q 989 917 977 867 q 1002 1044 1002 967 m 762 505 q 708 713 762 641 q 552 785 654 785 q 397 713 450 785 q 343 505 343 641 q 397 297 343 369 q 552 225 450 225 q 708 297 654 225 q 762 505 762 369 m 552 -306 q 458 -269 497 -306 q 418 -182 418 -233 q 458 -94 418 -130 q 552 -57 497 -57 q 647 -94 608 -57 q 687 -182 687 -130 q 647 -269 687 -233 q 552 -306 608 -306 z "},"Ǿ":{"ha":1105,"x_min":61,"x_max":1044,"o":"m 239 -53 l 128 22 l 200 123 q 98 285 135 189 q 61 505 61 381 q 127 789 61 674 q 303 964 192 905 q 552 1024 414 1024 q 799 966 690 1024 l 866 1061 l 977 986 l 906 886 q 1007 725 970 821 q 1044 505 1044 629 q 978 221 1044 336 q 801 46 912 105 q 552 -14 690 -14 q 307 43 416 -14 l 239 -53 m 365 356 l 653 762 q 552 785 611 785 q 397 713 450 785 q 343 505 343 641 q 365 356 343 418 m 762 505 q 740 653 762 591 l 453 248 q 552 225 495 225 q 708 297 654 225 q 762 505 762 369 m 462 1105 l 556 1326 l 789 1326 l 641 1105 l 462 1105 z "},"Ο":{"ha":1105,"x_min":61,"x_max":1044,"o":"m 1044 505 q 978 221 1044 336 q 801 46 912 105 q 552 -14 690 -14 q 303 46 414 -14 q 127 222 192 106 q 61 505 61 337 q 127 789 61 674 q 303 964 192 905 q 552 1024 414 1024 q 801 964 690 1024 q 978 789 912 905 q 1044 505 1044 674 m 762 505 q 708 713 762 641 q 552 785 654 785 q 397 713 450 785 q 343 505 343 641 q 397 297 343 369 q 552 225 450 225 q 708 297 654 225 q 762 505 762 369 z "},"Ό":{"ha":1138,"x_min":-20,"x_max":1134,"o":"m 1134 505 q 1069 221 1134 336 q 892 46 1003 105 q 643 -14 780 -14 q 394 46 505 -14 q 217 222 283 106 q 152 505 152 337 q 217 789 152 674 q 394 964 283 905 q 643 1024 505 1024 q 892 964 780 1024 q 1069 789 1003 905 q 1134 505 1134 674 m 852 505 q 799 713 852 641 q 643 785 745 785 q 488 713 541 785 q 434 505 434 641 q 488 297 434 369 q 643 225 541 225 q 799 297 745 225 q 852 505 852 369 m -20 852 l 45 1089 l 274 1089 l 132 852 l -20 852 z "},"Ὀ":{"ha":1138,"x_min":-18,"x_max":1134,"o":"m 1134 505 q 1069 221 1134 336 q 892 46 1003 105 q 643 -14 780 -14 q 394 46 505 -14 q 217 222 283 106 q 152 505 152 337 q 217 789 152 674 q 394 964 283 905 q 643 1024 505 1024 q 892 964 780 1024 q 1069 789 1003 905 q 1134 505 1134 674 m 852 505 q 799 713 852 641 q 643 785 745 785 q 488 713 541 785 q 434 505 434 641 q 488 297 434 369 q 643 225 541 225 q 799 297 745 225 q 852 505 852 369 m 152 1010 l 152 939 q 119 828 152 872 q 43 765 86 783 l -18 840 q 25 882 15 855 q 36 943 36 909 l 36 1010 l 152 1010 z "},"Ὁ":{"ha":1184,"x_min":59,"x_max":1180,"o":"m 1180 505 q 1114 221 1180 336 q 937 46 1049 105 q 689 -14 826 -14 q 439 46 550 -14 q 263 222 328 106 q 197 505 197 337 q 263 789 197 674 q 439 964 328 905 q 689 1024 550 1024 q 937 964 826 1024 q 1114 789 1049 905 q 1180 505 1180 674 m 898 505 q 844 713 898 641 q 689 785 791 785 q 533 713 586 785 q 479 505 479 641 q 533 297 479 369 q 689 225 586 225 q 844 297 791 225 q 898 505 898 369 m 59 939 l 59 1010 l 178 1010 l 178 943 q 187 887 179 916 q 229 840 196 857 l 168 765 q 93 828 126 783 q 59 939 60 872 z "},"Ὂ":{"ha":1369,"x_min":-12,"x_max":1365,"o":"m 1365 505 q 1300 221 1365 336 q 1123 46 1234 105 q 874 -14 1011 -14 q 625 46 736 -14 q 448 222 513 106 q 383 505 383 337 q 448 789 383 674 q 625 964 513 905 q 874 1024 736 1024 q 1123 964 1011 1024 q 1300 789 1234 905 q 1365 505 1365 674 m 1083 505 q 1030 713 1083 641 q 874 785 976 785 q 718 713 772 785 q 665 505 665 641 q 718 297 665 369 q 874 225 772 225 q 1030 297 976 225 q 1083 505 1083 369 m 176 1010 l 176 955 q 141 847 176 896 q 43 765 106 798 l -12 807 q 31 875 17 838 q 45 959 46 911 l 45 1010 l 176 1010 m 438 791 l 438 781 l 371 781 l 207 996 l 207 1010 l 357 1010 l 438 791 z "},"Ὃ":{"ha":1336,"x_min":-16,"x_max":1332,"o":"m 1332 505 q 1266 221 1332 336 q 1089 46 1200 105 q 840 -14 978 -14 q 591 46 702 -14 q 415 222 480 106 q 349 505 349 337 q 415 789 349 674 q 591 964 480 905 q 840 1024 702 1024 q 1089 964 978 1024 q 1266 789 1200 905 q 1332 505 1332 674 m 1050 505 q 996 713 1050 641 q 840 785 943 785 q 685 713 738 785 q 631 505 631 641 q 685 297 631 369 q 840 225 738 225 q 996 297 943 225 q 1050 505 1050 369 m -16 939 l -16 1010 l 105 1010 l 105 943 q 112 887 104 916 q 158 840 120 857 l 97 765 q 17 828 50 783 q -16 939 -16 872 m 397 799 l 397 779 l 329 779 l 166 996 l 166 1010 l 318 1010 l 397 799 z "},"Ὄ":{"ha":1284,"x_min":-8,"x_max":1280,"o":"m 1280 505 q 1215 221 1280 336 q 1038 46 1149 105 q 789 -14 926 -14 q 540 46 651 -14 q 363 222 429 106 q 298 505 298 337 q 363 789 298 674 q 540 964 429 905 q 789 1024 651 1024 q 1038 964 926 1024 q 1215 789 1149 905 q 1280 505 1280 674 m 998 505 q 945 713 998 641 q 789 785 891 785 q 634 713 687 785 q 580 505 580 641 q 634 297 580 369 q 789 225 687 225 q 945 297 891 225 q 998 505 998 369 m 166 1010 l 166 939 q 132 829 165 874 q 53 765 99 783 l -8 840 q 37 887 29 857 q 45 943 45 916 l 45 1010 l 166 1010 m 193 779 l 193 799 l 274 1010 l 424 1010 l 424 996 l 260 779 l 193 779 z "},"Ὅ":{"ha":1300,"x_min":-10,"x_max":1296,"o":"m 1296 505 q 1231 221 1296 336 q 1054 46 1165 105 q 805 -14 942 -14 q 556 46 667 -14 q 379 222 444 106 q 314 505 314 337 q 379 789 314 674 q 556 964 444 905 q 805 1024 667 1024 q 1054 964 942 1024 q 1231 789 1165 905 q 1296 505 1296 674 m 1014 505 q 961 713 1014 641 q 805 785 907 785 q 649 713 703 785 q 596 505 596 641 q 649 297 596 369 q 805 225 703 225 q 961 297 907 225 q 1014 505 1014 369 m 207 779 l 207 799 l 284 1010 l 436 1010 l 436 996 l 270 779 l 207 779 m 99 765 q 25 826 59 782 q -10 939 -9 870 l -10 1010 l 109 1010 l 109 943 q 118 882 109 909 q 160 840 128 855 l 99 765 z "},"Ὸ":{"ha":1158,"x_min":-12,"x_max":1154,"o":"m 1154 505 q 1089 221 1154 336 q 911 46 1023 105 q 663 -14 800 -14 q 414 46 525 -14 q 237 222 302 106 q 172 505 172 337 q 237 789 172 674 q 414 964 302 905 q 663 1024 525 1024 q 911 964 800 1024 q 1089 789 1023 905 q 1154 505 1154 674 m 872 505 q 818 713 872 641 q 663 785 765 785 q 507 713 561 785 q 454 505 454 641 q 507 297 454 369 q 663 225 561 225 q 818 297 765 225 q 872 505 872 369 m 152 779 l -12 996 l -12 1010 l 138 1010 l 215 803 l 215 779 l 152 779 z "},"ϴ":{"ha":1105,"x_min":61,"x_max":1044,"o":"m 1044 505 q 978 221 1044 336 q 801 46 912 105 q 552 -14 690 -14 q 303 46 414 -14 q 127 222 192 106 q 61 505 61 337 q 127 789 61 674 q 303 964 192 905 q 552 1024 414 1024 q 801 964 690 1024 q 978 789 912 905 q 1044 505 1044 674 m 756 584 q 690 734 742 682 q 552 785 639 785 q 415 734 466 785 q 349 584 363 682 l 756 584 m 552 225 q 690 276 639 225 q 756 426 742 328 l 349 426 q 415 276 363 328 q 552 225 466 225 z "},"Ό":{"ha":1077,"x_min":14,"x_max":1073,"o":"m 1073 505 q 1008 221 1073 336 q 831 46 942 105 q 582 -14 719 -14 q 333 46 444 -14 q 156 222 221 106 q 91 505 91 337 q 156 789 91 674 q 333 964 221 905 q 582 1024 444 1024 q 831 964 719 1024 q 1008 789 942 905 q 1073 505 1073 674 m 791 505 q 738 713 791 641 q 582 785 684 785 q 426 713 480 785 q 373 505 373 641 q 426 297 373 369 q 582 225 480 225 q 738 297 684 225 q 791 505 791 369 m 14 852 l 14 876 l 93 1083 l 310 1083 l 310 1069 l 146 852 l 14 852 z "},"О":{"ha":1105,"x_min":61,"x_max":1044,"o":"m 1044 505 q 978 221 1044 336 q 801 46 912 105 q 552 -14 690 -14 q 303 46 414 -14 q 127 222 192 106 q 61 505 61 337 q 127 789 61 674 q 303 964 192 905 q 552 1024 414 1024 q 801 964 690 1024 q 978 789 912 905 q 1044 505 1044 674 m 762 505 q 708 713 762 641 q 552 785 654 785 q 397 713 450 785 q 343 505 343 641 q 397 297 343 369 q 552 225 450 225 q 708 297 654 225 q 762 505 762 369 z "},"Ӧ":{"ha":1105,"x_min":61,"x_max":1044,"o":"m 1044 505 q 978 221 1044 336 q 801 46 912 105 q 552 -14 690 -14 q 303 46 414 -14 q 127 222 192 106 q 61 505 61 337 q 127 789 61 674 q 303 964 192 905 q 552 1024 414 1024 q 801 964 690 1024 q 978 789 912 905 q 1044 505 1044 674 m 762 505 q 708 713 762 641 q 552 785 654 785 q 397 713 450 785 q 343 505 343 641 q 397 297 343 369 q 552 225 450 225 q 708 297 654 225 q 762 505 762 369 m 397 1099 q 311 1132 346 1099 q 276 1213 276 1166 q 311 1294 276 1261 q 397 1328 346 1328 q 480 1294 445 1328 q 515 1213 515 1261 q 480 1132 515 1166 q 397 1099 445 1099 m 710 1099 q 625 1132 660 1099 q 590 1213 590 1166 q 625 1294 590 1261 q 710 1328 660 1328 q 794 1294 759 1328 q 829 1213 829 1261 q 794 1132 829 1166 q 710 1099 759 1099 z "},"Ɵ":{"ha":1105,"x_min":61,"x_max":1044,"o":"m 1044 505 q 978 221 1044 336 q 801 46 912 105 q 552 -14 690 -14 q 303 46 414 -14 q 127 222 192 106 q 61 505 61 337 q 127 789 61 674 q 303 964 192 905 q 552 1024 414 1024 q 801 964 690 1024 q 978 789 912 905 q 1044 505 1044 674 m 756 584 q 690 734 742 682 q 552 785 639 785 q 415 734 466 785 q 349 584 363 682 l 756 584 m 552 225 q 690 276 639 225 q 756 426 742 328 l 349 426 q 415 276 363 328 q 552 225 466 225 z "},"Ө":{"ha":1105,"x_min":61,"x_max":1044,"o":"m 1044 505 q 978 221 1044 336 q 801 46 912 105 q 552 -14 690 -14 q 303 46 414 -14 q 127 222 192 106 q 61 505 61 337 q 127 789 61 674 q 303 964 192 905 q 552 1024 414 1024 q 801 964 690 1024 q 978 789 912 905 q 1044 505 1044 674 m 756 584 q 690 734 742 682 q 552 785 639 785 q 415 734 466 785 q 349 584 363 682 l 756 584 m 552 225 q 690 276 639 225 q 756 426 742 328 l 349 426 q 415 276 363 328 q 552 225 466 225 z "},"Ӫ":{"ha":1105,"x_min":61,"x_max":1044,"o":"m 1044 505 q 978 221 1044 336 q 801 46 912 105 q 552 -14 690 -14 q 303 46 414 -14 q 127 222 192 106 q 61 505 61 337 q 127 789 61 674 q 303 964 192 905 q 552 1024 414 1024 q 801 964 690 1024 q 978 789 912 905 q 1044 505 1044 674 m 756 584 q 690 734 742 682 q 552 785 639 785 q 415 734 466 785 q 349 584 363 682 l 756 584 m 552 225 q 690 276 639 225 q 756 426 742 328 l 349 426 q 415 276 363 328 q 552 225 466 225 m 397 1099 q 311 1132 346 1099 q 276 1213 276 1166 q 311 1294 276 1261 q 397 1328 346 1328 q 480 1294 445 1328 q 515 1213 515 1261 q 480 1132 515 1166 q 397 1099 445 1099 m 710 1099 q 625 1132 660 1099 q 590 1213 590 1166 q 625 1294 590 1261 q 710 1328 660 1328 q 794 1294 759 1328 q 829 1213 829 1261 q 794 1132 829 1166 q 710 1099 759 1099 z "},"Œ":{"ha":1474,"x_min":61,"x_max":1403,"o":"m 529 0 q 292 54 399 0 q 124 220 186 109 q 61 503 61 331 q 124 788 61 676 q 292 955 186 901 q 529 1010 399 1010 l 1403 1010 l 1403 789 l 949 789 l 949 616 l 1365 616 l 1365 395 l 949 395 l 949 221 l 1401 221 l 1401 0 l 529 0 m 675 221 l 675 789 l 529 789 q 432 764 474 789 q 364 676 389 738 q 339 503 339 614 q 364 330 339 392 q 432 245 389 269 q 529 221 474 221 l 675 221 z "},"P":{"ha":911,"x_min":65,"x_max":876,"o":"m 65 0 l 65 1010 l 501 1010 q 698 966 614 1010 q 829 841 782 921 q 876 653 876 761 q 828 465 876 545 q 693 343 780 386 q 491 300 607 300 l 339 300 l 339 0 l 65 0 m 339 513 l 436 513 q 549 551 508 513 q 590 653 590 588 q 549 755 590 718 q 436 791 508 791 l 339 791 l 339 513 z "},"Ṕ":{"ha":911,"x_min":65,"x_max":876,"o":"m 65 0 l 65 1010 l 501 1010 q 698 966 614 1010 q 829 841 782 921 q 876 653 876 761 q 828 465 876 545 q 693 343 780 386 q 491 300 607 300 l 339 300 l 339 0 l 65 0 m 339 513 l 436 513 q 549 551 508 513 q 590 653 590 588 q 549 755 590 718 q 436 791 508 791 l 339 791 l 339 513 m 355 1105 l 450 1326 l 683 1326 l 535 1105 l 355 1105 z "},"Ṗ":{"ha":911,"x_min":65,"x_max":876,"o":"m 65 0 l 65 1010 l 501 1010 q 698 966 614 1010 q 829 841 782 921 q 876 653 876 761 q 828 465 876 545 q 693 343 780 386 q 491 300 607 300 l 339 300 l 339 0 l 65 0 m 339 513 l 436 513 q 549 551 508 513 q 590 653 590 588 q 549 755 590 718 q 436 791 508 791 l 339 791 l 339 513 m 446 1089 q 351 1126 391 1089 q 312 1213 312 1162 q 351 1301 312 1265 q 446 1338 391 1338 q 541 1301 502 1338 q 580 1213 580 1265 q 541 1126 580 1162 q 446 1089 502 1089 z "},"Ҏ":{"ha":943,"x_min":73,"x_max":884,"o":"m 73 0 l 73 1010 l 509 1010 q 706 966 621 1010 q 837 841 790 921 q 884 653 884 761 q 835 464 884 544 q 699 342 785 384 l 765 239 l 677 182 l 595 308 q 499 300 549 300 l 347 300 l 347 0 l 73 0 m 485 673 l 561 555 q 598 653 598 592 q 557 755 598 718 q 444 791 516 791 l 347 791 l 347 513 l 444 513 q 462 513 453 513 l 397 616 l 485 673 z "},"Ƥ":{"ha":1247,"x_min":37,"x_max":1211,"o":"m 278 590 l 37 590 l 37 710 q 131 932 37 854 q 385 1010 226 1010 l 836 1010 q 1033 966 949 1010 q 1164 841 1118 921 q 1211 653 1211 761 q 1163 465 1211 545 q 1029 343 1115 386 q 827 300 942 300 l 675 300 l 675 0 l 400 0 l 400 791 l 385 791 q 319 771 343 791 q 287 722 296 752 q 278 663 278 692 l 278 590 m 675 513 l 771 513 q 884 551 843 513 q 925 653 925 588 q 884 755 925 718 q 771 791 843 791 l 675 791 l 675 513 z "},"Ρ":{"ha":911,"x_min":65,"x_max":876,"o":"m 65 0 l 65 1010 l 501 1010 q 698 966 614 1010 q 829 841 782 921 q 876 653 876 761 q 828 465 876 545 q 693 343 780 386 q 491 300 607 300 l 339 300 l 339 0 l 65 0 m 339 513 l 436 513 q 549 551 508 513 q 590 653 590 588 q 549 755 590 718 q 436 791 508 791 l 339 791 l 339 513 z "},"Ῥ":{"ha":1154,"x_min":73,"x_max":1091,"o":"m 280 0 l 280 1010 l 716 1010 q 913 966 829 1010 q 1044 841 997 921 q 1091 653 1091 761 q 1043 465 1091 545 q 908 343 995 386 q 706 300 822 300 l 554 300 l 554 0 l 280 0 m 554 513 l 651 513 q 764 551 723 513 q 805 653 805 588 q 764 755 805 718 q 651 791 723 791 l 554 791 l 554 513 m 73 939 l 73 1010 l 191 1010 l 191 943 q 201 887 192 916 q 243 840 210 857 l 182 765 q 107 828 140 783 q 73 939 74 872 z "},"Q":{"ha":1107,"x_min":61,"x_max":1046,"o":"m 1044 505 q 1003 275 1044 374 q 892 110 962 177 l 1046 -75 l 803 -75 l 727 13 q 552 -14 646 -14 q 303 46 414 -14 q 127 222 192 106 q 61 505 61 337 q 127 789 61 674 q 303 964 192 905 q 552 1024 414 1024 q 801 964 690 1024 q 978 789 912 905 q 1044 505 1044 674 m 456 375 l 669 375 l 719 312 q 762 505 762 383 q 708 713 762 641 q 552 785 654 785 q 397 713 450 785 q 343 505 343 641 q 397 297 343 369 q 552 225 450 225 q 569 225 561 225 l 456 375 z "},"R":{"ha":927,"x_min":65,"x_max":909,"o":"m 65 0 l 65 1010 l 501 1010 q 698 969 614 1010 q 829 851 782 928 q 876 667 876 774 q 830 489 876 562 q 704 377 785 416 l 909 0 l 612 0 l 434 333 l 339 333 l 339 0 l 65 0 m 339 546 l 436 546 q 549 574 508 546 q 590 667 590 602 q 549 762 590 732 q 436 791 508 791 l 339 791 l 339 546 z "},"Ŕ":{"ha":927,"x_min":65,"x_max":909,"o":"m 65 0 l 65 1010 l 501 1010 q 698 969 614 1010 q 829 851 782 928 q 876 667 876 774 q 830 489 876 562 q 704 377 785 416 l 909 0 l 612 0 l 434 333 l 339 333 l 339 0 l 65 0 m 339 546 l 436 546 q 549 574 508 546 q 590 667 590 602 q 549 762 590 732 q 436 791 508 791 l 339 791 l 339 546 m 367 1105 l 462 1326 l 694 1326 l 546 1105 l 367 1105 z "},"Ŗ":{"ha":927,"x_min":65,"x_max":909,"o":"m 65 0 l 65 1010 l 501 1010 q 698 969 614 1010 q 829 851 782 928 q 876 667 876 774 q 830 489 876 562 q 704 377 785 416 l 909 0 l 612 0 l 434 333 l 339 333 l 339 0 l 65 0 m 339 546 l 436 546 q 549 574 508 546 q 590 667 590 602 q 549 762 590 732 q 436 791 508 791 l 339 791 l 339 546 m 289 -316 l 354 -80 l 599 -80 l 474 -316 l 289 -316 z "},"Ř":{"ha":927,"x_min":65,"x_max":909,"o":"m 65 0 l 65 1010 l 501 1010 q 698 969 614 1010 q 829 851 782 928 q 876 667 876 774 q 830 489 876 562 q 704 377 785 416 l 909 0 l 612 0 l 434 333 l 339 333 l 339 0 l 65 0 m 339 546 l 436 546 q 549 574 508 546 q 590 667 590 602 q 549 762 590 732 q 436 791 508 791 l 339 791 l 339 546 m 361 1332 l 458 1223 l 554 1332 l 779 1332 l 779 1326 l 552 1101 l 363 1101 l 136 1326 l 136 1332 l 361 1332 z "},"Ȑ":{"ha":927,"x_min":65,"x_max":909,"o":"m 65 0 l 65 1010 l 501 1010 q 698 969 614 1010 q 829 851 782 928 q 876 667 876 774 q 830 489 876 562 q 704 377 785 416 l 909 0 l 612 0 l 434 333 l 339 333 l 339 0 l 65 0 m 339 546 l 436 546 q 549 574 508 546 q 590 667 590 602 q 549 762 590 732 q 436 791 508 791 l 339 791 l 339 546 m 244 1105 l 96 1326 l 328 1326 l 423 1105 l 244 1105 m 511 1105 l 415 1326 l 635 1326 l 686 1105 l 511 1105 z "},"Ȓ":{"ha":927,"x_min":65,"x_max":909,"o":"m 65 0 l 65 1010 l 501 1010 q 698 969 614 1010 q 829 851 782 928 q 876 667 876 774 q 830 489 876 562 q 704 377 785 416 l 909 0 l 612 0 l 434 333 l 339 333 l 339 0 l 65 0 m 339 546 l 436 546 q 549 574 508 546 q 590 667 590 602 q 549 762 590 732 q 436 791 508 791 l 339 791 l 339 546 m 185 1128 q 258 1286 185 1225 q 456 1347 331 1347 q 654 1286 580 1347 q 728 1128 727 1225 l 556 1128 q 533 1184 556 1160 q 456 1209 510 1209 q 379 1184 402 1209 q 357 1128 357 1160 l 185 1128 z "},"Ṙ":{"ha":927,"x_min":65,"x_max":909,"o":"m 65 0 l 65 1010 l 501 1010 q 698 969 614 1010 q 829 851 782 928 q 876 667 876 774 q 830 489 876 562 q 704 377 785 416 l 909 0 l 612 0 l 434 333 l 339 333 l 339 0 l 65 0 m 339 546 l 436 546 q 549 574 508 546 q 590 667 590 602 q 549 762 590 732 q 436 791 508 791 l 339 791 l 339 546 m 458 1089 q 363 1126 402 1089 q 324 1213 324 1162 q 363 1301 324 1265 q 458 1338 402 1338 q 553 1301 513 1338 q 592 1213 592 1265 q 553 1126 592 1162 q 458 1089 513 1089 z "},"Ṛ":{"ha":927,"x_min":65,"x_max":909,"o":"m 65 0 l 65 1010 l 501 1010 q 698 969 614 1010 q 829 851 782 928 q 876 667 876 774 q 830 489 876 562 q 704 377 785 416 l 909 0 l 612 0 l 434 333 l 339 333 l 339 0 l 65 0 m 339 546 l 436 546 q 549 574 508 546 q 590 667 590 602 q 549 762 590 732 q 436 791 508 791 l 339 791 l 339 546 m 473 -306 q 379 -269 418 -306 q 339 -182 339 -233 q 379 -94 339 -130 q 473 -57 418 -57 q 568 -94 529 -57 q 608 -182 608 -130 q 568 -269 608 -233 q 473 -306 529 -306 z "},"Ṝ":{"ha":927,"x_min":65,"x_max":909,"o":"m 65 0 l 65 1010 l 501 1010 q 698 969 614 1010 q 829 851 782 928 q 876 667 876 774 q 830 489 876 562 q 704 377 785 416 l 909 0 l 612 0 l 434 333 l 339 333 l 339 0 l 65 0 m 339 546 l 436 546 q 549 574 508 546 q 590 667 590 602 q 549 762 590 732 q 436 791 508 791 l 339 791 l 339 546 m 473 -306 q 379 -269 418 -306 q 339 -182 339 -233 q 379 -94 339 -130 q 473 -57 418 -57 q 568 -94 529 -57 q 608 -182 608 -130 q 568 -269 608 -233 q 473 -306 529 -306 m 704 1263 l 704 1138 l 211 1138 l 211 1263 l 704 1263 z "},"Ṟ":{"ha":927,"x_min":65,"x_max":909,"o":"m 65 0 l 65 1010 l 501 1010 q 698 969 614 1010 q 829 851 782 928 q 876 667 876 774 q 830 489 876 562 q 704 377 785 416 l 909 0 l 612 0 l 434 333 l 339 333 l 339 0 l 65 0 m 339 546 l 436 546 q 549 574 508 546 q 590 667 590 602 q 549 762 590 732 q 436 791 508 791 l 339 791 l 339 546 m 720 -127 l 720 -252 l 227 -252 l 227 -127 l 720 -127 z "},"℟":{"ha":941,"x_min":71,"x_max":915,"o":"m 633 1158 l 606 1001 q 807 890 732 977 q 882 667 882 803 q 836 489 882 562 q 710 377 791 416 l 915 0 l 618 0 l 478 262 l 389 -254 l 308 -247 l 410 333 l 345 333 l 345 0 l 71 0 l 71 1010 l 507 1010 q 530 1010 519 1010 l 546 1103 l 327 1146 l 345 1219 l 633 1158 m 491 787 q 442 791 469 791 l 345 791 l 345 546 l 442 546 q 448 546 445 546 l 491 787 m 563 754 l 530 560 q 596 667 596 587 q 563 754 596 724 z "},"℞":{"ha":1140,"x_min":65,"x_max":1067,"o":"m 65 1010 l 489 1010 q 777 930 676 1010 q 878 692 878 849 q 842 539 878 601 q 750 436 805 476 l 802 364 l 876 466 l 1026 466 l 878 259 l 1067 0 l 854 0 l 773 112 l 692 0 l 537 0 l 696 219 l 593 363 l 339 363 l 339 0 l 65 0 l 65 1010 m 339 580 l 493 580 q 570 603 535 580 q 606 685 606 625 q 588 749 606 726 q 544 780 571 771 q 489 789 517 789 l 339 789 l 339 580 z "},"Ɍ":{"ha":965,"x_min":8,"x_max":939,"o":"m 95 0 l 95 357 l 8 357 l 8 550 l 95 550 l 95 1010 l 531 1010 q 727 969 643 1010 q 859 851 812 928 q 906 667 906 774 q 860 489 906 562 q 734 377 814 416 l 939 0 l 641 0 l 464 333 l 369 333 l 369 0 l 95 0 m 369 546 l 466 546 q 579 574 538 546 q 619 667 619 602 q 579 762 619 732 q 466 791 538 791 l 369 791 l 369 546 z "},"S":{"ha":925,"x_min":39,"x_max":886,"o":"m 610 694 q 573 771 606 744 q 473 799 540 799 q 381 777 410 799 q 351 722 352 756 q 382 663 349 686 q 487 625 416 641 l 570 608 q 811 492 737 572 q 886 298 885 413 q 776 68 885 148 q 475 -12 667 -12 q 246 27 344 -12 q 94 147 148 66 q 39 355 40 228 l 300 355 q 348 249 303 286 q 472 213 393 213 q 571 237 538 213 q 606 298 605 260 q 572 355 605 332 q 454 397 538 378 l 353 418 q 142 516 219 447 q 65 702 65 584 q 117 871 65 799 q 261 983 169 943 q 473 1024 354 1024 q 685 983 596 1024 q 823 868 774 942 q 872 694 872 794 l 610 694 z "},"Ś":{"ha":925,"x_min":39,"x_max":886,"o":"m 610 694 q 573 771 606 744 q 473 799 540 799 q 381 777 410 799 q 351 722 352 756 q 382 663 349 686 q 487 625 416 641 l 570 608 q 811 492 737 572 q 886 298 885 413 q 776 68 885 148 q 475 -12 667 -12 q 246 27 344 -12 q 94 147 148 66 q 39 355 40 228 l 300 355 q 348 249 303 286 q 472 213 393 213 q 571 237 538 213 q 606 298 605 260 q 572 355 605 332 q 454 397 538 378 l 353 418 q 142 516 219 447 q 65 702 65 584 q 117 871 65 799 q 261 983 169 943 q 473 1024 354 1024 q 685 983 596 1024 q 823 868 774 942 q 872 694 872 794 l 610 694 m 373 1105 l 468 1326 l 700 1326 l 552 1105 l 373 1105 z "},"Ŝ":{"ha":925,"x_min":39,"x_max":886,"o":"m 610 694 q 573 771 606 744 q 473 799 540 799 q 381 777 410 799 q 351 722 352 756 q 382 663 349 686 q 487 625 416 641 l 570 608 q 811 492 737 572 q 886 298 885 413 q 776 68 885 148 q 475 -12 667 -12 q 246 27 344 -12 q 94 147 148 66 q 39 355 40 228 l 300 355 q 348 249 303 286 q 472 213 393 213 q 571 237 538 213 q 606 298 605 260 q 572 355 605 332 q 454 397 538 378 l 353 418 q 142 516 219 447 q 65 702 65 584 q 117 871 65 799 q 261 983 169 943 q 473 1024 354 1024 q 685 983 596 1024 q 823 868 774 942 q 872 694 872 794 l 610 694 m 560 1101 l 464 1209 l 367 1101 l 142 1101 l 142 1107 l 369 1332 l 558 1332 l 785 1107 l 785 1101 l 560 1101 z "},"Ş":{"ha":925,"x_min":39,"x_max":886,"o":"m 610 694 q 573 771 606 744 q 473 799 540 799 q 381 777 410 799 q 351 722 352 756 q 382 663 349 686 q 487 625 416 641 l 570 608 q 811 492 737 572 q 886 298 885 413 q 776 68 885 148 q 475 -12 667 -12 q 246 27 344 -12 q 94 147 148 66 q 39 355 40 228 l 300 355 q 348 249 303 286 q 472 213 393 213 q 571 237 538 213 q 606 298 605 260 q 572 355 605 332 q 454 397 538 378 l 353 418 q 142 516 219 447 q 65 702 65 584 q 117 871 65 799 q 261 983 169 943 q 473 1024 354 1024 q 685 983 596 1024 q 823 868 774 942 q 872 694 872 794 l 610 694 m 418 4 l 515 4 l 507 -41 q 598 -83 566 -50 q 631 -164 631 -115 q 553 -290 632 -244 q 335 -335 474 -335 l 335 -231 q 487 -170 483 -231 q 395 -99 491 -113 l 418 4 z "},"Š":{"ha":925,"x_min":39,"x_max":886,"o":"m 610 694 q 573 771 606 744 q 473 799 540 799 q 381 777 410 799 q 351 722 352 756 q 382 663 349 686 q 487 625 416 641 l 570 608 q 811 492 737 572 q 886 298 885 413 q 776 68 885 148 q 475 -12 667 -12 q 246 27 344 -12 q 94 147 148 66 q 39 355 40 228 l 300 355 q 348 249 303 286 q 472 213 393 213 q 571 237 538 213 q 606 298 605 260 q 572 355 605 332 q 454 397 538 378 l 353 418 q 142 516 219 447 q 65 702 65 584 q 117 871 65 799 q 261 983 169 943 q 473 1024 354 1024 q 685 983 596 1024 q 823 868 774 942 q 872 694 872 794 l 610 694 m 367 1332 l 464 1223 l 560 1332 l 785 1332 l 785 1326 l 558 1101 l 369 1101 l 142 1326 l 142 1332 l 367 1332 z "},"Ș":{"ha":925,"x_min":39,"x_max":886,"o":"m 610 694 q 573 771 606 744 q 473 799 540 799 q 381 777 410 799 q 351 722 352 756 q 382 663 349 686 q 487 625 416 641 l 570 608 q 811 492 737 572 q 886 298 885 413 q 776 68 885 148 q 475 -12 667 -12 q 246 27 344 -12 q 94 147 148 66 q 39 355 40 228 l 300 355 q 348 249 303 286 q 472 213 393 213 q 571 237 538 213 q 606 298 605 260 q 572 355 605 332 q 454 397 538 378 l 353 418 q 142 516 219 447 q 65 702 65 584 q 117 871 65 799 q 261 983 169 943 q 473 1024 354 1024 q 685 983 596 1024 q 823 868 774 942 q 872 694 872 794 l 610 694 m 283 -316 l 348 -80 l 593 -80 l 469 -316 l 283 -316 z "},"Ṡ":{"ha":925,"x_min":39,"x_max":886,"o":"m 610 694 q 573 771 606 744 q 473 799 540 799 q 381 777 410 799 q 351 722 352 756 q 382 663 349 686 q 487 625 416 641 l 570 608 q 811 492 737 572 q 886 298 885 413 q 776 68 885 148 q 475 -12 667 -12 q 246 27 344 -12 q 94 147 148 66 q 39 355 40 228 l 300 355 q 348 249 303 286 q 472 213 393 213 q 571 237 538 213 q 606 298 605 260 q 572 355 605 332 q 454 397 538 378 l 353 418 q 142 516 219 447 q 65 702 65 584 q 117 871 65 799 q 261 983 169 943 q 473 1024 354 1024 q 685 983 596 1024 q 823 868 774 942 q 872 694 872 794 l 610 694 m 464 1089 q 369 1126 408 1089 q 329 1213 329 1162 q 369 1301 329 1265 q 464 1338 408 1338 q 559 1301 519 1338 q 598 1213 598 1265 q 559 1126 598 1162 q 464 1089 519 1089 z "},"Ṣ":{"ha":925,"x_min":39,"x_max":886,"o":"m 610 694 q 573 771 606 744 q 473 799 540 799 q 381 777 410 799 q 351 722 352 756 q 382 663 349 686 q 487 625 416 641 l 570 608 q 811 492 737 572 q 886 298 885 413 q 776 68 885 148 q 475 -12 667 -12 q 246 27 344 -12 q 94 147 148 66 q 39 355 40 228 l 300 355 q 348 249 303 286 q 472 213 393 213 q 571 237 538 213 q 606 298 605 260 q 572 355 605 332 q 454 397 538 378 l 353 418 q 142 516 219 447 q 65 702 65 584 q 117 871 65 799 q 261 983 169 943 q 473 1024 354 1024 q 685 983 596 1024 q 823 868 774 942 q 872 694 872 794 l 610 694 m 468 -306 q 373 -269 412 -306 q 333 -182 333 -233 q 373 -94 333 -130 q 468 -57 412 -57 q 563 -94 523 -57 q 602 -182 602 -130 q 563 -269 602 -233 q 468 -306 523 -306 z "},"Ṥ":{"ha":925,"x_min":39,"x_max":886,"o":"m 610 694 q 573 771 606 744 q 473 799 540 799 q 381 777 410 799 q 351 722 352 756 q 382 663 349 686 q 487 625 416 641 l 570 608 q 811 492 737 572 q 886 298 885 413 q 776 68 885 148 q 475 -12 667 -12 q 246 27 344 -12 q 94 147 148 66 q 39 355 40 228 l 300 355 q 348 249 303 286 q 472 213 393 213 q 571 237 538 213 q 606 298 605 260 q 572 355 605 332 q 454 397 538 378 l 353 418 q 142 516 219 447 q 65 702 65 584 q 117 871 65 799 q 261 983 169 943 q 473 1024 354 1024 q 685 983 596 1024 q 823 868 774 942 q 872 694 872 794 l 610 694 m 201 1243 q 233 1303 202 1278 q 308 1328 263 1328 q 385 1303 355 1328 q 414 1243 415 1278 q 385 1183 415 1207 q 308 1158 355 1158 q 233 1183 263 1158 q 201 1243 202 1207 m 410 1103 l 513 1272 l 669 1272 l 533 1103 l 410 1103 z "},"Ṧ":{"ha":925,"x_min":39,"x_max":886,"o":"m 610 694 q 573 771 606 744 q 473 799 540 799 q 381 777 410 799 q 351 722 352 756 q 382 663 349 686 q 487 625 416 641 l 570 608 q 811 492 737 572 q 886 298 885 413 q 776 68 885 148 q 475 -12 667 -12 q 246 27 344 -12 q 94 147 148 66 q 39 355 40 228 l 300 355 q 348 249 303 286 q 472 213 393 213 q 571 237 538 213 q 606 298 605 260 q 572 355 605 332 q 454 397 538 378 l 353 418 q 142 516 219 447 q 65 702 65 584 q 117 871 65 799 q 261 983 169 943 q 473 1024 354 1024 q 685 983 596 1024 q 823 868 774 942 q 872 694 872 794 l 610 694 m 379 1310 l 466 1239 l 552 1310 l 769 1310 l 769 1298 l 558 1136 l 375 1136 l 160 1302 l 160 1310 l 379 1310 m 357 1430 q 387 1490 357 1466 q 464 1515 418 1515 q 540 1490 509 1515 q 570 1430 570 1466 q 540 1371 570 1395 q 464 1347 509 1347 q 387 1371 418 1347 q 357 1430 357 1395 z "},"Ṩ":{"ha":925,"x_min":39,"x_max":886,"o":"m 610 694 q 573 771 606 744 q 473 799 540 799 q 381 777 410 799 q 351 722 352 756 q 382 663 349 686 q 487 625 416 641 l 570 608 q 811 492 737 572 q 886 298 885 413 q 776 68 885 148 q 475 -12 667 -12 q 246 27 344 -12 q 94 147 148 66 q 39 355 40 228 l 300 355 q 348 249 303 286 q 472 213 393 213 q 571 237 538 213 q 606 298 605 260 q 572 355 605 332 q 454 397 538 378 l 353 418 q 142 516 219 447 q 65 702 65 584 q 117 871 65 799 q 261 983 169 943 q 473 1024 354 1024 q 685 983 596 1024 q 823 868 774 942 q 872 694 872 794 l 610 694 m 468 -306 q 373 -269 412 -306 q 333 -182 333 -233 q 373 -94 333 -130 q 468 -57 412 -57 q 563 -94 523 -57 q 602 -182 602 -130 q 563 -269 602 -233 q 468 -306 523 -306 m 464 1089 q 369 1126 408 1089 q 329 1213 329 1162 q 369 1301 329 1265 q 464 1338 408 1338 q 559 1301 519 1338 q 598 1213 598 1265 q 559 1126 598 1162 q 464 1089 519 1089 z "},"Ѕ":{"ha":925,"x_min":39,"x_max":886,"o":"m 610 694 q 573 771 606 744 q 473 799 540 799 q 381 777 410 799 q 351 722 352 756 q 382 663 349 686 q 487 625 416 641 l 570 608 q 811 492 737 572 q 886 298 885 413 q 776 68 885 148 q 475 -12 667 -12 q 246 27 344 -12 q 94 147 148 66 q 39 355 40 228 l 300 355 q 348 249 303 286 q 472 213 393 213 q 571 237 538 213 q 606 298 605 260 q 572 355 605 332 q 454 397 538 378 l 353 418 q 142 516 219 447 q 65 702 65 584 q 117 871 65 799 q 261 983 169 943 q 473 1024 354 1024 q 685 983 596 1024 q 823 868 774 942 q 872 694 872 794 l 610 694 z "},"Ƨ":{"ha":925,"x_min":39,"x_max":886,"o":"m 316 694 l 53 694 q 102 868 54 794 q 240 983 151 942 q 452 1024 329 1024 q 664 983 572 1024 q 809 871 757 943 q 860 702 861 799 q 783 516 861 584 q 572 418 706 447 l 472 397 q 354 355 387 378 q 320 298 321 332 q 354 237 321 260 q 454 213 388 213 q 577 249 533 213 q 625 355 622 286 l 886 355 q 831 147 885 228 q 679 27 777 66 q 450 -12 581 -12 q 149 68 258 -12 q 39 298 40 148 q 114 492 40 413 q 355 608 188 572 l 438 625 q 543 663 510 641 q 574 722 576 686 q 545 777 574 756 q 452 799 515 799 q 352 771 385 799 q 316 694 320 744 z "},"ẞ":{"ha":1028,"x_min":65,"x_max":988,"o":"m 65 0 l 65 661 q 115 849 65 767 q 252 978 164 931 q 454 1024 340 1024 q 616 1000 527 1024 q 795 933 705 976 q 959 835 884 890 l 734 592 q 866 535 808 578 q 956 431 923 492 q 988 298 988 369 q 941 136 988 207 q 809 26 893 66 q 616 -14 725 -14 q 485 -1 554 -14 q 371 32 417 12 l 442 225 q 590 193 521 193 q 694 221 656 193 q 732 298 732 249 q 685 405 732 366 q 554 444 637 444 l 466 444 l 466 586 l 639 754 q 555 799 604 782 q 454 815 505 815 q 370 774 400 815 q 339 661 339 733 l 339 0 l 65 0 z "},"T":{"ha":953,"x_min":37,"x_max":915,"o":"m 37 789 l 37 1010 l 915 1010 l 915 789 l 612 789 l 612 0 l 341 0 l 341 789 l 37 789 z "},"Ţ":{"ha":953,"x_min":37,"x_max":915,"o":"m 37 789 l 37 1010 l 915 1010 l 915 789 l 612 789 l 612 0 l 341 0 l 341 789 l 37 789 m 424 4 l 521 4 l 513 -41 q 604 -83 572 -50 q 637 -164 637 -115 q 559 -290 638 -244 q 341 -335 480 -335 l 341 -231 q 493 -170 489 -231 q 400 -99 497 -113 l 424 4 z "},"Ť":{"ha":953,"x_min":37,"x_max":915,"o":"m 37 789 l 37 1010 l 915 1010 l 915 789 l 612 789 l 612 0 l 341 0 l 341 789 l 37 789 m 381 1332 l 477 1223 l 574 1332 l 799 1332 l 799 1326 l 572 1101 l 383 1101 l 156 1326 l 156 1332 l 381 1332 z "},"Ț":{"ha":953,"x_min":37,"x_max":915,"o":"m 37 789 l 37 1010 l 915 1010 l 915 789 l 612 789 l 612 0 l 341 0 l 341 789 l 37 789 m 291 -316 l 356 -80 l 601 -80 l 476 -316 l 291 -316 z "},"Ṫ":{"ha":953,"x_min":37,"x_max":915,"o":"m 37 789 l 37 1010 l 915 1010 l 915 789 l 612 789 l 612 0 l 341 0 l 341 789 l 37 789 m 477 1089 q 383 1126 422 1089 q 343 1213 343 1162 q 383 1301 343 1265 q 477 1338 422 1338 q 572 1301 533 1338 q 612 1213 612 1265 q 572 1126 612 1162 q 477 1089 533 1089 z "},"Ṭ":{"ha":953,"x_min":37,"x_max":915,"o":"m 37 789 l 37 1010 l 915 1010 l 915 789 l 612 789 l 612 0 l 341 0 l 341 789 l 37 789 m 475 -306 q 381 -269 420 -306 q 341 -182 341 -233 q 381 -94 341 -130 q 475 -57 420 -57 q 570 -94 531 -57 q 610 -182 610 -130 q 570 -269 610 -233 q 475 -306 531 -306 z "},"Ṯ":{"ha":953,"x_min":37,"x_max":915,"o":"m 37 789 l 37 1010 l 915 1010 l 915 789 l 612 789 l 612 0 l 341 0 l 341 789 l 37 789 m 722 -127 l 722 -252 l 229 -252 l 229 -127 l 722 -127 z "},"Ṱ":{"ha":953,"x_min":37,"x_max":915,"o":"m 37 789 l 37 1010 l 915 1010 l 915 789 l 612 789 l 612 0 l 341 0 l 341 789 l 37 789 m 572 -294 l 475 -185 l 379 -294 l 154 -294 l 154 -288 l 381 -63 l 570 -63 l 797 -288 l 797 -294 l 572 -294 z "},"Ƭ":{"ha":996,"x_min":37,"x_max":959,"o":"m 959 1010 l 959 789 l 655 789 l 655 0 l 385 0 l 385 789 l 365 789 q 297 770 320 789 q 266 720 274 750 q 258 659 258 690 l 258 586 l 37 586 l 37 708 q 120 930 37 850 q 365 1010 203 1010 l 959 1010 z "},"Ʈ":{"ha":953,"x_min":37,"x_max":915,"o":"m 37 789 l 37 1010 l 915 1010 l 915 789 l 612 789 l 612 -24 q 644 -69 612 -58 q 712 -81 676 -81 l 758 -81 l 758 -284 l 639 -284 q 532 -276 585 -284 q 436 -242 479 -268 q 367 -164 393 -217 q 341 -22 341 -111 l 341 789 l 37 789 z "},"Ⱦ":{"ha":953,"x_min":37,"x_max":915,"o":"m 235 -128 l 341 224 l 341 789 l 37 789 l 37 1010 l 579 1010 l 618 1138 l 758 1138 l 719 1010 l 915 1010 l 915 789 l 652 789 l 612 655 l 612 0 l 414 0 l 375 -128 l 235 -128 z "},"Τ":{"ha":953,"x_min":37,"x_max":915,"o":"m 37 789 l 37 1010 l 915 1010 l 915 789 l 612 789 l 612 0 l 341 0 l 341 789 l 37 789 z "},"U":{"ha":1002,"x_min":65,"x_max":937,"o":"m 663 1010 l 937 1010 l 937 363 q 882 164 937 248 q 729 34 827 79 q 501 -12 631 -12 q 272 34 370 -12 q 120 164 174 79 q 65 363 65 248 l 65 1010 l 339 1010 l 339 387 q 385 271 339 316 q 501 225 431 225 q 617 271 572 225 q 663 387 663 316 l 663 1010 z "},"Ư":{"ha":1213,"x_min":65,"x_max":1176,"o":"m 1026 1030 l 1176 1030 q 1156 866 1176 937 q 1084 753 1135 796 q 937 698 1032 710 l 937 363 q 882 164 937 248 q 729 34 827 79 q 501 -12 631 -12 q 272 34 370 -12 q 120 164 174 79 q 65 363 65 248 l 65 1010 l 339 1010 l 339 387 q 385 271 339 316 q 501 225 431 225 q 617 271 572 225 q 663 387 663 316 l 663 1010 l 937 1010 l 937 822 q 1000 861 981 834 q 1022 931 1018 889 q 1026 1025 1026 973 q 1026 1030 1026 1028 z "},"Ù":{"ha":1002,"x_min":65,"x_max":937,"o":"m 663 1010 l 937 1010 l 937 363 q 882 164 937 248 q 729 34 827 79 q 501 -12 631 -12 q 272 34 370 -12 q 120 164 174 79 q 65 363 65 248 l 65 1010 l 339 1010 l 339 387 q 385 271 339 316 q 501 225 431 225 q 617 271 572 225 q 663 387 663 316 l 663 1010 m 412 1105 l 264 1326 l 497 1326 l 592 1105 l 412 1105 z "},"Ú":{"ha":1002,"x_min":65,"x_max":937,"o":"m 663 1010 l 937 1010 l 937 363 q 882 164 937 248 q 729 34 827 79 q 501 -12 631 -12 q 272 34 370 -12 q 120 164 174 79 q 65 363 65 248 l 65 1010 l 339 1010 l 339 387 q 385 271 339 316 q 501 225 431 225 q 617 271 572 225 q 663 387 663 316 l 663 1010 m 410 1105 l 505 1326 l 738 1326 l 590 1105 l 410 1105 z "},"Û":{"ha":1002,"x_min":65,"x_max":937,"o":"m 663 1010 l 937 1010 l 937 363 q 882 164 937 248 q 729 34 827 79 q 501 -12 631 -12 q 272 34 370 -12 q 120 164 174 79 q 65 363 65 248 l 65 1010 l 339 1010 l 339 387 q 385 271 339 316 q 501 225 431 225 q 617 271 572 225 q 663 387 663 316 l 663 1010 m 598 1101 l 501 1209 l 404 1101 l 180 1101 l 180 1107 l 406 1332 l 596 1332 l 823 1107 l 823 1101 l 598 1101 z "},"Ü":{"ha":1002,"x_min":65,"x_max":937,"o":"m 663 1010 l 937 1010 l 937 363 q 882 164 937 248 q 729 34 827 79 q 501 -12 631 -12 q 272 34 370 -12 q 120 164 174 79 q 65 363 65 248 l 65 1010 l 339 1010 l 339 387 q 385 271 339 316 q 501 225 431 225 q 617 271 572 225 q 663 387 663 316 l 663 1010 m 345 1099 q 260 1132 295 1099 q 225 1213 225 1166 q 260 1294 225 1261 q 345 1328 295 1328 q 429 1294 394 1328 q 464 1213 464 1261 q 429 1132 464 1166 q 345 1099 394 1099 m 659 1099 q 574 1132 609 1099 q 539 1213 539 1166 q 574 1294 539 1261 q 659 1328 609 1328 q 743 1294 708 1328 q 777 1213 777 1261 q 743 1132 777 1166 q 659 1099 708 1099 z "},"Ũ":{"ha":1002,"x_min":65,"x_max":937,"o":"m 663 1010 l 937 1010 l 937 363 q 882 164 937 248 q 729 34 827 79 q 501 -12 631 -12 q 272 34 370 -12 q 120 164 174 79 q 65 363 65 248 l 65 1010 l 339 1010 l 339 387 q 385 271 339 316 q 501 225 431 225 q 617 271 572 225 q 663 387 663 316 l 663 1010 m 367 1105 l 233 1105 q 282 1263 233 1211 q 400 1316 330 1315 q 476 1299 446 1316 q 528 1264 506 1281 q 556 1244 543 1252 q 584 1235 570 1235 q 625 1256 613 1235 q 637 1312 637 1276 l 769 1312 q 719 1154 768 1207 q 602 1099 671 1100 q 527 1115 556 1098 q 476 1150 498 1132 q 447 1171 461 1162 q 418 1180 434 1180 q 367 1105 367 1180 z "},"Ū":{"ha":1002,"x_min":65,"x_max":937,"o":"m 663 1010 l 937 1010 l 937 363 q 882 164 937 248 q 729 34 827 79 q 501 -12 631 -12 q 272 34 370 -12 q 120 164 174 79 q 65 363 65 248 l 65 1010 l 339 1010 l 339 387 q 385 271 339 316 q 501 225 431 225 q 617 271 572 225 q 663 387 663 316 l 663 1010 m 748 1263 l 748 1138 l 254 1138 l 254 1263 l 748 1263 z "},"Ŭ":{"ha":1002,"x_min":65,"x_max":937,"o":"m 663 1010 l 937 1010 l 937 363 q 882 164 937 248 q 729 34 827 79 q 501 -12 631 -12 q 272 34 370 -12 q 120 164 174 79 q 65 363 65 248 l 65 1010 l 339 1010 l 339 387 q 385 271 339 316 q 501 225 431 225 q 617 271 572 225 q 663 387 663 316 l 663 1010 m 600 1282 l 771 1282 q 698 1129 771 1186 q 501 1071 625 1071 q 303 1129 376 1071 q 231 1282 230 1186 l 400 1282 q 423 1225 400 1251 q 501 1199 446 1199 q 577 1225 554 1199 q 600 1282 599 1250 z "},"Ů":{"ha":1002,"x_min":65,"x_max":937,"o":"m 663 1010 l 937 1010 l 937 363 q 882 164 937 248 q 729 34 827 79 q 501 -12 631 -12 q 272 34 370 -12 q 120 164 174 79 q 65 363 65 248 l 65 1010 l 339 1010 l 339 387 q 385 271 339 316 q 501 225 431 225 q 617 271 572 225 q 663 387 663 316 l 663 1010 m 501 1061 q 389 1106 436 1061 q 343 1213 343 1151 q 389 1321 343 1276 q 501 1365 436 1365 q 613 1321 567 1365 q 659 1213 659 1276 q 613 1106 659 1151 q 501 1061 567 1061 m 501 1154 q 545 1172 527 1155 q 564 1213 564 1189 q 546 1255 564 1238 q 501 1272 527 1273 q 457 1255 475 1272 q 438 1213 438 1238 q 456 1171 438 1189 q 501 1154 475 1154 z "},"Ű":{"ha":1002,"x_min":65,"x_max":937,"o":"m 663 1010 l 937 1010 l 937 363 q 882 164 937 248 q 729 34 827 79 q 501 -12 631 -12 q 272 34 370 -12 q 120 164 174 79 q 65 363 65 248 l 65 1010 l 339 1010 l 339 387 q 385 271 339 316 q 501 225 431 225 q 617 271 572 225 q 663 387 663 316 l 663 1010 m 256 1101 l 402 1302 l 612 1302 l 440 1101 l 256 1101 m 543 1101 l 702 1302 l 911 1302 l 722 1101 l 543 1101 z "},"Ų":{"ha":1002,"x_min":65,"x_max":937,"o":"m 663 1010 l 937 1010 l 937 363 q 882 164 937 248 q 729 34 827 79 q 501 -12 631 -12 q 272 34 370 -12 q 120 164 174 79 q 65 363 65 248 l 65 1010 l 339 1010 l 339 387 q 385 271 339 316 q 501 225 431 225 q 617 271 572 225 q 663 387 663 316 l 663 1010 m 552 -274 q 437 -240 484 -274 q 371 -144 390 -206 q 361 -58 358 -102 q 381 20 363 -14 q 426 67 398 54 l 651 0 q 578 -32 603 -15 q 552 -79 552 -49 q 565 -117 552 -104 q 598 -130 578 -130 q 620 -127 611 -130 q 639 -122 630 -124 l 671 -245 q 621 -265 651 -255 q 552 -274 592 -274 z "},"Ǔ":{"ha":1002,"x_min":65,"x_max":937,"o":"m 663 1010 l 937 1010 l 937 363 q 882 164 937 248 q 729 34 827 79 q 501 -12 631 -12 q 272 34 370 -12 q 120 164 174 79 q 65 363 65 248 l 65 1010 l 339 1010 l 339 387 q 385 271 339 316 q 501 225 431 225 q 617 271 572 225 q 663 387 663 316 l 663 1010 m 404 1332 l 501 1223 l 598 1332 l 823 1332 l 823 1326 l 596 1101 l 406 1101 l 180 1326 l 180 1332 l 404 1332 z "},"Ǖ":{"ha":1002,"x_min":65,"x_max":937,"o":"m 663 1010 l 937 1010 l 937 363 q 882 164 937 248 q 729 34 827 79 q 501 -12 631 -12 q 272 34 370 -12 q 120 164 174 79 q 65 363 65 248 l 65 1010 l 339 1010 l 339 387 q 385 271 339 316 q 501 225 431 225 q 617 271 572 225 q 663 387 663 316 l 663 1010 m 748 1515 l 748 1391 l 254 1391 l 254 1515 l 748 1515 m 345 1099 q 260 1132 295 1099 q 225 1213 225 1166 q 260 1294 225 1261 q 345 1328 295 1328 q 429 1294 394 1328 q 464 1213 464 1261 q 429 1132 464 1166 q 345 1099 394 1099 m 659 1099 q 574 1132 609 1099 q 539 1213 539 1166 q 574 1294 539 1261 q 659 1328 609 1328 q 743 1294 708 1328 q 777 1213 777 1261 q 743 1132 777 1166 q 659 1099 708 1099 z "},"Ǘ":{"ha":1002,"x_min":65,"x_max":937,"o":"m 663 1010 l 937 1010 l 937 363 q 882 164 937 248 q 729 34 827 79 q 501 -12 631 -12 q 272 34 370 -12 q 120 164 174 79 q 65 363 65 248 l 65 1010 l 339 1010 l 339 387 q 385 271 339 316 q 501 225 431 225 q 617 271 572 225 q 663 387 663 316 l 663 1010 m 400 1338 l 532 1528 l 755 1528 l 584 1338 l 400 1338 m 356 1073 q 276 1103 309 1073 q 243 1176 243 1133 q 276 1250 243 1219 q 356 1280 309 1280 q 434 1250 401 1280 q 466 1176 466 1219 q 434 1103 466 1133 q 356 1073 401 1073 m 649 1073 q 569 1103 602 1073 q 536 1176 536 1133 q 569 1250 536 1219 q 649 1280 602 1280 q 727 1250 694 1280 q 760 1176 760 1219 q 727 1103 760 1133 q 649 1073 694 1073 z "},"Ǚ":{"ha":1002,"x_min":65,"x_max":937,"o":"m 663 1010 l 937 1010 l 937 363 q 882 164 937 248 q 729 34 827 79 q 501 -12 631 -12 q 272 34 370 -12 q 120 164 174 79 q 65 363 65 248 l 65 1010 l 339 1010 l 339 387 q 385 271 339 316 q 501 225 431 225 q 617 271 572 225 q 663 387 663 316 l 663 1010 m 416 1468 l 503 1399 l 590 1468 l 807 1468 l 807 1458 l 596 1296 l 412 1296 l 197 1462 l 197 1468 l 416 1468 m 541 1203 q 570 1262 541 1237 q 647 1286 600 1286 q 723 1263 691 1286 q 754 1203 754 1239 q 723 1143 754 1166 q 647 1119 691 1119 q 570 1143 600 1119 q 541 1203 541 1168 m 251 1203 q 280 1262 251 1237 q 355 1286 309 1286 q 432 1262 402 1286 q 462 1203 462 1237 q 431 1143 462 1166 q 355 1119 401 1119 q 281 1143 311 1119 q 251 1203 251 1166 z "},"Ǜ":{"ha":1002,"x_min":65,"x_max":937,"o":"m 663 1010 l 937 1010 l 937 363 q 882 164 937 248 q 729 34 827 79 q 501 -12 631 -12 q 272 34 370 -12 q 120 164 174 79 q 65 363 65 248 l 65 1010 l 339 1010 l 339 387 q 385 271 339 316 q 501 225 431 225 q 617 271 572 225 q 663 387 663 316 l 663 1010 m 539 1203 q 569 1263 538 1239 q 645 1286 600 1286 q 722 1262 692 1286 q 752 1203 751 1237 q 722 1143 751 1168 q 645 1119 692 1119 q 569 1143 600 1119 q 539 1203 538 1166 m 249 1203 q 278 1262 248 1237 q 353 1286 308 1286 q 431 1262 400 1286 q 462 1203 461 1237 q 430 1143 461 1166 q 353 1119 399 1119 q 278 1143 308 1119 q 249 1203 248 1166 m 481 1411 l 572 1296 l 446 1296 l 320 1411 l 481 1411 z "},"Ȕ":{"ha":1002,"x_min":65,"x_max":937,"o":"m 663 1010 l 937 1010 l 937 363 q 882 164 937 248 q 729 34 827 79 q 501 -12 631 -12 q 272 34 370 -12 q 120 164 174 79 q 65 363 65 248 l 65 1010 l 339 1010 l 339 387 q 385 271 339 316 q 501 225 431 225 q 617 271 572 225 q 663 387 663 316 l 663 1010 m 287 1105 l 139 1326 l 372 1326 l 467 1105 l 287 1105 m 554 1105 l 459 1326 l 679 1326 l 729 1105 l 554 1105 z "},"Ȗ":{"ha":1002,"x_min":65,"x_max":937,"o":"m 663 1010 l 937 1010 l 937 363 q 882 164 937 248 q 729 34 827 79 q 501 -12 631 -12 q 272 34 370 -12 q 120 164 174 79 q 65 363 65 248 l 65 1010 l 339 1010 l 339 387 q 385 271 339 316 q 501 225 431 225 q 617 271 572 225 q 663 387 663 316 l 663 1010 m 229 1128 q 301 1286 228 1225 q 499 1347 374 1347 q 697 1286 623 1347 q 771 1128 771 1225 l 600 1128 q 576 1184 599 1160 q 499 1209 553 1209 q 423 1184 445 1209 q 400 1128 400 1160 l 229 1128 z "},"Ṳ":{"ha":1002,"x_min":65,"x_max":937,"o":"m 663 1010 l 937 1010 l 937 363 q 882 164 937 248 q 729 34 827 79 q 501 -12 631 -12 q 272 34 370 -12 q 120 164 174 79 q 65 363 65 248 l 65 1010 l 339 1010 l 339 387 q 385 271 339 316 q 501 225 431 225 q 617 271 572 225 q 663 387 663 316 l 663 1010 m 365 -300 q 270 -263 310 -300 q 231 -176 231 -227 q 270 -88 231 -124 q 365 -51 310 -51 q 460 -88 421 -51 q 499 -176 499 -124 q 460 -263 499 -227 q 365 -300 421 -300 m 760 -300 q 665 -263 704 -300 q 625 -176 625 -227 q 665 -88 625 -124 q 760 -51 704 -51 q 854 -88 815 -51 q 894 -176 894 -124 q 854 -263 894 -227 q 760 -300 815 -300 z "},"Ṵ":{"ha":1002,"x_min":65,"x_max":937,"o":"m 663 1010 l 937 1010 l 937 363 q 882 164 937 248 q 729 34 827 79 q 501 -12 631 -12 q 272 34 370 -12 q 120 164 174 79 q 65 363 65 248 l 65 1010 l 339 1010 l 339 387 q 385 271 339 316 q 501 225 431 225 q 617 271 572 225 q 663 387 663 316 l 663 1010 m 385 -278 l 251 -278 q 299 -120 251 -172 q 418 -67 348 -68 q 493 -84 464 -67 q 545 -119 523 -102 q 574 -139 561 -131 q 602 -148 587 -148 q 642 -127 630 -147 q 655 -71 654 -107 l 787 -71 q 737 -229 786 -176 q 619 -284 689 -283 q 545 -268 574 -285 q 494 -233 516 -251 q 465 -212 479 -221 q 436 -203 451 -203 q 385 -278 385 -203 z "},"Ṷ":{"ha":1002,"x_min":65,"x_max":937,"o":"m 663 1010 l 937 1010 l 937 363 q 882 164 937 248 q 729 34 827 79 q 501 -12 631 -12 q 272 34 370 -12 q 120 164 174 79 q 65 363 65 248 l 65 1010 l 339 1010 l 339 387 q 385 271 339 316 q 501 225 431 225 q 617 271 572 225 q 663 387 663 316 l 663 1010 m 598 -288 l 501 -180 l 404 -288 l 180 -288 l 180 -282 l 406 -57 l 596 -57 l 823 -282 l 823 -288 l 598 -288 z "},"Ṹ":{"ha":1002,"x_min":65,"x_max":937,"o":"m 663 1010 l 937 1010 l 937 363 q 882 164 937 248 q 729 34 827 79 q 501 -12 631 -12 q 272 34 370 -12 q 120 164 174 79 q 65 363 65 248 l 65 1010 l 339 1010 l 339 387 q 385 271 339 316 q 501 225 431 225 q 617 271 572 225 q 663 387 663 316 l 663 1010 m 376 1091 l 251 1091 q 296 1232 251 1186 q 407 1278 342 1278 q 477 1263 450 1279 q 526 1233 505 1248 q 553 1214 540 1222 q 579 1207 565 1207 q 616 1225 605 1207 q 628 1275 627 1243 l 752 1275 q 705 1134 751 1182 q 595 1086 660 1087 q 525 1101 552 1086 q 478 1131 498 1116 q 451 1150 464 1142 q 424 1158 438 1158 q 376 1091 376 1158 m 393 1338 l 524 1528 l 747 1528 l 576 1338 l 393 1338 z "},"Ṻ":{"ha":1002,"x_min":65,"x_max":937,"o":"m 663 1010 l 937 1010 l 937 363 q 882 164 937 248 q 729 34 827 79 q 501 -12 631 -12 q 272 34 370 -12 q 120 164 174 79 q 65 363 65 248 l 65 1010 l 339 1010 l 339 387 q 385 271 339 316 q 501 225 431 225 q 617 271 572 225 q 663 387 663 316 l 663 1010 m 748 1217 l 748 1095 l 253 1095 l 253 1217 l 748 1217 m 249 1361 q 278 1421 248 1397 q 353 1446 308 1446 q 430 1421 399 1446 q 462 1361 461 1397 q 431 1301 461 1326 q 353 1276 400 1276 q 277 1301 307 1276 q 249 1361 248 1326 m 539 1361 q 568 1421 538 1397 q 645 1446 599 1446 q 721 1421 690 1446 q 752 1361 751 1397 q 721 1302 751 1326 q 645 1278 690 1278 q 568 1302 599 1278 q 539 1361 538 1326 z "},"Ụ":{"ha":1002,"x_min":65,"x_max":937,"o":"m 663 1010 l 937 1010 l 937 363 q 882 164 937 248 q 729 34 827 79 q 501 -12 631 -12 q 272 34 370 -12 q 120 164 174 79 q 65 363 65 248 l 65 1010 l 339 1010 l 339 387 q 385 271 339 316 q 501 225 431 225 q 617 271 572 225 q 663 387 663 316 l 663 1010 m 501 -300 q 406 -263 446 -300 q 367 -176 367 -227 q 406 -88 367 -124 q 501 -51 446 -51 q 596 -88 557 -51 q 635 -176 635 -124 q 596 -263 635 -227 q 501 -300 557 -300 z "},"Ủ":{"ha":1002,"x_min":65,"x_max":937,"o":"m 663 1010 l 937 1010 l 937 363 q 882 164 937 248 q 729 34 827 79 q 501 -12 631 -12 q 272 34 370 -12 q 120 164 174 79 q 65 363 65 248 l 65 1010 l 339 1010 l 339 387 q 385 271 339 316 q 501 225 431 225 q 617 271 572 225 q 663 387 663 316 l 663 1010 m 596 1123 l 400 1123 l 383 1199 q 458 1213 436 1201 q 479 1241 480 1225 q 454 1275 480 1268 q 387 1282 428 1282 l 393 1391 q 624 1355 545 1391 q 702 1255 703 1320 q 670 1191 703 1213 q 596 1162 637 1168 l 596 1123 z "},"Ứ":{"ha":1213,"x_min":65,"x_max":1176,"o":"m 1026 1030 l 1176 1030 q 1156 866 1176 937 q 1084 753 1135 796 q 937 698 1032 710 l 937 363 q 882 164 937 248 q 729 34 827 79 q 501 -12 631 -12 q 272 34 370 -12 q 120 164 174 79 q 65 363 65 248 l 65 1010 l 339 1010 l 339 387 q 385 271 339 316 q 501 225 431 225 q 617 271 572 225 q 663 387 663 316 l 663 1010 l 937 1010 l 937 822 q 1000 861 981 834 q 1022 931 1018 889 q 1026 1025 1026 973 q 1026 1030 1026 1028 m 410 1105 l 505 1326 l 738 1326 l 590 1105 l 410 1105 z "},"Ừ":{"ha":1213,"x_min":65,"x_max":1176,"o":"m 1026 1030 l 1176 1030 q 1156 866 1176 937 q 1084 753 1135 796 q 937 698 1032 710 l 937 363 q 882 164 937 248 q 729 34 827 79 q 501 -12 631 -12 q 272 34 370 -12 q 120 164 174 79 q 65 363 65 248 l 65 1010 l 339 1010 l 339 387 q 385 271 339 316 q 501 225 431 225 q 617 271 572 225 q 663 387 663 316 l 663 1010 l 937 1010 l 937 822 q 1000 861 981 834 q 1022 931 1018 889 q 1026 1025 1026 973 q 1026 1030 1026 1028 m 412 1105 l 264 1326 l 497 1326 l 592 1105 l 412 1105 z "},"Ử":{"ha":1213,"x_min":65,"x_max":1176,"o":"m 1026 1030 l 1176 1030 q 1156 866 1176 937 q 1084 753 1135 796 q 937 698 1032 710 l 937 363 q 882 164 937 248 q 729 34 827 79 q 501 -12 631 -12 q 272 34 370 -12 q 120 164 174 79 q 65 363 65 248 l 65 1010 l 339 1010 l 339 387 q 385 271 339 316 q 501 225 431 225 q 617 271 572 225 q 663 387 663 316 l 663 1010 l 937 1010 l 937 822 q 1000 861 981 834 q 1022 931 1018 889 q 1026 1025 1026 973 q 1026 1030 1026 1028 m 596 1123 l 400 1123 l 383 1199 q 458 1213 436 1201 q 479 1241 480 1225 q 454 1275 480 1268 q 387 1282 428 1282 l 393 1391 q 624 1355 545 1391 q 702 1255 703 1320 q 670 1191 703 1213 q 596 1162 637 1168 l 596 1123 z "},"Ữ":{"ha":1213,"x_min":65,"x_max":1176,"o":"m 1026 1030 l 1176 1030 q 1156 866 1176 937 q 1084 753 1135 796 q 937 698 1032 710 l 937 363 q 882 164 937 248 q 729 34 827 79 q 501 -12 631 -12 q 272 34 370 -12 q 120 164 174 79 q 65 363 65 248 l 65 1010 l 339 1010 l 339 387 q 385 271 339 316 q 501 225 431 225 q 617 271 572 225 q 663 387 663 316 l 663 1010 l 937 1010 l 937 822 q 1000 861 981 834 q 1022 931 1018 889 q 1026 1025 1026 973 q 1026 1030 1026 1028 m 367 1105 l 233 1105 q 282 1263 233 1211 q 400 1316 330 1315 q 476 1299 446 1316 q 528 1264 506 1281 q 556 1244 543 1252 q 584 1235 570 1235 q 625 1256 613 1235 q 637 1312 637 1276 l 769 1312 q 719 1154 768 1207 q 602 1099 671 1100 q 527 1115 556 1098 q 476 1150 498 1132 q 447 1171 461 1162 q 418 1180 434 1180 q 367 1105 367 1180 z "},"Ự":{"ha":1213,"x_min":65,"x_max":1176,"o":"m 1026 1030 l 1176 1030 q 1156 866 1176 937 q 1084 753 1135 796 q 937 698 1032 710 l 937 363 q 882 164 937 248 q 729 34 827 79 q 501 -12 631 -12 q 272 34 370 -12 q 120 164 174 79 q 65 363 65 248 l 65 1010 l 339 1010 l 339 387 q 385 271 339 316 q 501 225 431 225 q 617 271 572 225 q 663 387 663 316 l 663 1010 l 937 1010 l 937 822 q 1000 861 981 834 q 1022 931 1018 889 q 1026 1025 1026 973 q 1026 1030 1026 1028 m 501 -300 q 406 -263 446 -300 q 367 -176 367 -227 q 406 -88 367 -124 q 501 -51 446 -51 q 596 -88 557 -51 q 635 -176 635 -124 q 596 -263 635 -227 q 501 -300 557 -300 z "},"Ʉ":{"ha":1073,"x_min":-8,"x_max":1081,"o":"m 1081 566 l 1081 416 l 979 416 l 979 363 q 924 164 979 248 q 770 34 869 79 q 543 -12 672 -12 q 314 34 412 -12 q 161 164 216 79 q 107 363 107 248 l 107 416 l -8 416 l -8 566 l 107 566 l 107 1010 l 381 1010 l 381 566 l 704 566 l 704 1010 l 979 1010 l 979 566 l 1081 566 m 704 416 l 381 416 l 381 387 q 426 271 381 316 q 543 225 472 225 q 659 271 613 225 q 704 387 704 316 l 704 416 z "},"V":{"ha":1105,"x_min":32,"x_max":1073,"o":"m 341 1010 l 548 298 l 556 298 l 763 1010 l 1073 1010 l 740 0 l 365 0 l 32 1010 l 341 1010 z "},"Ṽ":{"ha":1105,"x_min":32,"x_max":1073,"o":"m 341 1010 l 548 298 l 556 298 l 763 1010 l 1073 1010 l 740 0 l 365 0 l 32 1010 l 341 1010 m 418 1105 l 284 1105 q 333 1263 284 1211 q 452 1316 382 1315 q 527 1299 497 1316 q 579 1264 557 1281 q 608 1244 594 1252 q 635 1235 621 1235 q 676 1256 664 1235 q 689 1312 688 1276 l 821 1312 q 771 1154 819 1207 q 653 1099 722 1100 q 578 1115 607 1098 q 528 1150 549 1132 q 499 1171 512 1162 q 470 1180 485 1180 q 418 1105 418 1180 z "},"Ṿ":{"ha":1105,"x_min":32,"x_max":1073,"o":"m 341 1010 l 548 298 l 556 298 l 763 1010 l 1073 1010 l 740 0 l 365 0 l 32 1010 l 341 1010 m 552 -306 q 458 -269 497 -306 q 418 -182 418 -233 q 458 -94 418 -130 q 552 -57 497 -57 q 647 -94 608 -57 q 687 -182 687 -130 q 647 -269 687 -233 q 552 -306 608 -306 z "},"W":{"ha":1519,"x_min":24,"x_max":1495,"o":"m 322 0 l 24 1010 l 329 1010 l 468 389 l 475 389 l 639 1010 l 880 1010 l 1044 387 l 1052 387 l 1190 1010 l 1495 1010 l 1198 0 l 935 0 l 763 564 l 756 564 l 584 0 l 322 0 z "},"Ŵ":{"ha":1519,"x_min":24,"x_max":1495,"o":"m 322 0 l 24 1010 l 329 1010 l 468 389 l 475 389 l 639 1010 l 880 1010 l 1044 387 l 1052 387 l 1190 1010 l 1495 1010 l 1198 0 l 935 0 l 763 564 l 756 564 l 584 0 l 322 0 m 856 1101 l 760 1209 l 663 1101 l 438 1101 l 438 1107 l 665 1332 l 854 1332 l 1081 1107 l 1081 1101 l 856 1101 z "},"Ẁ":{"ha":1519,"x_min":24,"x_max":1495,"o":"m 322 0 l 24 1010 l 329 1010 l 468 389 l 475 389 l 639 1010 l 880 1010 l 1044 387 l 1052 387 l 1190 1010 l 1495 1010 l 1198 0 l 935 0 l 763 564 l 756 564 l 584 0 l 322 0 m 671 1105 l 523 1326 l 756 1326 l 850 1105 l 671 1105 z "},"Ẃ":{"ha":1519,"x_min":24,"x_max":1495,"o":"m 322 0 l 24 1010 l 329 1010 l 468 389 l 475 389 l 639 1010 l 880 1010 l 1044 387 l 1052 387 l 1190 1010 l 1495 1010 l 1198 0 l 935 0 l 763 564 l 756 564 l 584 0 l 322 0 m 669 1105 l 763 1326 l 996 1326 l 848 1105 l 669 1105 z "},"Ẅ":{"ha":1519,"x_min":24,"x_max":1495,"o":"m 322 0 l 24 1010 l 329 1010 l 468 389 l 475 389 l 639 1010 l 880 1010 l 1044 387 l 1052 387 l 1190 1010 l 1495 1010 l 1198 0 l 935 0 l 763 564 l 756 564 l 584 0 l 322 0 m 604 1099 q 518 1132 553 1099 q 483 1213 483 1166 q 518 1294 483 1261 q 604 1328 553 1328 q 687 1294 653 1328 q 722 1213 722 1261 q 687 1132 722 1166 q 604 1099 653 1099 m 917 1099 q 832 1132 867 1099 q 797 1213 797 1166 q 832 1294 797 1261 q 917 1328 867 1328 q 1001 1294 966 1328 q 1036 1213 1036 1261 q 1001 1132 1036 1166 q 917 1099 966 1099 z "},"Ẇ":{"ha":1519,"x_min":24,"x_max":1495,"o":"m 322 0 l 24 1010 l 329 1010 l 468 389 l 475 389 l 639 1010 l 880 1010 l 1044 387 l 1052 387 l 1190 1010 l 1495 1010 l 1198 0 l 935 0 l 763 564 l 756 564 l 584 0 l 322 0 m 760 1089 q 665 1126 704 1089 q 625 1213 625 1162 q 665 1301 625 1265 q 760 1338 704 1338 q 854 1301 815 1338 q 894 1213 894 1265 q 854 1126 894 1162 q 760 1089 815 1089 z "},"Ẉ":{"ha":1519,"x_min":24,"x_max":1495,"o":"m 322 0 l 24 1010 l 329 1010 l 468 389 l 475 389 l 639 1010 l 880 1010 l 1044 387 l 1052 387 l 1190 1010 l 1495 1010 l 1198 0 l 935 0 l 763 564 l 756 564 l 584 0 l 322 0 m 760 -306 q 665 -269 704 -306 q 625 -182 625 -233 q 665 -94 625 -130 q 760 -57 704 -57 q 854 -94 815 -57 q 894 -182 894 -130 q 854 -269 894 -233 q 760 -306 815 -306 z "},"X":{"ha":1059,"x_min":41,"x_max":1018,"o":"m 359 1010 l 525 716 l 533 716 l 700 1010 l 1006 1010 l 704 505 l 1018 0 l 704 0 l 533 300 l 525 300 l 353 0 l 41 0 l 351 505 l 51 1010 l 359 1010 z "},"Ẋ":{"ha":1059,"x_min":41,"x_max":1018,"o":"m 359 1010 l 525 716 l 533 716 l 700 1010 l 1006 1010 l 704 505 l 1018 0 l 704 0 l 533 300 l 525 300 l 353 0 l 41 0 l 351 505 l 51 1010 l 359 1010 m 529 1089 q 434 1126 473 1089 q 395 1213 395 1162 q 434 1301 395 1265 q 529 1338 473 1338 q 624 1301 584 1338 q 663 1213 663 1265 q 624 1126 663 1162 q 529 1089 584 1089 z "},"Ẍ":{"ha":1059,"x_min":41,"x_max":1018,"o":"m 359 1010 l 525 716 l 533 716 l 700 1010 l 1006 1010 l 704 505 l 1018 0 l 704 0 l 533 300 l 525 300 l 353 0 l 41 0 l 351 505 l 51 1010 l 359 1010 m 373 1099 q 288 1132 323 1099 q 253 1213 253 1166 q 288 1294 253 1261 q 373 1328 323 1328 q 456 1294 422 1328 q 491 1213 491 1261 q 456 1132 491 1166 q 373 1099 422 1099 m 687 1099 q 601 1132 636 1099 q 566 1213 566 1166 q 601 1294 566 1261 q 687 1328 636 1328 q 770 1294 735 1328 q 805 1213 805 1261 q 770 1132 805 1166 q 687 1099 735 1099 z "},"Ҳ":{"ha":1059,"x_min":41,"x_max":1099,"o":"m 359 1010 l 525 716 l 533 716 l 700 1010 l 1006 1010 l 704 505 l 1018 0 l 704 0 l 533 300 l 525 300 l 353 0 l 41 0 l 351 505 l 51 1010 l 359 1010 m 1099 170 l 1099 -243 l 836 -243 l 836 170 l 1099 170 z "}}}
